<?xml version="1.0" encoding="UTF-8"?>
<svg xmlns="http://www.w3.org/2000/svg" xmlns:xlink="http://www.w3.org/1999/xlink" viewBox="0 0 24 24" version="1.1" width="24px" height="24px">
<g id="surface1">
<path style=" " d="M 9 2 C 5.101563 2 2 5.101563 2 9 C 2 12.898438 5.101563 16 9 16 C 9.894531 16 10.75 15.828125 11.53125 15.53125 L 13 17 L 15 17 L 15 19 L 17 19 L 17 21 L 17.6875 21.6875 C 17.886719 21.886719 18.105469 22 18.40625 22 L 21 22 C 21.601563 22 22 21.601563 22 21 L 22 18.40625 C 22 18.105469 21.886719 17.886719 21.6875 17.6875 L 15.53125 11.53125 C 15.828125 10.75 16 9.894531 16 9 C 16 5.101563 12.898438 2 9 2 Z M 7.5 5 C 8.898438 5 10 6.101563 10 7.5 C 10 8.898438 8.898438 10 7.5 10 C 6.101563 10 5 8.898438 5 7.5 C 5 6.101563 6.101563 5 7.5 5 Z "/>
</g>
</svg>
