<!--?xml version="1.0" encoding="utf-8"?-->
<!-- Generator: Adobe Illustrator 22.0.0, SVG Export Plug-In . SVG Version: 6.00 Build 0)  -->
<svg version="1.1" xmlns="http://www.w3.org/2000/svg" xmlns:xlink="http://www.w3.org/1999/xlink" x="0px" y="0px" viewBox="0 0 800 666" style="" xml:space="preserve">
<style type="text/css">
	.st0{fill:#FFCC66;}
	.st1{fill:none;}
	.st2{fill:#D63031;}
	.st3{fill:#0984E3;}
	.st4{fill:#FDCB6E;}
	.st5{fill:none;stroke:#0984E3;stroke-width:6;stroke-miterlimit:10;}
	.st6{fill:none;stroke:#D63031;stroke-width:6;stroke-miterlimit:10;}
	.st7{fill:none;stroke:#FFCC66;stroke-width:6;stroke-miterlimit:10;}
</style>
<g id="загружено__x28_1_x29__xA0_Image_5_">
	<g>
		<path class="st0 kYFjWKKi_0" d="M561.3,428.9c0-3.3,0-6.7,0-10c1-8.2,6-13.8,12.6-18.2c16.8-11.4,35.6-17,55.8-17.8
			c5.3-0.2,10.6-0.8,15.9-0.5c2.2,0,4.4,0,6.7,0c1.7,0,3.4,0,5,0c2.2,0,4.4,0,6.7,0c17.2,0.1,34.2,0.9,50.5,7.4
			c7.5,3,14.7,6.3,21.3,10.9c6.5,4.5,11.5,10,12.6,18.2c0,3.3,0,6.7,0,10c-1.1,11.5-9.4,17.4-18.3,22.5
			c-14.1,8.1-29.4,12.2-45.4,14.4c-12.4,1.8-24.8,2.8-37.3,2.1c-23.2-1.3-46-4.5-66.8-16c-4.1-2.3-7.9-5-11.5-8
			C564.3,440.1,562.2,434.8,561.3,428.9z"></path>
		<path class="st0 kYFjWKKi_1" d="M561.3,515.9c0-10.7,0-21.3,0-32c2.1-0.5,3.2,1,3.9,2.4c6,11.2,16.6,16.7,27.5,21.2
			c16.6,6.8,34.1,9.9,52,10.4c18.7,0.5,37.3-0.1,55.5-4.9c11.2-3,21.9-6.8,31.6-13.3c4.9-3.3,9.2-7.2,12-12.5
			c0.9-1.7,1.9-3.7,4.5-3.2c0,10.7,0,21.3,0,32c-1.9,12.7-11.5,18.6-21.4,23.7c-19.7,10.2-41.1,13.9-63.1,14.5
			c-20.4,0.5-40.5-0.4-60.2-6.2c-10.9-3.2-21.4-7.4-30.6-14.3C567,529.1,562.1,523.9,561.3,515.9z"></path>
		<path class="st0 kYFjWKKi_2" d="M748.3,526.9c0,10.7,0,21.3,0,32c-1.3,12.2-10.5,17.9-19.8,23.1c-14.4,8-29.9,12.3-46.5,13
			c-4.6,0.2-9.2-0.1-13.8,0.9c-9.3,0-18.7,0-28,0c-6.4-0.9-12.8-0.7-19.2-1.5c-18.6-2.2-35.9-7.8-50.7-19.7
			c-5.2-4.1-8.4-9.2-9.1-15.8c0-10.7,0-21.3,0-32c2.1-0.4,2.9,1.3,3.8,2.6c6,10,15.2,16.1,25.7,20.4c16.5,6.8,33.7,9.7,51.4,11.1
			c20.1,1.6,39.8-0.4,59.2-5.3c13.2-3.3,26.1-7.9,36.4-17.7c2.5-2.4,4.6-5.2,6.6-8.1C745.3,528.5,745.9,526.5,748.3,526.9z"></path>
		<path class="st0 kYFjWKKi_3" d="M561.3,471.9c0-10.3,0-20.7,0-31c2.1-0.5,3.2,1,4,2.3c7,12.3,18.8,18,31.3,22.5c16.7,6.1,34.1,8.6,51.8,9.1
			c21.3,0.6,42.1-1.5,62.4-8.2c8.6-2.8,16.6-6.7,23.9-12.2c3.6-2.8,6.6-6.1,8.9-9.9c1.1-1.8,2-4,4.8-3.6c0,10.3,0,20.7,0,31
			c-0.8,10.3-7.7,16.1-15.5,21.1c-13.3,8.6-28.1,12.9-43.5,15.3c-31.8,5-63.3,4.1-94.1-6.4c-7.3-2.5-14.1-5.9-20.5-10.3
			C567.7,486.9,561.9,481.1,561.3,471.9z"></path>
	</g>
	<path class="st1 kYFjWKKi_4" width="187" height="214" d="M545 386 L732 386 L732 600 L545 600 Z"></path>
	<g>
		<g>
			<path class="st2 kYFjWKKi_5" d="M551.8,124c0-3.3,0-6.7,0-10c1-8.2,6-13.8,12.6-18.2c16.8-11.4,35.6-17,55.8-17.8c5.3-0.2,10.6-0.8,15.9-0.5
				c2.2,0,4.4,0,6.7,0c1.7,0,3.4,0,5,0c2.2,0,4.4,0,6.7,0c17.2,0.1,34.2,0.9,50.5,7.4c7.5,3,14.7,6.3,21.3,10.9
				c6.5,4.5,11.5,10,12.6,18.2c0,3.3,0,6.7,0,10c-1.1,11.5-9.4,17.4-18.3,22.5c-14.1,8.1-29.4,12.2-45.4,14.4
				c-12.4,1.8-24.8,2.8-37.3,2.1c-23.2-1.3-46-4.5-66.8-16c-4.1-2.3-7.9-5-11.5-8C554.8,135.2,552.7,129.9,551.8,124z"></path>
			<path class="st2 kYFjWKKi_6" d="M551.8,211c0-10.7,0-21.3,0-32c2.1-0.5,3.2,1,3.9,2.4c6,11.2,16.6,16.7,27.5,21.2c16.6,6.8,34.1,9.9,52,10.4
				c18.7,0.5,37.3-0.1,55.5-4.9c11.2-3,21.9-6.8,31.6-13.3c4.9-3.3,9.2-7.2,12-12.5c0.9-1.7,1.9-3.7,4.5-3.2c0,10.7,0,21.3,0,32
				c-1.9,12.7-11.5,18.6-21.4,23.7c-19.7,10.2-41.1,13.9-63.1,14.5c-20.4,0.5-40.5-0.4-60.2-6.2c-10.9-3.2-21.4-7.4-30.6-14.3
				C557.5,224.3,552.5,219,551.8,211z"></path>
			<path class="st2 kYFjWKKi_7" d="M738.8,222c0,10.7,0,21.3,0,32c-1.3,12.2-10.5,17.9-19.8,23.1c-14.4,8-29.9,12.3-46.5,13
				c-4.6,0.2-9.2-0.1-13.8,0.9c-9.3,0-18.7,0-28,0c-6.4-0.9-12.8-0.7-19.2-1.5c-18.6-2.2-35.9-7.8-50.7-19.7
				c-5.2-4.1-8.4-9.2-9.1-15.8c0-10.7,0-21.3,0-32c2.1-0.4,2.9,1.3,3.8,2.6c6,10,15.2,16.1,25.7,20.4c16.5,6.8,33.7,9.7,51.4,11.1
				c20.1,1.6,39.8-0.4,59.2-5.3c13.2-3.3,26.1-7.9,36.4-17.7c2.5-2.4,4.6-5.2,6.6-8.1C735.8,223.6,736.4,221.7,738.8,222z"></path>
			<path class="st2 kYFjWKKi_8" d="M551.8,167c0-10.3,0-20.7,0-31c2.1-0.5,3.2,1,4,2.3c7,12.3,18.8,18,31.3,22.5c16.7,6.1,34.1,8.6,51.8,9.1
				c21.3,0.6,42.1-1.5,62.4-8.2c8.6-2.8,16.6-6.7,23.9-12.2c3.6-2.8,6.6-6.1,8.9-9.9c1.1-1.8,2-4,4.8-3.6c0,10.3,0,20.7,0,31
				c-0.8,10.3-7.7,16.1-15.5,21.1c-13.3,8.6-28.1,12.9-43.5,15.3c-31.8,5-63.3,4.1-94.1-6.4c-7.3-2.5-14.1-5.9-20.5-10.3
				C558.1,182,552.4,176.3,551.8,167z"></path>
		</g>
	</g>
	<g>
		<path class="st3 kYFjWKKi_9" d="M36.8,276.5c0-3.3,0-6.7,0.1-10c1.1-8.2,6.1-13.7,12.7-18.1c16.9-11.3,35.7-16.8,55.9-17.4
			c5.3-0.2,10.6-0.8,15.9-0.4c2.2,0,4.4,0,6.7,0c1.7,0,3.4,0,5,0c2.2,0,4.4,0,6.7,0c17.2,0.2,34.2,1.2,50.5,7.7
			c7.5,3,14.6,6.4,21.2,11c6.4,4.6,11.5,10.1,12.5,18.3c0,3.3,0,6.7-0.1,10c-1.2,11.5-9.5,17.3-18.5,22.4c-14.1,8-29.5,12-45.5,14.1
			c-12.4,1.7-24.8,2.6-37.3,1.8c-23.2-1.4-46-4.8-66.7-16.4c-4.1-2.3-7.8-5-11.4-8C39.7,287.7,37.6,282.4,36.8,276.5z"></path>
		<path class="st3 kYFjWKKi_10" d="M36.2,363.5c0.1-10.7,0.1-21.3,0.2-32c2.1-0.5,3.2,1,3.9,2.4c5.9,11.3,16.5,16.8,27.4,21.3
			c16.6,6.9,34,10.1,52,10.7c18.7,0.6,37.3,0.1,55.5-4.6c11.2-2.9,22-6.7,31.7-13.1c4.9-3.2,9.2-7.1,12.1-12.4
			c0.9-1.7,1.9-3.7,4.5-3.2c-0.1,10.7-0.1,21.3-0.2,32c-1.9,12.6-11.6,18.5-21.6,23.6c-19.8,10.1-41.1,13.6-63.2,14.1
			c-20.4,0.4-40.5-0.7-60.2-6.5c-10.9-3.3-21.3-7.6-30.5-14.5C41.8,376.8,36.9,371.5,36.2,363.5z"></path>
		<path class="st3 kYFjWKKi_11" d="M223.1,375.7c-0.1,10.7-0.1,21.3-0.2,32c-1.4,12.2-10.6,17.9-19.9,23c-14.4,7.9-30,12.1-46.6,12.7
			c-4.6,0.2-9.2-0.1-13.8,0.8c-9.3-0.1-18.7-0.1-28-0.2c-6.4-1-12.8-0.8-19.2-1.6c-18.6-2.3-35.8-8-50.6-20c-5.1-4.2-8.3-9.2-9-15.8
			c0.1-10.7,0.1-21.3,0.2-32c2.1-0.4,2.9,1.3,3.7,2.7c6,10,15.1,16.2,25.6,20.6c16.4,6.9,33.6,9.9,51.3,11.5
			c20.1,1.7,39.8-0.2,59.3-4.9c13.3-3.3,26.2-7.7,36.5-17.5c2.6-2.4,4.7-5.2,6.6-8.1C220.1,377.3,220.8,375.3,223.1,375.7z"></path>
		<path class="st3 kYFjWKKi_12" d="M36.5,319.5c0.1-10.3,0.1-20.7,0.2-31c2.1-0.5,3.2,1,3.9,2.4c6.9,12.3,18.7,18.1,31.1,22.7
			c16.6,6.2,34,8.8,51.7,9.4c21.3,0.7,42.2-1.3,62.5-7.8c8.6-2.8,16.7-6.6,23.9-12c3.7-2.8,6.6-6,9-9.9c1.1-1.8,2-3.9,4.8-3.6
			c-0.1,10.3-0.1,20.7-0.2,31c-0.8,10.3-7.8,16-15.7,21c-13.3,8.5-28.2,12.7-43.6,15c-31.8,4.8-63.3,3.7-94-7
			c-7.3-2.5-14.1-6-20.4-10.4C42.8,334.5,37,328.7,36.5,319.5z"></path>
		<path class="st3 kYFjWKKi_13" d="M121,230.9c0-0.3,0.1-0.6,0.1-0.9c2.3,0,4.7,0,7,0c0.7,0.3,0.7,0.6,0,0.9C125.7,230.9,123.3,230.9,121,230.9z
			"></path>
		<path class="st3 kYFjWKKi_14" d="M140.1,230.7c0,0.1,0,0.2,0,0.4c-2.3,0-4.7,0-7,0c-0.7-0.3-0.7-0.6,0-0.9c2.3,0,4.7,0,7,0
			C140.1,230.3,140.1,230.5,140.1,230.7"></path>
		<path class="st3 kYFjWKKi_15" d="M133.1,230.1c0,0.3,0,0.6,0,0.9c-1.7,0-3.4,0-5.1,0c0-0.3,0-0.6,0-0.9c0.2,0,0.3,0,0.5,0"></path>
	</g>
</g>
<g id="загружено__x28_1_x29__xA0_Image_3_">
</g>
<g id="загружено__x28_1_x29__xA0_Image_1_">
</g>
<g id="MySQL">
	<g>
		<path class="st3 kYFjWKKi_16" d="M31.7,449.5h9.6l12,36.1l12.1-36.1h9.6l8.7,51.7h-9.5l-5.5-32.7l-11,32.7h-8.7L38,468.6l-5.7,32.7h-9.6
			L31.7,449.5z"></path>
		<path class="st3 kYFjWKKi_17" d="M86.1,463H96l9.9,24l11-24h9.8l-24,52.2h-9.9l7.9-16.8L86.1,463z"></path>
		<path class="st3 kYFjWKKi_18" d="M160.4,456.6l-7.3,6.4c-2.6-3.6-5.2-5.3-7.8-5.3c-1.3,0-2.3,0.3-3.2,1c-0.8,0.7-1.2,1.5-1.2,2.3
			s0.3,1.7,0.9,2.5c0.8,1,3.2,3.2,7.2,6.6c3.8,3.1,6,5.1,6.8,5.9c2,2,3.4,3.9,4.2,5.8s1.3,3.8,1.3,6c0,4.2-1.5,7.7-4.4,10.5
			c-2.9,2.8-6.8,4.1-11.5,4.1c-3.7,0-6.9-0.9-9.6-2.7s-5.1-4.6-7-8.5l8.3-5c2.5,4.6,5.4,6.9,8.6,6.9c1.7,0,3.1-0.5,4.3-1.5
			c1.2-1,1.7-2.1,1.7-3.4c0-1.2-0.4-2.3-1.3-3.5s-2.8-3-5.7-5.4c-5.6-4.6-9.3-8.1-10.9-10.6s-2.5-5-2.5-7.5c0-3.6,1.4-6.7,4.1-9.2
			c2.7-2.6,6.1-3.8,10.1-3.8c2.6,0,5,0.6,7.4,1.8S157.6,453.4,160.4,456.6z"></path>
		<path class="st3 kYFjWKKi_19" d="M215,493.7l9,11.6h-11.7l-4.6-5.9c-3.8,2.1-8,3.1-12.6,3.1c-7.8,0-14.2-2.7-19.4-8
			c-5.1-5.4-7.7-11.7-7.7-19.1c0-4.9,1.2-9.5,3.6-13.6c2.4-4.1,5.7-7.4,9.9-9.9c4.2-2.4,8.7-3.7,13.5-3.7c7.3,0,13.6,2.6,18.9,7.9
			c5.3,5.3,7.9,11.8,7.9,19.4C221.8,482.6,219.6,488.6,215,493.7z M208.9,485.7c2.1-3.1,3.1-6.5,3.1-10.3c0-4.9-1.7-9.1-5-12.5
			c-3.3-3.4-7.3-5.1-12-5.1c-4.8,0-8.9,1.7-12.1,5c-3.3,3.3-4.9,7.6-4.9,12.7c0,5.7,2.1,10.2,6.2,13.6c3.2,2.6,6.9,3.9,11,3.9
			c2.3,0,4.6-0.5,6.6-1.4l-9.3-11.9h11.7L208.9,485.7z"></path>
		<path class="st3 kYFjWKKi_20" d="M231.1,449.5h9.8v42.3h14.3v9.4h-24.2V449.5z"></path>
	</g>
</g>
<g id="Oracle">
	<g>
		<path class="st2 kYFjWKKi_21" d="M556.3,290.3c7.3,0,13.6,2.6,18.9,7.9c5.3,5.3,7.9,11.8,7.9,19.4c0,7.5-2.6,13.9-7.8,19.2
			c-5.2,5.2-11.5,7.8-18.9,7.8c-7.8,0-14.2-2.7-19.3-8.1s-7.7-11.7-7.7-19.1c0-4.9,1.2-9.5,3.6-13.6c2.4-4.1,5.7-7.4,9.9-9.9
			C547,291.5,551.5,290.3,556.3,290.3z M556.2,299.9c-4.8,0-8.8,1.7-12.1,5c-3.3,3.3-4.9,7.6-4.9,12.7c0,5.7,2.1,10.2,6.2,13.6
			c3.2,2.6,6.9,3.9,11,3.9c4.7,0,8.6-1.7,11.9-5.1c3.3-3.4,4.9-7.5,4.9-12.5c0-4.9-1.7-9.1-5-12.5C565,301.6,561,299.9,556.2,299.9z
			"></path>
		<path class="st2 kYFjWKKi_22" d="M589.1,305h8.2v4.8c0.9-1.9,2.1-3.3,3.6-4.3s3.1-1.5,4.9-1.5c1.2,0,2.5,0.3,3.9,1l-3,8.3
			c-1.1-0.6-2.1-0.8-2.8-0.8c-1.5,0-2.7,0.9-3.7,2.7s-1.5,5.4-1.5,10.8l0,1.9v15.5h-9.5V305z"></path>
		<path class="st2 kYFjWKKi_23" d="M642.6,305h9.6v38.3h-9.6v-4c-1.9,1.8-3.8,3.1-5.6,3.8c-1.9,0.8-3.9,1.2-6.1,1.2c-4.9,0-9.2-1.9-12.8-5.7
			c-3.6-3.8-5.4-8.6-5.4-14.3c0-5.9,1.7-10.7,5.2-14.5c3.5-3.8,7.7-5.7,12.7-5.7c2.3,0,4.4,0.4,6.5,1.3c2,0.9,3.9,2.2,5.6,3.9V305z
			 M632.5,312.9c-3,0-5.4,1-7.4,3.1c-2,2.1-2.9,4.8-2.9,8.1c0,3.3,1,6,3,8.2c2,2.1,4.5,3.2,7.4,3.2c3,0,5.5-1,7.5-3.1s3-4.8,3-8.2
			c0-3.3-1-6-3-8.1C638,313.9,635.5,312.9,632.5,312.9z"></path>
		<path class="st2 kYFjWKKi_24" d="M699.3,312.8l-8,4.4c-1.5-1.6-3-2.7-4.5-3.3c-1.5-0.6-3.2-0.9-5.2-0.9c-3.6,0-6.5,1.1-8.7,3.2
			c-2.2,2.1-3.3,4.9-3.3,8.2c0,3.3,1.1,5.9,3.2,8c2.1,2.1,4.9,3.1,8.4,3.1c4.3,0,7.6-1.5,10-4.4l7.6,5.2c-4.1,5.3-9.9,8-17.4,8
			c-6.7,0-12-2-15.8-6s-5.7-8.6-5.7-14c0-3.7,0.9-7.1,2.8-10.2c1.9-3.1,4.4-5.6,7.8-7.3c3.3-1.8,7-2.7,11.1-2.7
			c3.8,0,7.2,0.8,10.2,2.3S697.4,310,699.3,312.8z"></path>
		<path class="st2 kYFjWKKi_25" d="M706.9,290.3h9.6v53h-9.6V290.3z"></path>
		<path class="st2 kYFjWKKi_26" d="M763.6,326.9h-30.8c0.4,2.7,1.6,4.9,3.6,6.5s4.4,2.4,7.4,2.4c3.6,0,6.7-1.3,9.2-3.8l8.1,3.8
			c-2,2.9-4.4,5-7.2,6.3s-6.2,2.1-10,2.1c-6,0-10.9-1.9-14.7-5.7s-5.7-8.5-5.7-14.2c0-5.8,1.9-10.7,5.6-14.5
			c3.8-3.9,8.5-5.8,14.2-5.8c6,0,10.9,1.9,14.7,5.8c3.8,3.9,5.7,8.9,5.7,15.3L763.6,326.9z M754,319.4c-0.6-2.1-1.9-3.9-3.8-5.2
			c-1.9-1.3-4-2-6.5-2c-2.7,0-5,0.8-7,2.3c-1.3,0.9-2.4,2.6-3.5,5H754z"></path>
	</g>
</g>
<g id="SQL">
	<g>
		<path class="st4 kYFjWKKi_27" d="M627,609.3l-7.3,6.4c-2.6-3.6-5.2-5.3-7.8-5.3c-1.3,0-2.3,0.3-3.2,1c-0.8,0.7-1.2,1.5-1.2,2.3
			s0.3,1.7,0.9,2.5c0.8,1,3.2,3.2,7.2,6.6c3.8,3.1,6,5.1,6.8,5.9c2,2,3.4,3.9,4.2,5.8c0.8,1.8,1.3,3.8,1.3,6c0,4.2-1.5,7.7-4.4,10.5
			s-6.8,4.1-11.5,4.1c-3.7,0-6.9-0.9-9.6-2.7s-5.1-4.6-7-8.5l8.3-5c2.5,4.6,5.4,6.9,8.6,6.9c1.7,0,3.1-0.5,4.3-1.5s1.7-2.1,1.7-3.4
			c0-1.2-0.4-2.3-1.3-3.5c-0.9-1.2-2.8-3-5.7-5.4c-5.6-4.6-9.3-8.1-10.9-10.6s-2.5-5-2.5-7.5c0-3.6,1.4-6.7,4.1-9.2
			c2.7-2.6,6.1-3.8,10.1-3.8c2.6,0,5,0.6,7.4,1.8C621.8,604,624.3,606.2,627,609.3z"></path>
		<path class="st4 kYFjWKKi_28" d="M681.7,646.4l9,11.6h-11.7l-4.6-5.9c-3.8,2.1-8,3.1-12.6,3.1c-7.8,0-14.2-2.7-19.4-8s-7.7-11.7-7.7-19.1
			c0-4.9,1.2-9.5,3.6-13.6c2.4-4.1,5.7-7.4,9.9-9.9c4.2-2.4,8.7-3.7,13.5-3.7c7.3,0,13.6,2.6,18.9,7.9c5.3,5.3,7.9,11.8,7.9,19.4
			C688.5,635.3,686.3,641.4,681.7,646.4z M675.6,638.5c2.1-3.1,3.1-6.5,3.1-10.3c0-4.9-1.7-9.1-5-12.5c-3.3-3.4-7.3-5.1-12-5.1
			c-4.8,0-8.9,1.7-12.1,5c-3.3,3.3-4.9,7.6-4.9,12.7c0,5.7,2.1,10.2,6.2,13.6c3.2,2.6,6.9,3.9,11,3.9c2.3,0,4.6-0.5,6.6-1.4
			l-9.3-11.9h11.7L675.6,638.5z"></path>
		<path class="st4 kYFjWKKi_29" d="M697.8,602.3h9.8v42.3H722v9.4h-24.2V602.3z"></path>
	</g>
</g>
<g id="Слой_4_xA0_Image_1_">
	<path class="st5 kYFjWKKi_30" d="M356.4,448.8L267,359.5L356.4,270.1"></path>
	<path class="st6 kYFjWKKi_31" d="M291,359.5L380.4,270.1"></path>
	<path class="st6 kYFjWKKi_32" d="M380.4,448.8L291,359.5"></path>
	<path class="st7 kYFjWKKi_33" d="M315,359.5L404.4,270.1"></path>
	<path class="st7 kYFjWKKi_34" d="M404.4,448.8L315,359.5"></path>
	<path class="st5 kYFjWKKi_35" d="M419.2,270.1L508.6,359.5L419.2,448.8"></path>
	<path class="st6 kYFjWKKi_36" d="M484.6,359.5L395.2,448.8"></path>
	<path class="st6 kYFjWKKi_37" d="M395.2,270.1L484.6,359.5"></path>
	<path class="st7 kYFjWKKi_38" d="M460.6,359.5L371.2,448.8"></path>
	<path class="st7 kYFjWKKi_39" d="M371.2,270.1L460.6,359.5"></path>
</g>
<style data-made-with="vivus-instant">.kYFjWKKi_0{stroke-dasharray:452 454;stroke-dashoffset:453;animation:kYFjWKKi_draw 2000ms linear 0ms forwards;}.kYFjWKKi_1{stroke-dasharray:488 490;stroke-dashoffset:489;animation:kYFjWKKi_draw 2000ms linear 25ms forwards;}.kYFjWKKi_2{stroke-dasharray:488 490;stroke-dashoffset:489;animation:kYFjWKKi_draw 2000ms linear 51ms forwards;}.kYFjWKKi_3{stroke-dasharray:487 489;stroke-dashoffset:488;animation:kYFjWKKi_draw 2000ms linear 76ms forwards;}.kYFjWKKi_4{stroke-dasharray:802 804;stroke-dashoffset:803;animation:kYFjWKKi_draw 2000ms linear 102ms forwards;}.kYFjWKKi_5{stroke-dasharray:452 454;stroke-dashoffset:453;animation:kYFjWKKi_draw 2000ms linear 128ms forwards;}.kYFjWKKi_6{stroke-dasharray:488 490;stroke-dashoffset:489;animation:kYFjWKKi_draw 2000ms linear 153ms forwards;}.kYFjWKKi_7{stroke-dasharray:488 490;stroke-dashoffset:489;animation:kYFjWKKi_draw 2000ms linear 179ms forwards;}.kYFjWKKi_8{stroke-dasharray:487 489;stroke-dashoffset:488;animation:kYFjWKKi_draw 2000ms linear 205ms forwards;}.kYFjWKKi_9{stroke-dasharray:451 453;stroke-dashoffset:452;animation:kYFjWKKi_draw 2000ms linear 230ms forwards;}.kYFjWKKi_10{stroke-dasharray:488 490;stroke-dashoffset:489;animation:kYFjWKKi_draw 2000ms linear 256ms forwards;}.kYFjWKKi_11{stroke-dasharray:488 490;stroke-dashoffset:489;animation:kYFjWKKi_draw 2000ms linear 282ms forwards;}.kYFjWKKi_12{stroke-dasharray:487 489;stroke-dashoffset:488;animation:kYFjWKKi_draw 2000ms linear 307ms forwards;}.kYFjWKKi_13{stroke-dasharray:17 19;stroke-dashoffset:18;animation:kYFjWKKi_draw 2000ms linear 333ms forwards;}.kYFjWKKi_14{stroke-dasharray:17 19;stroke-dashoffset:18;animation:kYFjWKKi_draw 2000ms linear 358ms forwards;}.kYFjWKKi_15{stroke-dasharray:8 10;stroke-dashoffset:9;animation:kYFjWKKi_draw 2000ms linear 384ms forwards;}.kYFjWKKi_16{stroke-dasharray:364 366;stroke-dashoffset:365;animation:kYFjWKKi_draw 2000ms linear 410ms forwards;}.kYFjWKKi_17{stroke-dasharray:197 199;stroke-dashoffset:198;animation:kYFjWKKi_draw 2000ms linear 435ms forwards;}.kYFjWKKi_18{stroke-dasharray:210 212;stroke-dashoffset:211;animation:kYFjWKKi_draw 2000ms linear 461ms forwards;}.kYFjWKKi_19{stroke-dasharray:329 331;stroke-dashoffset:330;animation:kYFjWKKi_draw 2000ms linear 487ms forwards;}.kYFjWKKi_20{stroke-dasharray:152 154;stroke-dashoffset:153;animation:kYFjWKKi_draw 2000ms linear 512ms forwards;}.kYFjWKKi_21{stroke-dasharray:280 282;stroke-dashoffset:281;animation:kYFjWKKi_draw 2000ms linear 538ms forwards;}.kYFjWKKi_22{stroke-dasharray:121 123;stroke-dashoffset:122;animation:kYFjWKKi_draw 2000ms linear 564ms forwards;}.kYFjWKKi_23{stroke-dasharray:222 224;stroke-dashoffset:223;animation:kYFjWKKi_draw 2000ms linear 589ms forwards;}.kYFjWKKi_24{stroke-dasharray:184 186;stroke-dashoffset:185;animation:kYFjWKKi_draw 2000ms linear 615ms forwards;}.kYFjWKKi_25{stroke-dasharray:126 128;stroke-dashoffset:127;animation:kYFjWKKi_draw 2000ms linear 641ms forwards;}.kYFjWKKi_26{stroke-dasharray:233 235;stroke-dashoffset:234;animation:kYFjWKKi_draw 2000ms linear 666ms forwards;}.kYFjWKKi_27{stroke-dasharray:210 212;stroke-dashoffset:211;animation:kYFjWKKi_draw 2000ms linear 692ms forwards;}.kYFjWKKi_28{stroke-dasharray:330 332;stroke-dashoffset:331;animation:kYFjWKKi_draw 2000ms linear 717ms forwards;}.kYFjWKKi_29{stroke-dasharray:152 154;stroke-dashoffset:153;animation:kYFjWKKi_draw 2000ms linear 743ms forwards;}.kYFjWKKi_30{stroke-dasharray:253 255;stroke-dashoffset:254;animation:kYFjWKKi_draw 2000ms linear 769ms forwards;}.kYFjWKKi_31{stroke-dasharray:127 129;stroke-dashoffset:128;animation:kYFjWKKi_draw 2000ms linear 794ms forwards;}.kYFjWKKi_32{stroke-dasharray:127 129;stroke-dashoffset:128;animation:kYFjWKKi_draw 2000ms linear 820ms forwards;}.kYFjWKKi_33{stroke-dasharray:127 129;stroke-dashoffset:128;animation:kYFjWKKi_draw 2000ms linear 846ms forwards;}.kYFjWKKi_34{stroke-dasharray:127 129;stroke-dashoffset:128;animation:kYFjWKKi_draw 2000ms linear 871ms forwards;}.kYFjWKKi_35{stroke-dasharray:253 255;stroke-dashoffset:254;animation:kYFjWKKi_draw 2000ms linear 897ms forwards;}.kYFjWKKi_36{stroke-dasharray:127 129;stroke-dashoffset:128;animation:kYFjWKKi_draw 2000ms linear 923ms forwards;}.kYFjWKKi_37{stroke-dasharray:127 129;stroke-dashoffset:128;animation:kYFjWKKi_draw 2000ms linear 948ms forwards;}.kYFjWKKi_38{stroke-dasharray:127 129;stroke-dashoffset:128;animation:kYFjWKKi_draw 2000ms linear 974ms forwards;}.kYFjWKKi_39{stroke-dasharray:127 129;stroke-dashoffset:128;animation:kYFjWKKi_draw 2000ms linear 1000ms forwards;}@keyframes kYFjWKKi_draw{100%{stroke-dashoffset:0;}}@keyframes kYFjWKKi_fade{0%{stroke-opacity:1;}96.56453110492107%{stroke-opacity:1;}100%{stroke-opacity:0;}}</style></svg>
