<?xml version="1.0" encoding="utf-8"?>
<!-- Generator: Adobe Illustrator 22.1.0, SVG Export Plug-In . SVG Version: 6.00 Build 0)  -->
<svg version="1.1" id="Layer_1" xmlns="http://www.w3.org/2000/svg" xmlns:xlink="http://www.w3.org/1999/xlink" x="0px" y="0px"
	 viewBox="0 0 640 480" style="enable-background:new 0 0 640 480;" xml:space="preserve">
<style type="text/css">
	.st0{fill:#BBBBBB;}
	.st1{fill:#D5B932;}
	.st2{fill:#1572B5;}
	.st3{fill:#E34F26;}
	.st4{fill:#FED93E;}
	.st5{fill:#EAEAEA;}
	.st6{fill:#33A8DB;}
	.st7{fill:#F0662A;}
	.st8{fill:#FEFEFE;}
	.st9{fill:none;}
</style>
<g>
	<path class="st0" d="M480.9,303c-13.5,0-25.2-0.1-36.8,0c-9.8,0.1-19.6,0-29.3,0.9c-12.6,1.2-25.3,1.5-37.6,4.3
		c-4.6,1.1-9.3,2.1-13.7,3.9c-3.9,1.6-8.1,3.1-11.1,6.6c-2,2.4-3.5,4.9-3.4,8c0,1.3-0.5,1.6-1.7,1.6c-14.5,0-29,0-43.5,0
		c-1.3,0-1.6-0.4-1.7-1.6c-0.2-5.1-3.1-8.5-7.1-11c-5.4-3.3-11.5-5.1-17.7-6.7c-8.3-2.2-16.8-2.9-25.3-3.8
		c-4.3-0.4-8.6-0.3-12.8-0.9c-8.1-1.1-16.1-0.8-24.2-1.2c-15.4-0.7-30.8-0.2-46.2-0.3c-11.2-0.1-22.3,0.1-33.5-0.1
		c-8.1-0.1-16.1-0.4-24.2-0.8c-7.8-0.5-15.6-0.8-23.2-2.1c-7.3-1.2-14.8-1.8-22-3.9c-4.3-1.3-8.7-2.1-12.9-3.8
		c-5.2-2.1-10.3-4.3-14.5-8.1c-3.2-2.9-5.4-6.5-5.3-11.1c0-2.5,0.1-4.9,0-7.4c0-1.2,0.3-1.7,1.6-1.7c12.7,0,25.5,0,38.2,0
		c1.4,0,1.7,0.5,1.7,1.8c-0.1,2.1-0.2,4.3,0.1,6.4c0.5,3.5,2.5,6.1,5.5,7.9c4.7,2.8,9.8,4.5,15.1,5.2c6.7,1,13.3,2.4,20.1,2.8
		c2.9,0.2,5.7,0.3,8.6,0.5c15.7,0.6,31.3,0.4,47,0.5c13.5,0,27,0,40.4,0c7.2,0,14.4,0.2,21.5,0.4c6.2,0.2,12.5,0.3,18.6,1.3
		c9.9,1.6,20,2.1,29.8,4.4c5.1,1.2,10.2,2.2,15.1,3.9c4.3,1.5,8.8,2.5,12.8,4.7c3.6,1.9,7.7,3.1,11,5.6c2.3,1.7,8.7,1.4,10.9-0.4
		c0.9-0.8,1.9-1.3,2.9-1.8c5.5-2.6,11.1-5,17-7c5.2-1.8,10.6-2.8,15.9-4.3c9.6-2.6,19.6-3.1,29.3-4.6c10.9-1.6,21.8-1.7,32.8-2
		c15.3-0.6,30.6-0.2,46-0.3c13.5-0.1,27.1,0.1,40.6-0.1c9.4-0.2,18.9-0.3,28.2-1.7c6.7-1,13.6-1.4,19.9-4c3.6-1.5,7.5-2.7,10.1-6.1
		c1.7-2.3,2.3-4.7,2.4-7.4c0.1-1.8-0.8-4.1,0.4-5.3c1.1-1.1,3.4-0.3,5.2-0.3c11.2,0,22.4,0,33.7,0c1.6,0,2.3,0.4,2.2,2.1
		c-0.3,3.8,0.5,7.7-0.8,11.4c-0.9,2.4-2.3,4.5-4.2,6.2c-3.3,2.9-7.1,5-11.1,6.8c-4.1,1.9-8.5,2.9-12.7,4.3
		c-7.7,2.6-15.7,3.1-23.5,4.6c-7.7,1.5-15.5,1.8-23.3,2.4c-6.7,0.5-13.5,0.6-20.3,0.9C507.7,303.3,493.3,302.7,480.9,303z"/>
	<path class="st1" d="M520.6,128.8c15.2,0,30.4,0,45.6,0c1.8,0,2.1,0.6,2,2.2c-1,11.6-1.9,23.1-2.9,34.7
		c-1.2,14.2-2.4,28.5-3.5,42.7c-0.7,8.8-1.4,17.6-2.1,26.4c-0.1,1.3-0.5,1.8-1.7,2.1c-6.4,1.6-12.6,3.8-18.9,5.8
		c-4.7,1.5-9.5,2.8-14.2,4.3c-0.6,0.2-1.1,0.4-1.7,0.7c-1.4,0.8-3.1,1.2-4.7,0.4c-3.8-1.8-8.1-2.4-12-3.8
		c-5.2-1.8-10.5-3.2-15.7-4.9c-2.6-0.9-5.3-1.8-7.9-2.5c-1.2-0.3-1.6-1-1.7-2.2c-1-12.9-2-25.7-3-38.6c-1.2-14.3-2.4-28.6-3.5-42.9
		c-0.6-7.4-1.1-14.7-1.8-22.1c-0.2-1.8,0.3-2.3,2.2-2.3C490.3,128.8,505.5,128.8,520.6,128.8z"/>
	<path class="st2" d="M387.2,129.3c15.1,0,30.2,0,45.4,0c1.6,0,2,0.4,1.9,2c-1.3,15.1-2.5,30.1-3.7,45.2
		c-1.3,16.1-2.6,32.2-3.8,48.3c-0.3,3.5-0.6,6.9-0.8,10.4c-0.1,1-0.5,1.5-1.4,1.7c-6.1,1.5-11.9,3.6-17.9,5.5
		c-5.4,1.6-10.9,2.9-16.2,4.9c-2.7,1-4.8,1-7.4-0.1c-3.6-1.4-7.5-2-11.2-3.3c-4.9-1.7-9.9-2.8-14.8-4.5c-2.6-0.9-5.3-1.7-7.9-2.5
		c-0.8-0.2-1.2-0.6-1.3-1.5c-0.9-12.2-1.9-24.4-2.9-36.6c-1.3-16.2-2.7-32.3-4-48.4c-0.5-6.5-1-13.1-1.6-19.6
		c-0.1-1.5,0.7-1.3,1.6-1.3c8.6,0,17.2,0,25.9,0C373.8,129.3,380.5,129.3,387.2,129.3z"/>
	<path class="st3" d="M268.5,129.3c15,0,30.1,0,45.1,0c1.7,0,2.2,0.4,2,2.1c-1.4,16.8-2.8,33.5-4.1,50.3
		c-1.2,14.3-2.4,28.6-3.5,42.9c-0.3,3.4-0.6,6.8-0.8,10.2c-0.1,1.3-0.6,1.8-1.8,2.2c-6.2,1.7-12.4,3.7-18.5,5.6
		c-4.9,1.6-9.9,2.8-14.8,4.4c-1.7,0.6-3.3,2-5.3,1c-4.7-2.1-9.8-2.7-14.6-4.5c-4.4-1.7-9-2.5-13.4-4.1c-2.7-1-5.5-1.9-8.3-2.6
		c-1.1-0.3-1.1-1-1.2-1.9c-0.5-5.9-0.9-11.9-1.4-17.8c-0.8-9.4-1.5-18.8-2.3-28.2c-0.7-9.1-1.5-18.3-2.2-27.4
		c-0.8-9.6-1.6-19.2-2.3-28.8c0-0.4,0-0.8-0.1-1.2c-0.3-1.7,0.1-2.3,2.1-2.3C238.2,129.4,253.3,129.3,268.5,129.3z"/>
	<path class="st4" d="M520.6,188.7c0-16.1,0-32.3,0-48.4c0-1.8,0.5-2.3,2.3-2.3c11.6,0.1,23.1,0,34.7,0c2.2,0,2.2,0.2,1.9,2.4
		c-0.3,2.2-0.5,4.5-0.7,6.7c-0.5,6.5-0.9,13-1.6,19.5c-0.4,4.1-0.6,8.3-0.9,12.4c-0.5,6.1-1.1,12.2-1.6,18.3c-0.3,4-0.6,8-0.9,12
		c-0.5,6.1-1.3,12.2-1.5,18.3c-0.1,3-1.6,3.5-3.8,4c-7.9,1.9-15.5,5-23.5,6.8c-0.9,0.2-1.5,0.9-2.4,1.1c-1.6,0.5-2.4,0.3-2.2-1.5
		c0-0.4,0-0.8,0-1.2C520.6,220.7,520.6,204.7,520.6,188.7z"/>
	<path class="st5" d="M489,201.7c5.5,1,10.4,3.5,15.6,4.7c3.3,0.8,2.8,1.1,2.9-2.1c0-16.6,0-33.2,0-49.9c0-1.7,0.4-2.3,2.2-2.2
		c1.8,0.2,3.7,0.1,5.5,0c1.2,0,1.6,0.4,1.5,1.6c0,0.3,0,0.5,0,0.8c0,21.9,0,43.8,0,65.7c0,1.8-0.4,2.3-2.1,1.6
		c-4.2-1.9-8.9-2.5-13.2-4.1c-3.6-1.4-7.3-2.2-10.9-3.4c-0.8-0.3-1.5-0.5-1.5-1.6C489,209.1,489,205.5,489,201.7z"/>
	<path class="st6" d="M387.2,150.2c0-3.5,0.1-7,0-10.5c0-1.3,0.3-1.8,1.7-1.8c11.8,0,23.5,0,35.3,0c1.2,0,1.8,0.3,1.7,1.6
		c-0.4,4.7-0.8,9.5-1.1,14.2c-0.3,3.9-0.6,7.7-0.9,11.6c-0.5,6.4-1.1,12.7-1.6,19.1c-0.3,3.7-0.6,7.3-0.9,11
		c-0.5,6.5-0.9,13-1.6,19.5c-0.4,3.6-0.7,7.3-0.9,11c-0.2,3.7-0.1,3.7-3.7,4.8c-3.3,1-6.6,1.6-9.8,2.9c-5.8,2.2-12,3.4-18.1,5.5
		c0-4.9,0-9.7,0-14.5c0.1-0.1,0.1-0.2,0.2-0.3c0.4-0.5,1-0.7,1.6-0.8c6.5-1.5,12.6-4.1,19-5.7c2.9-0.7,3-1.1,3.2-4.1
		c0.6-7.6,1.2-15.3,1.9-22.9c0.5-5.9,1-11.8,1.4-17.8c0.4-5.9,1-11.8,1.5-17.8c0.1-1.3,0.5-2.7-0.3-4c-0.8-0.7-1.7-0.4-2.6-0.4
		c-7.7,0-15.4,0-23.1,0C389.1,150.8,388,151.1,387.2,150.2z"/>
	<path class="st5" d="M387.2,224.7c-2.8-0.8-5.7-1.4-8.5-2.4c-4.8-1.7-9.7-3.1-14.6-4.4c-1-0.2-1.3-0.8-1.4-1.7
		c-0.5-6.1-0.9-12.1-1.4-18.2c-0.1-1,0.3-1.3,1.3-1.3c3.1,0,6.2,0,9.2,0c1.1,0,1.4,0.4,1.5,1.4c0.1,2.5,0.3,4.9,0.5,7.4
		c0.1,0.7,0,1.5,1,1.8c4.2,1.1,8.1,3,12.5,3.6c0.1,0.1,0.2,0.2,0.3,0.3c0.7,4.1,0.4,8.3,0.2,12.4c0,0.3-0.2,0.6-0.5,0.9L387.2,224.7
		z"/>
	<path class="st5" d="M387.2,150.2c9.2,0,18.3,0,27.5,0.1c0.7,0,1.5-0.3,2.1,0.4c-0.9,0.8-2,0.7-3.1,0.7c-7.6,0-15.3,0-22.9,0
		c-2.8,0-2.9,0.1-2.9,2.9c0,2.2,0,4.5,0,6.7c0,0.9,0.1,1.8-0.6,2.5c-4.5,0.3-9,0.1-13.5,0.1c-4.4,0-8.9,0-13.3,0
		c-0.7,0-1.4,0.2-2-0.2c-0.3-3.7-0.6-7.4-1-11c-0.2-1.6,0.3-2.1,1.9-2.1c8.4,0.1,16.8,0,25.2,0C385.5,150.3,386.3,150.3,387.2,150.2
		z"/>
	<path class="st6" d="M387.2,210.9c0-6.9,0-13.9,0-20.8c0.7-0.8,1.6-0.6,2.5-0.6c3.1,0,6.3,0,9.4,0c2.7,0,2.9,0.3,3.1,3.1
		c-0.1,4.3-0.7,8.5-0.9,12.8c-0.1,1.2-0.6,2.2-2,2.6c-3.3,0.9-6.4,2.3-9.7,3.1c-0.8,0.2-1.6,0.5-2.4,0.1L387.2,210.9z"/>
	<path class="st6" d="M358.5,163.4c9.6,0,19.1,0,28.7,0c0.7-0.6,1.6-0.6,2.5-0.6c3.9,0,7.8,0,11.7,0c2.8,0,3.2,0.5,3,3.2
		c-0.2,2.7-0.5,5.4-0.6,8.2c-0.1,2.7-0.8,3.4-3.5,3.4c-4.4,0-8.7,0.1-13.1,0c-3.9,0.1-7.8,0-11.7,0c-0.8,0-1.6,0-2.3-0.7
		c0.6-0.6,1.3-0.3,1.9-0.3c3.4,0,6.8-0.1,10.2,0c1.3,0,1.8-0.4,1.8-1.7c-0.1-2.9-0.1-5.9,0-8.8c0.1-1.8-0.4-2.3-2.3-2.3
		c-8.1,0.1-16.2,0.1-24.4,0C359.9,163.8,359.1,164.1,358.5,163.4z"/>
	<path class="st5" d="M373.2,176.9c4.7,0,9.3,0.1,14,0.1c0.7,0.8,0.6,1.8,0.6,2.7c0,2.4,0.1,4.8,0,7.2c0,1.6,0.7,2.2,2.2,2.2
		c3.4,0,6.8-0.1,10.2,0c0.9,0,1.9,0.2,2.1,1.3c0.2,1,0.5,2-0.7,2.6c0-0.5-0.1-1,0-1.4c0.2-1.2-0.4-1.5-1.5-1.5
		c-4.3,0.1-8.7,0.1-13,0.1c-3.8,0-7.6-0.1-11.5-0.1c-1.2,0-1.7-0.2-1.8-1.5C373.7,184.7,373,180.8,373.2,176.9z"/>
	<path class="st7" d="M268.1,151.1c0-3.7,0-7.4,0-11.1c0-1.5,0.5-2.1,2-2.1c11.8,0,23.5,0,35.3,0c1.6,0,1.8,0.7,1.7,2
		c-0.7,6.6-1.2,13.3-1.7,19.9c-0.6,8.4-1.3,16.8-2,25.2c-0.5,6.6-1.1,13.3-1.6,19.9c-0.7,7.6-1.4,15.3-2,22.9
		c-0.2,2.8-2.7,2.6-4.3,3.2c-3.1,1.1-6.5,1.6-9.6,2.8c-5.5,2.1-11.2,3.1-16.7,5.1c-1.3,0.5-1-0.7-1-1.3c0-4,0-8.1,0-12.1
		c0.3-0.6,0.9-0.7,1.5-1c6.8-1.7,13.4-4.2,20.2-6c1.6-0.4,2.3-1.2,2.4-3c0.8-10.1,1.7-20.3,2.4-30.4c0.1-1.4,0.4-2.7,0.4-4.1
		c0-2.1,0-2.2-2.1-2.2c-7.4,0-14.9,0-22.3,0c-0.8,0-1.5,0-2.3,0c-4.5,0.1-9,0.1-13.5,0c-1,0-2.3,0.3-2.4-1.4
		c0.7-0.8,1.7-0.7,2.7-0.7c3.3,0,6.7,0,10,0c2.1,0,2.3-0.2,2.3-2.4c0-2.2,0-4.4,0-6.6c0-2.3-0.2-2.5-2.4-2.5c-3.5,0-7.1,0-10.6,0
		c-0.9,0-1.9,0.1-2.7-0.6c0.3-1.3,1.5-1,2.3-1c4.8,0,9.6-0.1,14.4,0c8.3-0.1,16.6,0,24.8,0c3.1,0,3.2-0.2,3.4-3.2
		c0.1-2.3,0.4-4.5,0.6-6.7c0.4-2-0.9-1.9-2.2-1.9c-8,0-16,0-24,0C270,151.7,268.9,151.9,268.1,151.1z"/>
	<path class="st5" d="M268.1,151.1c9.2,0,18.4,0,27.7,0.1c2.5,0,2.5,0,1.9,2.5c-0.9-1.2-2.1-1.5-3.6-1.5c-7.4,0-14.8,0-22.2,0
		c-2.7,0-2.8,0.1-2.8,2.7c0,2.3,0,4.5,0,6.8c0,0.9,0,1.8-0.6,2.5c-4.9,0-9.8,0-14.8,0.1c-0.7,0-1.5-0.4-2.1,0.4c1.1,2.4,0.8,5,1,7.6
		c0.1,1.7,1,3.5-0.1,5.2c0,1.4,1.1,0.8,1.6,0.8c4.8,0.1,9.5,0.1,14.3,0.1c0.7,0.7,0.6,1.6,0.6,2.5c0,2.3,0.1,4.6,0,7
		c0,1.6,0.6,2.2,2.2,2.2c3.2,0,6.4-0.1,9.6,0c0.9,0,2.3-0.2,1.9,1.5c-0.4,0.4-1,0.5-1.5,0.5c-3.9,0.1-7.7,0.1-11.6,0
		c-0.6,0-1.2-0.2-1.7-0.6c-8.1,0-16.3-0.1-24.4,0c-1.8,0-2.2-0.7-2.3-2.2c-0.9-11.8-1.9-23.7-2.9-35.5c-0.2-1.9,0.2-2.6,2.3-2.5
		C249.9,151.2,259,151.1,268.1,151.1z"/>
	<path class="st5" d="M269.4,225c-0.3,0.4-0.9,0.3-1.3,0.4c-3.9-1.1-7.9-2-11.8-3.4c-3.8-1.3-7.6-2.5-11.4-3.5
		c-0.8-0.2-1-0.7-1.1-1.4c-0.5-6-1-12-1.5-18c-0.1-1.2,0.2-1.7,1.5-1.7c2.9,0.1,5.9,0.1,8.8,0c1.3,0,1.6,0.4,1.7,1.6
		c0.1,2.2,0.6,4.4,0.5,6.5c-0.1,2,1.1,2.8,2.6,3.2c3.3,1,6.6,1.7,9.9,2.6c0.5,0.4,1.3-0.1,1.6,0.6c0.6,2.1,0.2,4.2,0.3,6.2
		C269.2,220.6,269,222.8,269.4,225z"/>
	<path class="st7" d="M268.5,211.9c-0.5-0.1-0.9,0-1.3-0.4c1.2-0.2,0.9-1.2,0.9-2c0-6.1,0-12.1,0-18.2c4.9,0,9.8,0,14.8,0
		c1.1,2,0.2,4,0.1,6c-0.1,2.9-0.5,5.8-0.7,8.8c-0.1,1-0.2,2-1.2,2.4C277.1,210.4,272.9,211.6,268.5,211.9z"/>
	<path class="st8" d="M524.3,174.8c0-6.9,0-13.8,0-20.7c0-1.4,0.4-1.9,1.8-1.9c9,0.1,17.9,0.1,26.9,0c1.4,0,1.8,0.4,1.6,1.8
		c-0.3,3-0.6,6-0.8,9c-0.1,1.4-1,1.2-1.8,1.2c-5.5,0-10.9,0.1-16.4,0c-1.7,0-2.1,0.5-2,2.1c0.1,5,0.1,10,0,15c0,1.7,0.6,2.1,2.1,1.9
		c5-0.9,10-1.8,15.1-2.4c1.4-0.2,1.8,0.1,1.7,1.6c-0.8,10.3-1.6,20.6-2.3,30.9c-0.1,1.3-0.5,1.9-1.8,2.2c-6.4,1.6-12.6,3.9-19,5.4
		c-1.3,0.3-2.5,0.9-3.8,1.4c-0.8,0.3-1.4,0.2-1.4-1c0.1-3.3,0-6.6,0-9.9c0-0.9,0.3-1.3,1.2-1.6c5.1-1.7,10.2-3.2,15.5-4.5
		c1.3-0.3,2-0.8,1.9-2.3c-0.1-2.3,0.1-4.7,0.3-7c0.2-2-0.6-2.1-2.2-1.8c-4.8,1-9.5,2.3-14.3,3.1c-2.4,0.4-2.4,0.5-2.4-1.9
		C524.3,188.5,524.3,181.7,524.3,174.8z"/>
	<path class="st8" d="M401.6,193c0.9-2.9,0.6-3.3-2.2-3.3c-3.5,0-7.1,0-10.6,0c-1.2,0-1.7-0.4-1.6-1.6c0.1-3.7,0-7.4,0-11
		c4.7,0,9.3-0.1,13.9-0.1c1.3,0,1.8-0.4,1.9-1.7c0.3-3.5,0.5-7.1,0.9-10.6c0.1-1.4-0.7-1.2-1.5-1.2c-5.1,0-10.1-0.1-15.2-0.1
		c0-3.6,0.1-7.1-0.1-10.7c-0.1-1.7,0.6-2,2.1-2c9.2,0.1,18.3,0,27.5,0c-0.1,6.6-0.9,13.2-1.4,19.8c-0.5,7.7-1.3,15.4-1.9,23.1
		c-0.6,7.3-1.2,14.7-1.7,22c-0.1,1-0.1,1.9-1.5,2.3c-7.4,2.1-14.7,4.3-22.1,6.5c-0.3,0.1-0.7,0.1-1,0.1c0-4.5,0-8.9,0-13.4
		c3.9-1.1,7.7-2.4,11.6-3.5c1.5-0.5,1.8-1.3,1.9-2.6C401,201,401.3,197,401.6,193z"/>
	<path class="st8" d="M268.5,211.9c3-0.9,6-1.7,9.1-2.5c3.8-1,3.9-1.1,4.2-4.9c0.4-4.4,0.7-8.7,1.1-13.1c-0.1-1.2-1-0.9-1.7-0.9
		c-3.6,0-7.2-0.1-10.8,0c-1.5,0-1.9-0.5-1.8-1.9c0.1-3.5,0-6.9,0-10.4c8.7,0,17.3-0.1,26-0.1c0.9,0,1.3,0.1,1.2,1.2
		c-0.8,9.9-1.6,19.9-2.4,29.8c-0.2,2.6-0.4,5.2-0.6,7.8c-0.1,0.8-0.1,1.4-1.1,1.7c-7.5,1.9-14.7,4.9-22.3,6.5
		c-1.1-0.2-0.9-1-0.9-1.7C268.5,219.5,268.5,215.7,268.5,211.9z"/>
	<path class="st8" d="M268.5,164.2c0-3.7,0-7.4,0-11c0-1.3,0.4-1.7,1.7-1.6c8.6,0,17.2,0.1,25.8,0c1.8,0,1.8,1,1.8,2.2
		c-0.2,3.1-0.4,6.1-0.6,9.2c-0.1,0.9-0.2,1.5-1.4,1.5C286.6,164.2,277.6,164.2,268.5,164.2z"/>
	<path class="st3" d="M252.6,177.4c-0.4-4.2-1-8.5-0.9-12.7c4.9,0,9.7,0,14.6,0c1.4,0,2,0.3,1.9,1.8c-0.1,3.1-0.1,6.2,0,9.2
		c0,1.4-0.5,1.7-1.8,1.7C261.7,177.3,257.2,177.4,252.6,177.4z"/>
	<g>
		<path d="M214.2,393.1c-0.1-0.3-0.2-0.6-0.3-0.9c-0.1-0.3-0.2-0.6-0.3-1.1c-0.1-0.4-0.1-1-0.1-1.7c0-0.7,0-1.5,0-2.5V379
			c0-2.4-0.4-4-1.2-5c-0.8-1-2.1-1.4-4-1.4h-2.7v20.5h-7.9v-50.4h12c4.1,0,7.1,1,9,2.9c1.8,1.9,2.8,4.8,2.8,8.7v4
			c0,5.2-1.7,8.6-5.2,10.2c2,0.8,3.4,2.1,4.1,4c0.7,1.8,1.1,4.1,1.1,6.7v7.8c0,1.2,0,2.3,0.1,3.3c0.1,0.9,0.3,1.9,0.7,2.8H214.2z
			 M205.6,349.9v15.5h3.1c1.5,0,2.7-0.4,3.5-1.2c0.8-0.8,1.3-2.2,1.3-4.2v-5c0-1.8-0.3-3.1-1-4c-0.6-0.8-1.7-1.2-3.1-1.2H205.6z"/>
		<path d="M252.2,393.1h-8l-1.4-9.1h-9.7l-1.4,9.1h-7.3l8.1-50.4h11.6L252.2,393.1z M234.2,377.1h7.6l-3.8-25.5L234.2,377.1z"/>
		<path d="M277.9,342.7v7.1l-15,36.1h15v7.2h-23.2V386l15-36.1h-14.3v-7.2H277.9z"/>
		<path d="M281.9,354.8c0-4.1,1-7.2,3.1-9.4c2.1-2.2,5-3.3,8.9-3.3s6.9,1.1,8.9,3.3c2.1,2.2,3.1,5.3,3.1,9.4V381
			c0,4.1-1,7.2-3.1,9.4c-2.1,2.2-5,3.3-8.9,3.3s-6.9-1.1-8.9-3.3c-2.1-2.2-3.1-5.3-3.1-9.4V354.8z M289.8,381.5
			c0,1.8,0.4,3.1,1.1,3.9c0.7,0.7,1.7,1.1,3,1.1c1.2,0,2.2-0.4,3-1.1c0.7-0.7,1.1-2,1.1-3.9v-27.2c0-1.8-0.4-3.1-1.1-3.9
			c-0.7-0.7-1.7-1.1-3-1.1c-1.2,0-2.2,0.4-3,1.1c-0.7,0.7-1.1,2-1.1,3.9V381.5z"/>
		<path d="M327.6,393.1c-0.1-0.3-0.2-0.6-0.3-0.9c-0.1-0.3-0.2-0.6-0.3-1.1c-0.1-0.4-0.1-1-0.1-1.7c0-0.7,0-1.5,0-2.5V379
			c0-2.4-0.4-4-1.2-5c-0.8-1-2.1-1.4-4-1.4H319v20.5h-7.9v-50.4h12c4.1,0,7.1,1,9,2.9c1.8,1.9,2.8,4.8,2.8,8.7v4
			c0,5.2-1.7,8.6-5.2,10.2c2,0.8,3.4,2.1,4.1,4c0.7,1.8,1.1,4.1,1.1,6.7v7.8c0,1.2,0,2.3,0.1,3.3c0.1,0.9,0.3,1.9,0.7,2.8H327.6z
			 M319,349.9v15.5h3.1c1.5,0,2.7-0.4,3.5-1.2c0.8-0.8,1.3-2.2,1.3-4.2v-5c0-1.8-0.3-3.1-1-4c-0.6-0.8-1.7-1.2-3.1-1.2H319z"/>
		<path d="M362.8,342.7c4,0,6.9,1.1,8.9,3.2c1.9,2.1,2.9,5.2,2.9,9.3v6.6c0,4.1-1,7.2-2.9,9.3c-1.9,2.1-4.9,3.2-8.9,3.2h-3.7v18.9
			h-7.9v-50.4H362.8z M359.1,349.9V367h3.7c1.2,0,2.2-0.3,2.9-1c0.7-0.7,1-1.9,1-3.7v-7.6c0-1.8-0.3-3.1-1-3.7c-0.7-0.7-1.6-1-2.9-1
			H359.1z"/>
		<path d="M403.4,393.1h-8L394,384h-9.7l-1.4,9.1h-7.3l8.1-50.4h11.6L403.4,393.1z M385.3,377.1h7.6l-3.8-25.5L385.3,377.1z"/>
		<path d="M418.9,365H430v16c0,4.1-1,7.2-3,9.4c-2,2.2-4.9,3.3-8.8,3.3s-6.8-1.1-8.8-3.3c-2-2.2-3-5.3-3-9.4v-26.2
			c0-4.1,1-7.2,3-9.4c2-2.2,4.9-3.3,8.8-3.3s6.8,1.1,8.8,3.3c2,2.2,3,5.3,3,9.4v4.9h-7.5v-5.4c0-1.8-0.4-3.1-1.1-3.9
			c-0.7-0.7-1.7-1.1-3-1.1c-1.2,0-2.2,0.4-3,1.1c-0.7,0.7-1.1,2-1.1,3.9v27.2c0,1.8,0.4,3.1,1.1,3.8c0.7,0.7,1.7,1.1,3,1.1
			c1.2,0,2.2-0.4,3-1.1c0.7-0.7,1.1-2,1.1-3.8v-9.3h-3.6V365z"/>
		<path d="M443,363.9h10.9v7.2H443v14.8h13.7v7.2h-21.6v-50.4h21.6v7.2H443V363.9z"/>
	</g>
</g>
<image style="overflow:visible;" width="1600" height="1600" xlink:href="../../../../../Users/Vas/Desktop/27_c-sharp-logo-filled.png"  transform="matrix(7.875000e-02 0 0 7.687500e-02 77 125)">
</image>
<g>
	<path d="M137.8,112.1v4.5c0,2.7-0.7,4.8-2,6.3c-1.3,1.5-3.3,2.2-5.9,2.2c-2.6,0-4.6-0.7-5.9-2.2c-1.3-1.5-2-3.5-2-6.3V99.1
		c0-2.7,0.7-4.8,2-6.3c1.3-1.5,3.3-2.2,5.9-2.2c2.6,0,4.6,0.7,5.9,2.2c1.3,1.5,2,3.5,2,6.3v3.3h-5v-3.6c0-1.2-0.2-2.1-0.7-2.6
		c-0.5-0.5-1.2-0.7-2-0.7c-0.8,0-1.5,0.2-2,0.7c-0.5,0.5-0.7,1.4-0.7,2.6v18.1c0,1.2,0.2,2.1,0.7,2.5c0.5,0.5,1.2,0.7,2,0.7
		c0.8,0,1.5-0.2,2-0.7c0.5-0.5,0.7-1.3,0.7-2.5v-4.8H137.8z"/>
	<path d="M149.6,115h-3.1l-1,9.6h-4.3l1-9.6h-2.4l0.4-3.7h2.4l0.9-8.8H141l0.4-3.7h2.4l0.8-7.7h4.3l-0.8,7.7h3.1l0.8-7.7h4.3
		l-0.8,7.7h2.4l-0.4,3.7h-2.4l-0.9,8.8h2.4l-0.4,3.7h-2.4l-1,9.6h-4.3L149.6,115z M146.8,111.2h3.1l0.9-8.8h-3.1L146.8,111.2z"/>
</g>
<rect x="9" y="75" class="st9" width="623" height="331"/>
<g>
	<path d="M235.8,124.7l-5.3,0l-0.1-33.6l5.3,0l0,14.4l6,0l0-14.4l5.4,0l0.1,33.6l-5.4,0l0-14.4l-6,0L235.8,124.7z"/>
	<path d="M249.4,91.1l16.3,0l0,4.8l-5.5,0l0.1,28.8l-5.3,0l-0.1-28.8l-5.5,0L249.4,91.1z"/>
	<path d="M279.2,114.8l3.6-23.9l7.3,0l0.1,33.6l-5,0l-0.1-24.1l-3.6,24.1l-5,0l-4-23.8l0,23.8l-4.6,0L268,91l7.3,0L279.2,114.8z"/>
	<path d="M294,91l5.3,0l0.1,28.8l8.7,0l0,4.8l-14,0L294,91z"/>
</g>
<g>
	<path d="M374.8,112.1v4.5c0,2.7-0.7,4.8-2,6.3c-1.3,1.5-3.3,2.2-5.9,2.2c-2.6,0-4.6-0.7-5.9-2.2c-1.3-1.5-2-3.5-2-6.3V99.1
		c0-2.7,0.7-4.8,2-6.3c1.3-1.5,3.3-2.2,5.9-2.2c2.6,0,4.6,0.7,5.9,2.2c1.3,1.5,2,3.5,2,6.3v3.3h-5v-3.6c0-1.2-0.2-2.1-0.7-2.6
		c-0.5-0.5-1.2-0.7-2-0.7s-1.5,0.2-2,0.7c-0.5,0.5-0.7,1.4-0.7,2.6v18.1c0,1.2,0.2,2.1,0.7,2.5s1.2,0.7,2,0.7s1.5-0.2,2-0.7
		s0.7-1.3,0.7-2.5v-4.8H374.8z"/>
	<path d="M377.3,99.1c0-2.7,0.6-4.8,1.9-6.3c1.3-1.5,3.2-2.2,5.8-2.2c2.6,0,4.5,0.7,5.8,2.2c1.3,1.5,1.9,3.5,1.9,6.3v1.1h-5v-1.4
		c0-1.2-0.2-2.1-0.7-2.6c-0.5-0.5-1.1-0.7-1.9-0.7s-1.5,0.2-1.9,0.7c-0.5,0.5-0.7,1.4-0.7,2.6c0,1.2,0.3,2.2,0.8,3
		c0.5,0.9,1.2,1.7,1.9,2.5c0.8,0.8,1.6,1.6,2.5,2.4c0.9,0.8,1.7,1.6,2.5,2.6c0.8,0.9,1.4,2,1.9,3.2c0.5,1.2,0.8,2.6,0.8,4.2
		c0,2.7-0.7,4.8-2,6.3c-1.3,1.5-3.3,2.2-5.9,2.2c-2.6,0-4.6-0.7-5.9-2.2c-1.3-1.5-2-3.5-2-6.3v-2.1h5v2.4c0,1.2,0.2,2.1,0.7,2.5
		s1.2,0.7,2,0.7s1.5-0.2,2-0.7s0.7-1.3,0.7-2.5c0-1.2-0.3-2.2-0.8-3c-0.5-0.9-1.2-1.7-1.9-2.5c-0.8-0.8-1.6-1.6-2.5-2.4
		c-0.9-0.8-1.7-1.6-2.5-2.6c-0.8-0.9-1.4-2-1.9-3.2C377.6,102.1,377.3,100.7,377.3,99.1z"/>
	<path d="M395.3,99.1c0-2.7,0.6-4.8,1.9-6.3c1.3-1.5,3.2-2.2,5.8-2.2c2.6,0,4.5,0.7,5.8,2.2c1.3,1.5,1.9,3.5,1.9,6.3v1.1h-5v-1.4
		c0-1.2-0.2-2.1-0.7-2.6c-0.5-0.5-1.1-0.7-1.9-0.7s-1.5,0.2-1.9,0.7c-0.5,0.5-0.7,1.4-0.7,2.6c0,1.2,0.3,2.2,0.8,3
		c0.5,0.9,1.2,1.7,1.9,2.5c0.8,0.8,1.6,1.6,2.5,2.4c0.9,0.8,1.7,1.6,2.5,2.6c0.8,0.9,1.4,2,1.9,3.2c0.5,1.2,0.8,2.6,0.8,4.2
		c0,2.7-0.7,4.8-2,6.3c-1.3,1.5-3.3,2.2-5.9,2.2s-4.6-0.7-5.9-2.2c-1.3-1.5-2-3.5-2-6.3v-2.1h5v2.4c0,1.2,0.2,2.1,0.7,2.5
		s1.2,0.7,2,0.7s1.5-0.2,2-0.7s0.7-1.3,0.7-2.5c0-1.2-0.3-2.2-0.8-3c-0.5-0.9-1.2-1.7-1.9-2.5c-0.8-0.8-1.6-1.6-2.5-2.4
		c-0.9-0.8-1.7-1.6-2.5-2.6c-0.8-0.9-1.4-2-1.9-3.2C395.5,102.1,395.3,100.7,395.3,99.1z"/>
</g>
<g>
	<path d="M508,119.8c0.3,0,0.6,0,0.9,0c0.3,0,0.6,0,0.9,0c0.8,0,1.5-0.2,2.1-0.6c0.6-0.4,0.9-1.3,0.9-2.6V91h5.3v25.2
		c0,1.7-0.2,3.1-0.6,4.2c-0.4,1.1-1,1.9-1.7,2.6c-0.7,0.6-1.5,1.1-2.4,1.3c-0.9,0.3-1.9,0.4-2.9,0.4c-0.5,0-0.9,0-1.3,0
		c-0.4,0-0.8,0-1.2-0.1V119.8z"/>
	<path d="M521.1,99.1c0-2.7,0.6-4.8,1.9-6.3c1.3-1.5,3.2-2.2,5.8-2.2s4.5,0.7,5.8,2.2c1.3,1.5,1.9,3.5,1.9,6.3v1.1h-5v-1.4
		c0-1.2-0.2-2.1-0.7-2.6c-0.5-0.5-1.1-0.7-1.9-0.7c-0.8,0-1.5,0.2-1.9,0.7c-0.5,0.5-0.7,1.4-0.7,2.6c0,1.2,0.3,2.2,0.8,3
		c0.5,0.9,1.2,1.7,1.9,2.5c0.8,0.8,1.6,1.6,2.5,2.4c0.9,0.8,1.7,1.6,2.5,2.6c0.8,0.9,1.4,2,1.9,3.2c0.5,1.2,0.8,2.6,0.8,4.2
		c0,2.7-0.7,4.8-2,6.3c-1.3,1.5-3.3,2.2-5.9,2.2s-4.6-0.7-5.9-2.2c-1.3-1.5-2-3.5-2-6.3v-2.1h5v2.4c0,1.2,0.2,2.1,0.7,2.5
		c0.5,0.5,1.2,0.7,2,0.7c0.8,0,1.5-0.2,2-0.7c0.5-0.5,0.7-1.3,0.7-2.5c0-1.2-0.3-2.2-0.8-3c-0.5-0.9-1.2-1.7-1.9-2.5
		c-0.8-0.8-1.6-1.6-2.5-2.4c-0.9-0.8-1.7-1.6-2.5-2.6c-0.8-0.9-1.4-2-1.9-3.2C521.3,102.1,521.1,100.7,521.1,99.1z"/>
</g>
</svg>
