<?xml version="1.0" encoding="utf-8"?>
<!-- Generator: Adobe Illustrator 22.0.0, SVG Export Plug-In . SVG Version: 6.00 Build 0)  -->
<svg version="1.1" id="Layer_1" xmlns="http://www.w3.org/2000/svg" xmlns:xlink="http://www.w3.org/1999/xlink" x="0px" y="0px"
	 viewBox="0 0 63.8 14" style="enable-background:new 0 0 63.8 14;" xml:space="preserve">
<style type="text/css">
	.st0{fill:none;}
	.st1{fill:#3498DB;stroke:#FFFFFF;stroke-width:0.25;stroke-miterlimit:10;}
	.st2{fill:none;stroke:#FFFFFF;stroke-width:0.25;stroke-miterlimit:10;}
	.st3{fill:#FFFFFF;}
</style>
<line class="st0" x1="7.9" y1="4" x2="4.9" y2="7"/>
<path class="st1" d="M12.9,13h-12V2.9C0.9,1.9,1.8,1,2.8,1h10.1V13z"/>
<line class="st2" x1="1.9" y1="2" x2="1.9" y2="12"/>
<line class="st2" x1="1.9" y1="12" x2="11.9" y2="12"/>
<line class="st2" x1="11.9" y1="2" x2="11.9" y2="12"/>
<line class="st2" x1="1.9" y1="2" x2="11.9" y2="2"/>
<line class="st2" x1="2.9" y1="3" x2="2.9" y2="11"/>
<line class="st2" x1="10.9" y1="3" x2="2.9" y2="3"/>
<line class="st2" x1="3.9" y1="4" x2="3.9" y2="11"/>
<line class="st2" x1="10.9" y1="4" x2="3.9" y2="4"/>
<line class="st2" x1="10.9" y1="5" x2="4.9" y2="5"/>
<line class="st2" x1="4.9" y1="5" x2="4.9" y2="11"/>
<g>
	<path class="st3" d="M21.8,8.3L22,10c-0.8,0.5-1.5,0.7-2.7,0.7c-2.3,0-3.8-1.5-3.8-4c0-2.5,1.5-4,3.8-4c1.1,0,2,0.1,2.7,0.7
		l-0.1,1.7h-0.1c-0.3-1.8-1.5-2.2-2.4-2.2c-1.1,0-2.4,0.5-2.4,3.8c0,3.4,1.3,3.8,2.4,3.8c0.9,0,2.2-0.6,2.4-2.2H21.8z"/>
	<path class="st3" d="M25.4,10.7c-1.7,0-2.5-1.2-2.5-2.6c0-1.5,0.9-2.6,2.5-2.6c1.7,0,2.5,1.2,2.5,2.6C27.9,9.5,27.1,10.7,25.4,10.7
		z M25.4,5.6c-0.8,0-1.4,0.5-1.4,2.5c0,2,0.6,2.5,1.4,2.5c0.8,0,1.4-0.5,1.4-2.5C26.8,6.1,26.2,5.6,25.4,5.6z"/>
	<path class="st3" d="M36.4,10.6h-1.8v-0.1C35,10.4,35,10.2,35,9.6V7.2C35,6.4,34.7,6,34,6c-0.5,0-1,0.6-1,1c0,0.1,0,0.2,0,0.3v2.4
		c0,0.6,0.1,0.8,0.5,0.9v0.1h-1.8v-0.1C32,10.4,32,10.2,32,9.6V7.2C32,6.4,31.7,6,31,6c-0.6,0-1,0.6-1,0.9v2.7
		c0,0.6,0.1,0.8,0.5,0.9v0.1h-1.8v-0.1C29,10.4,29,10.2,29,9.6v-3c0-0.4-0.1-0.6-0.5-0.7V5.8L30,5.4v1.1c0.2-0.6,0.9-1.1,1.6-1.1
		c0.8,0,1.3,0.4,1.4,1.2c0.2-0.6,0.9-1.2,1.6-1.2c0.9,0,1.4,0.4,1.4,1.8v2.4c0,0.6,0.1,0.8,0.5,0.9V10.6z"/>
	<path class="st3" d="M39.7,10.7c-0.6,0-1-0.2-1.4-0.4v2.3c0,0.6,0.1,0.7,0.5,0.8v0.1h-1.8v-0.1c0.4-0.1,0.4-0.3,0.4-0.8V6.5
		c0-0.4-0.1-0.5-0.5-0.6V5.8l1.5-0.3v0.9c0.3-0.6,1.1-0.9,1.6-0.9c1.5,0,2.3,1.2,2.3,2.7C42.2,9.8,41.1,10.7,39.7,10.7z M39.6,5.8
		c-0.7,0-1.2,0.5-1.3,1.3v2.1c0.1,1,0.6,1.5,1.3,1.5c0.7,0,1.5-0.5,1.5-2.3C41.1,6.5,40.5,5.8,39.6,5.8z"/>
	<path class="st3" d="M47.9,9.9L48,10c-0.1,0.3-0.4,0.7-1,0.7c0,0-0.9,0-0.9-0.9c-0.2,0.5-0.8,0.9-1.6,0.9c0,0-1.3,0-1.3-1.1
		c0-1.1,0.9-1.3,2.8-1.8V7.1c0-1.1-0.6-1.8-1.5-1.4c-0.4,0.2-0.5,0.4-0.4,0.4c0.1,0,0.3,0.1,0.3,0.2c0.2,0.2,0.1,0.6-0.1,0.7
		c-0.2,0.2-0.5,0.1-0.7-0.1c-0.1-0.2-0.1-0.4-0.1-0.5c0.1-0.2,0.3-0.5,0.9-0.8c0.5-0.2,1-0.2,1-0.2c1.2,0,1.5,0.9,1.5,2.2v1.9
		c0,0,0,0.7,0.5,0.7C47.5,10.2,47.8,10.2,47.9,9.9z M44.2,9.4c0,0.3,0.2,0.9,0.9,0.9c0.6,0,0.9-0.4,1-0.7c0,0,0-1.6,0-1.6
		C44.8,8.2,44.2,8.7,44.2,9.4z"/>
	<path class="st3" d="M51.9,5.7c0.2,0.3,0.2,0.6-0.1,0.9c-0.3,0.2-0.6,0.2-0.9-0.1c-0.1-0.1-0.2-0.3-0.1-0.4c0-0.2-0.7,0.1-1,0.8
		v2.7c0,0.6,0.1,0.8,0.5,0.9v0.1h-1.9v-0.1c0.4-0.1,0.4-0.3,0.4-0.9v-3c0-0.4-0.1-0.5-0.5-0.7V5.8l1.5-0.3v1.2
		c0.4-0.7,1-1.1,1.5-1.1C51.5,5.5,51.7,5.5,51.9,5.7z"/>
	<path class="st3" d="M56.9,9.3c-0.1,0.5-0.7,1.4-2,1.4c-1.4,0-2.4-1.1-2.4-2.6c0-1.6,1-2.7,2.4-2.7c1.3,0,2.2,0.8,2.2,2.5h-3.5
		c0,1.5,0.7,2.1,1.6,2.2c0.7,0.1,1.4-0.3,1.6-0.9L56.9,9.3z M56.1,7.8c0-1.6-0.7-2.3-1.2-2.3c-0.6,0-1.3,0.9-1.3,2.3H56.1z"/>
	<path class="st3" d="M61.3,5.7c0.2,0.3,0.2,0.6-0.1,0.9c-0.3,0.2-0.6,0.2-0.9-0.1c-0.1-0.1-0.2-0.3-0.1-0.4c0-0.2-0.7,0.1-1,0.8
		v2.7c0,0.6,0.1,0.8,0.5,0.9v0.1h-1.9v-0.1c0.4-0.1,0.4-0.3,0.4-0.9v-3c0-0.4-0.1-0.5-0.5-0.7V5.8l1.5-0.3v1.2
		c0.4-0.7,1-1.1,1.5-1.1C60.9,5.5,61.1,5.5,61.3,5.7z"/>
</g>
</svg>
