<?xml version="1.0" encoding="utf-8"?>
<!-- Generator: Adobe Illustrator 22.0.0, SVG Export Plug-In . SVG Version: 6.00 Build 0)  -->
<svg version="1.1" id="Layer_1" xmlns="http://www.w3.org/2000/svg" xmlns:xlink="http://www.w3.org/1999/xlink" x="0px" y="0px"
	 viewBox="0 0 174 43" style="enable-background:new 0 0 174 43;" xml:space="preserve">
<style type="text/css">
	.st0{fill:#FFFFFF;stroke:#FFFFFF;stroke-miterlimit:10;}
	.st1{fill:#FFFFFF;}
	.st2{fill:none;}
	.st3{fill:none;stroke:#FFFFFF;stroke-miterlimit:10;}
</style>
<g>
	<line class="st0" x1="2.4" y1="21.2" x2="21.6" y2="1.4"/>
	<line class="st0" x1="2.4" y1="21.4" x2="21.6" y2="41.3"/>
	<line class="st0" x1="11.2" y1="21.3" x2="22.7" y2="9.3"/>
	<line class="st0" x1="11.2" y1="21.4" x2="22.7" y2="33.3"/>
	<line class="st0" x1="18.3" y1="21.3" x2="21.8" y2="17.7"/>
	<line class="st0" x1="18.3" y1="21.3" x2="21.8" y2="24.9"/>
	<line class="st0" x1="44" y1="21.4" x2="24.7" y2="41.3"/>
	<line class="st0" x1="44" y1="21.2" x2="24.7" y2="1.4"/>
	<line class="st0" x1="35.2" y1="21.4" x2="23.6" y2="33.3"/>
	<line class="st0" x1="35.2" y1="21.3" x2="23.6" y2="9.3"/>
	<line class="st0" x1="28.1" y1="21.3" x2="24.6" y2="24.9"/>
	<line class="st0" x1="28.1" y1="21.3" x2="24.6" y2="17.7"/>
</g>
<g>
	<path class="st1" d="M58.9,31c-0.8,0.4-2.3,0.8-4.3,0.8c-4.6,0-8-2.9-8-8.2c0-5.1,3.4-8.5,8.4-8.5c2,0,3.3,0.4,3.8,0.7l-0.5,1.7
		c-0.8-0.4-1.9-0.7-3.3-0.7c-3.8,0-6.3,2.4-6.3,6.7c0,4,2.3,6.5,6.2,6.5c1.3,0,2.6-0.3,3.4-0.7L58.9,31z"/>
	<path class="st1" d="M71.7,25.6c0,4.3-3,6.2-5.8,6.2c-3.1,0-5.6-2.3-5.6-6c0-3.9,2.5-6.2,5.8-6.2C69.4,19.6,71.7,22,71.7,25.6z
		 M62.5,25.7c0,2.5,1.5,4.5,3.5,4.5c2,0,3.5-1.9,3.5-4.5c0-2-1-4.5-3.5-4.5S62.5,23.5,62.5,25.7z"/>
	<path class="st1" d="M74.3,23c0-1.2,0-2.2-0.1-3.1h1.8l0.1,1.9h0.1c0.6-1.1,1.7-2.1,3.6-2.1c1.6,0,2.8,1,3.3,2.3h0
		c0.4-0.6,0.8-1.2,1.3-1.5c0.7-0.5,1.5-0.8,2.6-0.8c1.5,0,3.8,1,3.8,5v6.8h-2.1v-6.6c0-2.2-0.8-3.6-2.5-3.6c-1.2,0-2.1,0.9-2.5,1.9
		c-0.1,0.3-0.2,0.7-0.2,1.1v7.2h-2.1v-7c0-1.8-0.8-3.2-2.4-3.2c-1.3,0-2.3,1.1-2.6,2.1c-0.1,0.3-0.2,0.7-0.2,1v7h-2.1V23z"/>
	<path class="st1" d="M94.3,23.7c0-1.5,0-2.7-0.1-3.8h1.9l0.1,2h0c0.9-1.4,2.2-2.3,4.1-2.3c2.8,0,4.9,2.4,4.9,5.9
		c0,4.2-2.5,6.2-5.3,6.2c-1.5,0-2.9-0.7-3.6-1.8h0v6.3h-2.1V23.7z M96.4,26.8c0,0.3,0,0.6,0.1,0.9c0.4,1.5,1.7,2.5,3.2,2.5
		c2.2,0,3.5-1.8,3.5-4.5c0-2.3-1.2-4.3-3.5-4.3c-1.4,0-2.8,1-3.2,2.6c-0.1,0.3-0.1,0.6-0.1,0.9V26.8z"/>
	<path class="st1" d="M114.4,31.5l-0.2-1.5h-0.1c-0.6,0.9-1.9,1.7-3.6,1.7c-2.4,0-3.6-1.7-3.6-3.3c0-2.8,2.5-4.3,7-4.3v-0.2
		c0-1-0.3-2.7-2.6-2.7c-1.1,0-2.2,0.3-3,0.9l-0.5-1.4c1-0.6,2.4-1,3.8-1c3.6,0,4.4,2.4,4.4,4.8v4.3c0,1,0,2,0.2,2.8H114.4z
		 M114.1,25.6c-2.3,0-4.9,0.4-4.9,2.6c0,1.4,0.9,2,2,2c1.5,0,2.5-1,2.8-1.9c0.1-0.2,0.1-0.5,0.1-0.7V25.6z"/>
	<path class="st1" d="M119.6,23.5c0-1.4,0-2.5-0.1-3.6h1.8l0.1,2.3h0.1c0.5-1.6,1.8-2.5,3.2-2.5c0.2,0,0.4,0,0.6,0.1v2
		c-0.2,0-0.4-0.1-0.7-0.1c-1.5,0-2.5,1.1-2.8,2.7c0,0.3-0.1,0.6-0.1,1v6.2h-2.1V23.5z"/>
	<path class="st1" d="M128.4,26.1c0,2.9,1.9,4,4,4c1.5,0,2.4-0.3,3.2-0.6l0.4,1.5c-0.7,0.3-2,0.7-3.9,0.7c-3.6,0-5.7-2.4-5.7-5.9
		c0-3.5,2.1-6.3,5.4-6.3c3.8,0,4.8,3.3,4.8,5.5c0,0.4,0,0.8-0.1,1H128.4z M134.6,24.6c0-1.3-0.6-3.4-2.9-3.4c-2.1,0-3.1,2-3.2,3.4
		H134.6z"/>
	<path class="st1" d="M154.3,14.5v14c0,1,0,2.2,0.1,3h-1.9l-0.1-2h0c-0.6,1.3-2.1,2.3-4,2.3c-2.8,0-5-2.4-5-5.9
		c0-3.9,2.4-6.2,5.2-6.2c1.8,0,3,0.8,3.5,1.8h0v-6.9H154.3z M152.2,24.6c0-0.3,0-0.6-0.1-0.9c-0.3-1.3-1.5-2.4-3-2.4
		c-2.2,0-3.5,1.9-3.5,4.5c0,2.4,1.2,4.3,3.4,4.3c1.4,0,2.7-0.9,3.1-2.5c0.1-0.3,0.1-0.6,0.1-0.9V24.6z"/>
	<path class="st1" d="M157.7,31.5c0-0.8,0.1-2,0.1-3v-14h2.1v7.3h0c0.7-1.3,2.1-2.1,4-2.1c2.9,0,4.9,2.4,4.9,5.9
		c0,4.2-2.6,6.2-5.2,6.2c-1.7,0-3-0.6-3.9-2.2h-0.1l-0.1,1.9H157.7z M159.9,26.8c0,0.3,0,0.5,0.1,0.8c0.4,1.5,1.6,2.5,3.2,2.5
		c2.2,0,3.5-1.8,3.5-4.5c0-2.3-1.2-4.3-3.5-4.3c-1.4,0-2.8,1-3.2,2.6c0,0.2-0.1,0.5-0.1,0.9V26.8z"/>
</g>
<line class="st2" x1="146" y1="37.3" x2="169" y2="37.3"/>
<line class="st0" x1="140" y1="34.8" x2="173" y2="34.8"/>
<line class="st3" x1="141" y1="32.8" x2="172" y2="32.8"/>
</svg>
