<?xml version="1.0" encoding="utf-8"?>
<!-- Generator: Adobe Illustrator 22.1.0, SVG Export Plug-In . SVG Version: 6.00 Build 0)  -->
<svg version="1.1" id="Layer_1" xmlns="http://www.w3.org/2000/svg" xmlns:xlink="http://www.w3.org/1999/xlink" x="0px" y="0px"
	 viewBox="0 0 63.8 14" style="enable-background:new 0 0 63.8 14;" xml:space="preserve">
<style type="text/css">
	.st0{fill:none;}
	.st1{fill:#3498DB;stroke:#FFFFFF;stroke-width:0.25;stroke-miterlimit:10;}
	.st2{fill:none;stroke:#FFFFFF;stroke-width:0.25;stroke-miterlimit:10;}
	.st3{fill:none;stroke:#FFFFFF;stroke-width:0.1784;stroke-miterlimit:10;}
	.st4{fill:none;stroke:#FFFFFF;stroke-width:0.1746;stroke-miterlimit:10;}
	.st5{fill:#FAFAFA;}
</style>
<line class="st0" x1="7.9" y1="4" x2="4.9" y2="7"/>
<path class="st1" d="M12.5,13H1.3c-0.2,0-0.4-0.2-0.4-0.4v-11C0.9,1.3,1.2,1,1.5,1h11c0.2,0,0.4,0.2,0.4,0.4l0,11.2
	C12.9,12.8,12.7,13,12.5,13z"/>
<line class="st2" x1="1.9" y1="2" x2="1.9" y2="12"/>
<line class="st2" x1="1.9" y1="12" x2="11.9" y2="12"/>
<line class="st2" x1="11.9" y1="2" x2="11.9" y2="12"/>
<line class="st2" x1="1.9" y1="2" x2="11.9" y2="2"/>
<line class="st2" x1="2.9" y1="3" x2="2.9" y2="11"/>
<line class="st2" x1="10.9" y1="3" x2="2.9" y2="3"/>
<line class="st2" x1="3.9" y1="4" x2="3.9" y2="11"/>
<line class="st2" x1="10.9" y1="4" x2="3.9" y2="4"/>
<line class="st2" x1="10.9" y1="5" x2="4.9" y2="5"/>
<line class="st2" x1="4.9" y1="5" x2="4.9" y2="11"/>
<line class="st3" x1="10.9" y1="11" x2="10.9" y2="7.9"/>
<line class="st4" x1="10.9" y1="10.9" x2="7.9" y2="10.9"/>
<line class="st3" x1="9.8" y1="10.1" x2="9.8" y2="7"/>
<line class="st4" x1="9.8" y1="10" x2="6.9" y2="10"/>
<g>
	<path class="st5" d="M20.3,8.9V10c0,0.7-0.2,1.2-0.5,1.6s-0.8,0.5-1.5,0.5s-1.1-0.2-1.5-0.5c-0.3-0.4-0.5-0.9-0.5-1.6V5.6
		c0-0.7,0.2-1.2,0.5-1.6c0.3-0.4,0.8-0.5,1.5-0.5s1.1,0.2,1.5,0.5c0.3,0.4,0.5,0.9,0.5,1.6v0.8h-1.2V5.5c0-0.3-0.1-0.5-0.2-0.6
		s-0.3-0.2-0.5-0.2S18,4.8,17.9,4.9s-0.2,0.3-0.2,0.6v4.5c0,0.3,0.1,0.5,0.2,0.6s0.3,0.2,0.5,0.2s0.4-0.1,0.5-0.2s0.2-0.3,0.2-0.6
		V8.9H20.3z"/>
	<path class="st5" d="M21.6,5.6c0-0.7,0.2-1.2,0.5-1.6c0.3-0.4,0.8-0.5,1.5-0.5s1.1,0.2,1.5,0.5c0.3,0.4,0.5,0.9,0.5,1.6V10
		c0,0.7-0.2,1.2-0.5,1.6c-0.3,0.4-0.8,0.5-1.5,0.5s-1.1-0.2-1.5-0.5c-0.3-0.4-0.5-0.9-0.5-1.6V5.6z M23,10.1c0,0.3,0.1,0.5,0.2,0.6
		s0.3,0.2,0.5,0.2s0.4-0.1,0.5-0.2s0.2-0.3,0.2-0.6V5.5c0-0.3-0.1-0.5-0.2-0.6s-0.3-0.2-0.5-0.2s-0.4,0.1-0.5,0.2S23,5.2,23,5.5
		V10.1z"/>
	<path class="st5" d="M29.9,9.6l0.9-6h1.8V12h-1.2V6l-0.9,6h-1.2l-1-5.9V12h-1.2V3.6h1.8L29.9,9.6z"/>
	<path class="st5" d="M36.1,3.6c0.7,0,1.2,0.2,1.5,0.5s0.5,0.9,0.5,1.5v1.1c0,0.7-0.2,1.2-0.5,1.5c-0.3,0.4-0.8,0.5-1.5,0.5h-0.6V12
		h-1.3V3.6H36.1z M35.5,4.8v2.8h0.6c0.2,0,0.4-0.1,0.5-0.2c0.1-0.1,0.2-0.3,0.2-0.6V5.6c0-0.3-0.1-0.5-0.2-0.6
		c-0.1-0.1-0.3-0.2-0.5-0.2H35.5z"/>
	<path class="st5" d="M43.6,12h-1.3L42,10.5h-1.6L40.2,12H39l1.3-8.4h1.9L43.6,12z M40.6,9.3h1.3l-0.6-4.2L40.6,9.3z"/>
	<path class="st5" d="M47.6,12c0-0.1,0-0.1,0-0.2c0,0,0-0.1,0-0.2c0-0.1,0-0.2,0-0.3s0-0.3,0-0.4V9.6c0-0.4-0.1-0.7-0.2-0.8
		c-0.1-0.2-0.4-0.2-0.7-0.2h-0.5V12h-1.3V3.6h2c0.7,0,1.2,0.2,1.5,0.5s0.5,0.8,0.5,1.5v0.7c0,0.9-0.3,1.4-0.9,1.7
		c0.3,0.1,0.6,0.4,0.7,0.7c0.1,0.3,0.2,0.7,0.2,1.1V11c0,0.2,0,0.4,0,0.5c0,0.2,0.1,0.3,0.1,0.5H47.6z M46.1,4.8v2.6h0.5
		c0.2,0,0.4-0.1,0.6-0.2c0.1-0.1,0.2-0.4,0.2-0.7V5.7c0-0.3-0.1-0.5-0.2-0.7c-0.1-0.1-0.3-0.2-0.5-0.2H46.1z"/>
	<path class="st5" d="M51.5,7.1h1.8v1.2h-1.8v2.5h2.3V12h-3.6V3.6h3.6v1.2h-2.3V7.1z"/>
	<path class="st5" d="M58,12c0-0.1,0-0.1,0-0.2c0,0,0-0.1,0-0.2c0-0.1,0-0.2,0-0.3s0-0.3,0-0.4V9.6c0-0.4-0.1-0.7-0.2-0.8
		c-0.1-0.2-0.4-0.2-0.7-0.2h-0.5V12h-1.3V3.6h2c0.7,0,1.2,0.2,1.5,0.5s0.5,0.8,0.5,1.5v0.7c0,0.9-0.3,1.4-0.9,1.7
		C58.7,8,58.9,8.3,59,8.6c0.1,0.3,0.2,0.7,0.2,1.1V11c0,0.2,0,0.4,0,0.5c0,0.2,0.1,0.3,0.1,0.5H58z M56.6,4.8v2.6h0.5
		c0.2,0,0.4-0.1,0.6-0.2c0.1-0.1,0.2-0.4,0.2-0.7V5.7c0-0.3-0.1-0.5-0.2-0.7c-0.1-0.1-0.3-0.2-0.5-0.2H56.6z"/>
</g>
</svg>
