<?xml version="1.0" encoding="utf-8"?>
<!-- Generator: Adobe Illustrator 22.1.0, SVG Export Plug-In . SVG Version: 6.00 Build 0)  -->
<svg version="1.1" id="Layer_1" xmlns="http://www.w3.org/2000/svg" xmlns:xlink="http://www.w3.org/1999/xlink" x="0px" y="0px"
	 viewBox="0 0 14.2 14" style="enable-background:new 0 0 14.2 14;" xml:space="preserve">
<style type="text/css">
	.st0{fill:none;}
	.st1{fill:#3498DB;stroke:#FFFFFF;stroke-width:0.25;stroke-miterlimit:10;}
	.st2{fill:none;stroke:#FFFFFF;stroke-width:0.25;stroke-miterlimit:10;}
	.st3{fill:none;stroke:#FFFFFF;stroke-width:0.1784;stroke-miterlimit:10;}
	.st4{fill:none;stroke:#FFFFFF;stroke-width:0.1746;stroke-miterlimit:10;}
</style>
<line class="st0" x1="7.9" y1="4" x2="4.9" y2="7"/>
<path class="st1" d="M12.5,13H1.3c-0.2,0-0.4-0.2-0.4-0.4v-11C0.9,1.3,1.2,1,1.5,1h11c0.2,0,0.4,0.2,0.4,0.4l0,11.2
	C12.9,12.8,12.7,13,12.5,13z"/>
<line class="st2" x1="1.9" y1="2" x2="1.9" y2="12"/>
<line class="st2" x1="1.9" y1="12" x2="11.9" y2="12"/>
<line class="st2" x1="11.9" y1="2" x2="11.9" y2="12"/>
<line class="st2" x1="1.9" y1="2" x2="11.9" y2="2"/>
<line class="st2" x1="2.9" y1="3" x2="2.9" y2="11"/>
<line class="st2" x1="10.9" y1="3" x2="2.9" y2="3"/>
<line class="st2" x1="3.9" y1="4" x2="3.9" y2="11"/>
<line class="st2" x1="10.9" y1="4" x2="3.9" y2="4"/>
<line class="st2" x1="10.9" y1="5" x2="4.9" y2="5"/>
<line class="st2" x1="4.9" y1="5" x2="4.9" y2="11"/>
<line class="st3" x1="10.9" y1="11" x2="10.9" y2="7.9"/>
<line class="st4" x1="10.9" y1="10.9" x2="7.9" y2="10.9"/>
<line class="st3" x1="9.8" y1="10.1" x2="9.8" y2="7"/>
<line class="st4" x1="9.8" y1="10" x2="6.9" y2="10"/>
</svg>
