<?xml version="1.0" encoding="utf-8"?>
<!-- Generator: Adobe Illustrator 22.1.0, SVG Export Plug-In . SVG Version: 6.00 Build 0)  -->
<svg version="1.1" id="Layer_1" xmlns="http://www.w3.org/2000/svg" xmlns:xlink="http://www.w3.org/1999/xlink" x="0px" y="0px"
	 viewBox="0 0 800 666" style="enable-background:new 0 0 800 666;" xml:space="preserve">
<style type="text/css">
	.st0{fill:#FCCA6E;}
	.st1{fill:none;}
	.st2{fill:#2D7D9A;}
	.st3{fill:#038387;}
	.st4{fill:#038387;stroke:#2D7D9A;stroke-miterlimit:10;}
	.st5{fill:#0984E3;}
	.st6{fill:#0984E3;stroke:#0984E3;stroke-width:6;stroke-miterlimit:10;}
	.st7{fill:#FCCA6E;stroke:#0984E3;stroke-width:5;stroke-miterlimit:10;}
	.st8{fill:none;stroke:#0984E3;stroke-width:3.4329;stroke-miterlimit:10;}
</style>
<g id="загружено__x28_1_x29__xA0_Image_5_">
	<g>
		<path class="st0" d="M562.5,410.3c0-3.3,0-6.7,0-10c1-8.2,6-13.8,12.6-18.2c16.8-11.4,35.6-17,55.8-17.8
			c5.3-0.2,10.6-0.8,15.9-0.5c2.2,0,4.4,0,6.7,0c1.7,0,3.4,0,5,0c2.2,0,4.4,0,6.7,0c17.2,0.1,34.2,0.9,50.5,7.4
			c7.5,3,14.7,6.3,21.3,10.9c6.5,4.5,11.5,10,12.6,18.2c0,3.3,0,6.7,0,10c-1.1,11.5-9.4,17.4-18.3,22.5
			c-14.1,8.1-29.4,12.2-45.4,14.4c-12.4,1.8-24.8,2.8-37.3,2.1c-23.2-1.3-46-4.5-66.8-16c-4.1-2.3-7.9-5-11.5-8
			C565.5,421.5,563.4,416.2,562.5,410.3z"/>
		<path class="st0" d="M562.5,497.3c0-10.7,0-21.3,0-32c2.1-0.5,3.2,1,3.9,2.4c6,11.2,16.6,16.7,27.5,21.2
			c16.6,6.8,34.1,9.9,52,10.4c18.7,0.5,37.3-0.1,55.5-4.9c11.2-3,21.9-6.8,31.6-13.3c4.9-3.3,9.2-7.2,12-12.5
			c0.9-1.7,1.9-3.7,4.5-3.2c0,10.7,0,21.3,0,32c-1.9,12.7-11.5,18.6-21.4,23.7C708.4,531.3,687,535,665,535.6
			c-20.4,0.5-40.5-0.4-60.2-6.2c-10.9-3.2-21.4-7.4-30.6-14.3C568.2,510.5,563.3,505.3,562.5,497.3z"/>
		<path class="st0" d="M749.5,508.3c0,10.7,0,21.3,0,32c-1.3,12.2-10.5,17.9-19.8,23.1c-14.4,8-29.9,12.3-46.5,13
			c-4.6,0.2-11.2-0.1-15.8,0.9c-9.3,0-11.2,0-20.5,0c-6.4-0.9-18.3-0.7-24.7-1.5c-18.6-2.2-35.9-7.8-50.7-19.7
			c-5.2-4.1-8.4-9.2-9.1-15.8c0-10.7,0-21.3,0-32c2.1-0.4,2.9,1.3,3.8,2.6c6,10,15.2,16.1,25.7,20.4c16.5,6.8,33.7,9.7,51.4,11.1
			c20.1,1.6,39.8-0.4,59.2-5.3c13.2-3.3,26.1-7.9,36.4-17.7c2.5-2.4,4.6-5.2,6.6-8.1C746.5,509.9,747.1,507.9,749.5,508.3z"/>
		<path class="st0" d="M562.5,453.3c0-10.3,0-20.7,0-31c2.1-0.5,3.2,1,4,2.3c7,12.3,18.8,18,31.3,22.5c16.7,6.1,34.1,8.6,51.8,9.1
			c21.3,0.6,42.1-1.5,62.4-8.2c8.6-2.8,16.6-6.7,23.9-12.2c3.6-2.8,6.6-6.1,8.9-9.9c1.1-1.8,2-4,4.8-3.6c0,10.3,0,20.7,0,31
			c-0.8,10.3-7.7,16.1-15.5,21.1c-13.3,8.6-28.1,12.9-43.5,15.3c-31.8,5-63.3,4.1-94.1-6.4c-7.3-2.5-14.1-5.9-20.5-10.3
			C568.9,468.3,563.1,462.5,562.5,453.3z"/>
	</g>
	<rect x="545" y="386" class="st1" width="187" height="214"/>
	<g>
		<g>
			<path class="st2" d="M555.4,130.4c0-3.3,0-6.7,0-10c1-8.2,6-13.8,12.6-18.2c16.8-11.4,35.6-17,55.8-17.8
				c5.3-0.2,10.6-0.8,15.9-0.5c2.2,0,4.4,0,6.7,0c1.7,0,3.4,0,5,0c2.2,0,4.4,0,6.7,0c17.2,0.1,34.2,0.9,50.5,7.4
				c7.5,3,14.7,6.3,21.3,10.9c6.5,4.5,11.5,10,12.6,18.2c0,3.3,0,6.7,0,10c-1.1,11.5-9.4,17.4-18.3,22.5
				c-14.1,8.1-29.4,12.2-45.4,14.4c-12.4,1.8-24.8,2.8-37.3,2.1c-23.2-1.3-46-4.5-66.8-16c-4.1-2.3-7.9-5-11.5-8
				C558.4,141.6,556.3,136.3,555.4,130.4z"/>
			<path class="st2" d="M555.4,217.4c0-10.7,0-21.3,0-32c2.1-0.5,3.2,1,3.9,2.4c6,11.2,16.6,16.7,27.5,21.2
				c16.6,6.8,34.1,9.9,52,10.4c18.7,0.5,37.3-0.1,55.5-4.9c11.2-3,21.9-6.8,31.6-13.3c4.9-3.3,9.2-7.2,12-12.5
				c0.9-1.7,1.9-3.7,4.5-3.2c0,10.7,0,21.3,0,32c-1.9,12.7-11.5,18.6-21.4,23.7c-19.7,10.2-41.1,13.9-63.1,14.5
				c-20.4,0.5-40.5-0.4-60.2-6.2c-10.9-3.2-21.4-7.4-30.6-14.3C561.1,230.7,556.1,225.4,555.4,217.4z"/>
			<path class="st2" d="M743,227.7c0,10.7,0,21.3,0,32c-1.3,12.2-10.5,17.9-19.8,23.1c-14.4,8-29.9,12.3-46.5,13
				c-4.6,0.2-9.2-0.1-13.8,0.9c-9.3,0-18.7,0-28,0c-6.4-0.9-12.8-0.7-19.2-1.5c-18.6-2.2-35.9-7.8-50.7-19.7
				c-5.2-4.1-8.4-9.2-9.1-15.8c0-10.7,0-21.3,0-32c2.1-0.4,2.9,1.3,3.8,2.6c6,10,15.2,16.1,25.7,20.4c16.5,6.8,33.7,9.7,51.4,11.1
				c20.1,1.6,39.8-0.4,59.2-5.3c13.2-3.3,26.1-7.9,36.4-17.7c2.5-2.4,4.6-5.2,6.6-8.1C739.9,229.2,740.6,227.3,743,227.7z"/>
			<path class="st2" d="M555.4,173.4c0-10.3,0-20.7,0-31c2.1-0.5,3.2,1,4,2.3c7,12.3,18.8,18,31.3,22.5c16.7,6.1,34.1,8.6,51.8,9.1
				c21.3,0.6,42.1-1.5,62.4-8.2c8.6-2.8,16.6-6.7,23.9-12.2c3.6-2.8,6.6-6.1,8.9-9.9c1.1-1.8,2-4,4.8-3.6c0,10.3,0,20.7,0,31
				c-0.8,10.3-7.7,16.1-15.5,21.1c-13.3,8.6-28.1,12.9-43.5,15.3c-31.8,5-63.3,4.1-94.1-6.4c-7.3-2.5-14.1-5.9-20.5-10.3
				C561.7,188.4,556,182.7,555.4,173.4z"/>
		</g>
		<path class="st2" d="M639.3,84.3c0-0.3,0-0.6,0.1-0.9c2.3,0,4.7,0,7,0c0.7,0.3,0.7,0.6,0,0.9C644,84.3,641.7,84.3,639.3,84.3z"/>
		<path class="st2" d="M658.4,83.4c0,0.3,0,0.6,0.1,0.9c-2.3,0-4.7,0-7,0c-0.7-0.3-0.7-0.6,0-0.9C653.7,83.4,656,83.4,658.4,83.4z"
			/>
		<path class="st2" d="M651.4,83.4c0,0.3,0,0.6,0,0.9c-1.7,0-3.4,0-5.1,0c0-0.3,0-0.6,0-0.9C648,83.4,649.7,83.4,651.4,83.4z"/>
	</g>
	<g>
		<path class="st3" d="M40.5,131.2c0-3.3,0-6.7,0.1-10c1.1-8.2,6.1-13.7,12.7-18.1C70.2,91.8,89,86.3,109.2,85.7
			c5.3-0.2,10.6-0.8,15.9-0.4c2.2,0,4.4,0,6.7,0c1.7,0,3.4,0,5,0c2.2,0,4.4,0,6.7,0c17.2,0.2,34.2,1.2,50.5,7.7
			c7.5,3,14.6,6.4,21.2,11c6.4,4.6,11.5,10.1,12.5,18.3c0,3.3,0,6.7-0.1,10c-1.2,11.5-9.5,17.3-18.5,22.4c-14.1,8-29.5,12-45.5,14.1
			c-12.4,1.7-24.8,2.6-37.3,1.8c-23.2-1.4-46-4.8-66.7-16.4c-4.1-2.3-7.8-5-11.4-8C43.5,142.4,41.4,137.1,40.5,131.2z"/>
		<path class="st4" d="M39.7,217.7c0.1-10.7,0.1-21.3,0.2-32c2.1-0.5,3.2,1,3.9,2.4c5.9,11.3,16.5,16.8,27.4,21.3
			c16.6,6.9,34,10.1,52,10.7c18.7,0.6,37.3,0.1,55.5-4.6c11.2-2.9,22-6.7,31.7-13.1c4.9-3.2,9.2-7.1,12.1-12.4
			c0.9-1.7,1.9-3.7,4.5-3.2c-0.1,10.7-0.1,21.3-0.2,32c-1.9,12.6-11.6,18.5-21.6,23.6c-19.8,10.1-41.1,13.6-63.2,14.1
			c-20.4,0.4-40.5-0.7-60.2-6.5c-10.9-3.3-21.3-7.6-30.5-14.5C45.3,231,40.4,225.7,39.7,217.7z"/>
		<path class="st4" d="M225.8,229c-0.1,10.7-0.1,21.3-0.2,32c-1.4,12.2-10.6,17.9-19.9,23c-14.4,7.9-30,12.1-46.6,12.7
			c-4.6,0.2-9.2-0.1-13.8,0.8c-9.3-0.1-18.7-0.1-28-0.2c-6.4-1-12.8-0.8-19.2-1.6c-18.6-2.3-35.8-8-50.6-20c-5.1-4.2-8.3-9.2-9-15.8
			c0.1-10.7,0.1-21.3,0.2-32c2.1-0.4,2.9,1.3,3.7,2.7c6,10,15.1,16.2,25.6,20.6c16.4,6.9,33.6,9.9,51.3,11.5
			c20.1,1.7,39.8-0.2,59.3-4.9c13.3-3.3,26.2-7.7,36.5-17.5c2.6-2.4,4.7-5.2,6.6-8.1C222.8,230.5,223.4,228.6,225.8,229z"/>
		<path class="st4" d="M40,173.7c0.1-10.3,0.1-20.7,0.2-31c2.1-0.5,3.2,1,3.9,2.4c6.9,12.3,18.7,18.1,31.1,22.7
			c16.6,6.2,34,8.8,51.7,9.4c21.3,0.7,42.2-1.3,62.5-7.8c8.6-2.8,16.7-6.6,23.9-12c3.7-2.8,6.6-6,9-9.9c1.1-1.8,2-3.9,4.8-3.6
			c-0.1,10.3-0.1,20.7-0.2,31c-0.8,10.3-7.8,16-15.7,21c-13.3,8.5-28.2,12.7-43.6,15c-31.8,4.8-63.3,3.7-94-7
			c-7.3-2.5-14.1-6-20.4-10.4C46.3,188.7,40.5,182.9,40,173.7z"/>
	</g>
	<g>
		<path class="st5" d="M35.7,416.1c0-3.3,0-6.7,0.1-10c1.1-8.2,6.1-13.7,12.7-18.1c16.9-11.3,35.7-16.8,55.9-17.4
			c5.3-0.2,10.6-0.8,15.9-0.4c2.2,0,4.4,0,6.7,0c1.7,0,3.4,0,5,0c2.2,0,4.4,0,6.7,0c17.2,0.2,34.2,1.2,50.5,7.7
			c7.5,3,14.6,6.4,21.2,11c6.4,4.6,11.5,10.1,12.5,18.3c0,3.3,0,6.7-0.1,10c-1.2,11.5-9.5,17.3-18.5,22.4c-14.1,8-29.5,12-45.5,14.1
			c-12.4,1.7-24.8,2.6-37.3,1.8c-23.2-1.4-46-4.8-66.7-16.4c-4.1-2.3-7.8-5-11.4-8C38.7,427.3,36.6,422,35.7,416.1z"/>
		<path class="st5" d="M34.9,502.6c0.1-10.7,0.1-21.3,0.2-32c2.1-0.5,3.2,1,3.9,2.4c5.9,11.3,16.5,16.8,27.4,21.3
			c16.6,6.9,34,10.1,52,10.7c18.7,0.6,37.3,0.1,55.5-4.6c11.2-2.9,22-6.7,31.7-13.1c4.9-3.2,9.2-7.1,12.1-12.4
			c0.9-1.7,1.9-3.7,4.5-3.2c-0.1,10.7-0.1,21.3-0.2,32c-1.9,12.6-11.6,18.5-21.6,23.6c-19.8,10.1-41.1,13.6-63.2,14.1
			c-20.4,0.4-40.5-0.7-60.2-6.5c-10.9-3.3-21.3-7.6-30.5-14.5C40.5,515.9,35.6,510.6,34.9,502.6z"/>
		<path class="st5" d="M221,513.9c-0.1,10.7-0.1,21.3-0.2,32c-1.4,12.2-10.6,17.9-19.9,23c-14.4,7.9-30,12.1-46.6,12.7
			c-4.6,0.2-9.2-0.1-13.8,0.8c-9.3-0.1-18.7-0.1-28-0.2c-6.4-1-12.8-0.8-19.2-1.6c-18.6-2.3-35.8-8-50.6-20c-5.1-4.2-8.3-9.2-9-15.8
			c0.1-10.7,0.1-21.3,0.2-32c2.1-0.4,2.9,1.3,3.7,2.7c6,10,15.1,16.2,25.6,20.6c16.4,6.9,33.6,9.9,51.3,11.5
			c20.1,1.7,39.8-0.2,59.3-4.9c13.3-3.3,26.2-7.7,36.5-17.5c2.6-2.4,4.7-5.2,6.6-8.1C218,515.4,218.6,513.5,221,513.9z"/>
		<path class="st5" d="M35.2,458.6c0.1-10.3,0.1-20.7,0.2-31c2.1-0.5,3.2,1,3.9,2.4c6.9,12.3,18.7,18.1,31.1,22.7
			c16.6,6.2,34,8.8,51.7,9.4c21.3,0.7,42.2-1.3,62.5-7.8c8.6-2.8,16.7-6.6,23.9-12c3.7-2.8,6.6-6,9-9.9c1.1-1.8,2-3.9,4.8-3.6
			c-0.1,10.3-0.1,20.7-0.2,31c-0.8,10.3-7.8,16-15.7,21c-13.3,8.5-28.2,12.7-43.6,15c-31.8,4.8-63.3,3.7-94-7
			c-7.3-2.5-14.1-6-20.4-10.4C41.5,473.6,35.7,467.8,35.2,458.6z"/>
		<path class="st5" d="M119.7,370c0-0.3,0,1.8,0,1.5c2.3,0,4.5,3.9,7,1.4c0.7,0.3,0.7-3.1,0-2.8C124.4,370,122,370,119.7,370z"/>
		<path class="st5" d="M138.4,370.9c0,0.1,0.4-0.9,0.4-0.8c-2.3,0-4.7,0-7,0c-0.7-0.3-2.3,3.3-1.7,2.9c-1.6,6,4.5,1.9,7.7-0.3
			c0,0.2,0.9-3.2,1-3"/>
		<path class="st5" d="M131.5,371.4c0,0.3,0.3-1.5,0.3-1.3c-1.7,0-3.4,0-5.1,0c0-0.3,0,0.7,0,0.4c0.2,0,0.8,1.3,0.9,1.3"/>
	</g>
</g>
<g id="загружено__x28_1_x29__xA0_Image_3_">
</g>
<g id="загружено__x28_1_x29__xA0_Image_1_">
</g>
<g>
	<path class="st5" d="M77.5,623.7l5.4-35.8h11v50.4h-7.5v-36.1l-5.5,36.1h-7.5l-5.9-35.6v35.6h-6.9v-50.4h11L77.5,623.7z"/>
	<path class="st5" d="M107.1,621.6l-10-33.7h8.3l6,23l6-23h7.6l-10,33.7v16.7h-7.9V621.6z"/>
	<path class="st5" d="M126.6,600c0-4.1,1-7.2,2.9-9.4c1.9-2.2,4.9-3.3,8.7-3.3c3.9,0,6.8,1.1,8.7,3.3s2.9,5.3,2.9,9.4v1.6h-7.5v-2.1
		c0-1.8-0.3-3.1-1-3.9c-0.7-0.7-1.7-1.1-2.9-1.1s-2.2,0.4-2.9,1.1c-0.7,0.7-1,2-1,3.9c0,1.7,0.4,3.3,1.2,4.6s1.7,2.6,2.9,3.7
		c1.2,1.2,2.4,2.4,3.7,3.5c1.3,1.2,2.6,2.5,3.7,3.9c1.2,1.4,2.1,3,2.9,4.8c0.8,1.8,1.2,3.9,1.2,6.3c0,4.1-1,7.2-3,9.4
		s-4.9,3.3-8.8,3.3c-3.9,0-6.8-1.1-8.8-3.3s-3-5.3-3-9.4v-3.1h7.5v3.6c0,1.8,0.4,3.1,1.1,3.8c0.7,0.7,1.7,1.1,3,1.1
		c1.2,0,2.2-0.4,3-1.1c0.7-0.7,1.1-2,1.1-3.8c0-1.7-0.4-3.3-1.2-4.6s-1.7-2.6-2.9-3.7c-1.2-1.2-2.4-2.4-3.7-3.5
		c-1.3-1.2-2.6-2.5-3.7-3.9c-1.2-1.4-2.1-3-2.9-4.8S126.6,602.4,126.6,600z"/>
	<path class="st5" d="M153.9,600c0-4.1,1-7.2,3.1-9.4s5-3.3,8.9-3.3s6.9,1.1,8.9,3.3c2.1,2.2,3.1,5.3,3.1,9.4v26.2
		c0,2.8-0.5,5.2-1.5,7.1c0.2,0.5,0.4,0.8,0.8,0.9c0.3,0.1,0.8,0.2,1.5,0.2h0.7v7.1h-1.1c-1.8,0-3.2-0.3-4.4-0.9
		c-1.1-0.6-2-1.5-2.5-2.6c-0.8,0.3-1.7,0.5-2.6,0.7c-0.9,0.2-1.9,0.3-3,0.3c-3.9,0-6.9-1.1-8.9-3.3c-2.1-2.2-3.1-5.3-3.1-9.4V600
		H153.9z M161.8,626.7c0,1.8,0.4,3.1,1.1,3.9c0.7,0.7,1.7,1.1,3,1.1c1.2,0,2.2-0.4,3-1.1c0.7-0.7,1.1-2,1.1-3.9v-27.2
		c0-1.8-0.4-3.1-1.1-3.9c-0.7-0.7-1.7-1.1-3-1.1c-1.2,0-2.2,0.4-3,1.1c-0.7,0.7-1.1,2-1.1,3.9V626.7z"/>
	<path class="st5" d="M183.1,587.9h7.9v43.2h13v7.2h-21v-50.4H183.1z"/>
</g>
<g>
	<path class="st4" d="M25.9,303.9c4,0,6.9,1.1,8.9,3.2c1.9,2.1,2.9,5.2,2.9,9.3v6.6c0,4.1-1,7.2-2.9,9.3s-4.9,3.2-8.9,3.2h-3.7v18.9
		h-7.9V304h11.6V303.9z M22.1,311.1v17.1h3.7c1.2,0,2.2-0.3,2.9-1c0.7-0.7,1-1.9,1-3.7v-7.6c0-1.8-0.3-3.1-1-3.7
		c-0.7-0.7-1.6-1-2.9-1L22.1,311.1L22.1,311.1z"/>
	<path class="st4" d="M40.7,316c0-4.1,1-7.2,3.1-9.4c2.1-2.2,5-3.3,8.9-3.3s6.9,1.1,8.9,3.3c2.1,2.2,3.1,5.3,3.1,9.4v26.2
		c0,4.1-1,7.2-3.1,9.4c-2.1,2.2-5,3.3-8.9,3.3s-6.9-1.1-8.9-3.3c-2.1-2.2-3.1-5.3-3.1-9.4C40.7,342.2,40.7,316,40.7,316z
		 M48.6,342.7c0,1.8,0.4,3.1,1.1,3.9c0.7,0.7,1.7,1.1,3,1.1c1.2,0,2.2-0.4,3-1.1c0.7-0.7,1.1-2,1.1-3.9v-27.2c0-1.8-0.4-3.1-1.1-3.9
		c-0.7-0.7-1.7-1.1-3-1.1c-1.2,0-2.2,0.4-3,1.1c-0.7,0.7-1.1,2-1.1,3.9V342.7z"/>
	<path class="st4" d="M68.8,316c0-4.1,1-7.2,2.9-9.4c1.9-2.2,4.9-3.3,8.7-3.3c3.9,0,6.8,1.1,8.7,3.3c1.9,2.2,2.9,5.3,2.9,9.4v1.6
		h-7.5v-2.1c0-1.8-0.3-3.1-1-3.9c-0.7-0.7-1.7-1.1-2.9-1.1c-1.2,0-2.2,0.4-2.9,1.1c-0.7,0.7-1,2-1,3.9c0,1.7,0.4,3.3,1.2,4.6
		c0.8,1.3,1.7,2.6,2.9,3.7c1.2,1.2,2.4,2.4,3.7,3.5c1.3,1.2,2.6,2.5,3.7,3.9c1.2,1.4,2.1,3,2.9,4.8s1.2,3.9,1.2,6.3
		c0,4.1-1,7.2-3,9.4c-2,2.2-4.9,3.3-8.8,3.3s-6.8-1.1-8.8-3.3c-2-2.2-3-5.3-3-9.4v-3.1h7.5v3.6c0,1.8,0.4,3.1,1.1,3.8
		c0.7,0.7,1.7,1.1,3,1.1c1.2,0,2.2-0.4,3-1.1c0.7-0.7,1.1-2,1.1-3.8c0-1.7-0.4-3.3-1.2-4.6c-0.8-1.3-1.7-2.6-2.9-3.7
		c-1.2-1.2-2.4-2.4-3.7-3.5c-1.3-1.2-2.6-2.5-3.7-3.9c-1.2-1.4-2.1-3-2.9-4.8C69.2,320.5,68.8,318.4,68.8,316z"/>
	<path class="st4" d="M94.5,303.9H119v7.2h-8.3v43.2h-7.9v-43.2h-8.3C94.5,311.1,94.5,303.9,94.5,303.9z"/>
	<path class="st4" d="M134.3,326.2h11.1v16c0,4.1-1,7.2-3,9.4c-2,2.2-4.9,3.3-8.8,3.3s-6.8-1.1-8.8-3.3c-2-2.2-3-5.3-3-9.4V316
		c0-4.1,1-7.2,3-9.4c2-2.2,4.9-3.3,8.8-3.3s6.8,1.1,8.8,3.3c2,2.2,3,5.3,3,9.4v4.9h-7.5v-5.4c0-1.8-0.4-3.1-1.1-3.9
		c-0.7-0.7-1.7-1.1-3-1.1c-1.2,0-2.2,0.4-3,1.1c-0.7,0.7-1.1,2-1.1,3.9v27.2c0,1.8,0.4,3.1,1.1,3.8c0.7,0.7,1.7,1.1,3,1.1
		c1.2,0,2.2-0.4,3-1.1c0.7-0.7,1.1-2,1.1-3.8v-9.3h-3.6V326.2z"/>
	<path class="st4" d="M167,354.3c-0.1-0.3-0.2-0.6-0.3-0.9s-0.2-0.6-0.3-1.1c-0.1-0.4-0.1-1-0.1-1.7s0-1.5,0-2.5v-7.9
		c0-2.4-0.4-4-1.2-5s-2.1-1.4-4-1.4h-2.7v20.5h-7.9v-50.4h12c4.1,0,7.1,1,9,2.9c1.8,1.9,2.8,4.8,2.8,8.7v4c0,5.2-1.7,8.6-5.2,10.2
		c2,0.8,3.4,2.1,4.1,4c0.7,1.8,1.1,4.1,1.1,6.7v7.8c0,1.2,0,2.3,0.1,3.3c0.1,0.9,0.3,1.9,0.7,2.8H167z M158.4,311.1v15.5h3.1
		c1.5,0,2.7-0.4,3.5-1.2c0.8-0.8,1.3-2.2,1.3-4.2v-5c0-1.8-0.3-3.1-1-4c-0.6-0.8-1.7-1.2-3.1-1.2h-3.8V311.1z"/>
	<path class="st4" d="M187.3,325.1h10.9v7.2h-10.9v14.8H201v7.2h-21.6v-50.4H201v7.2h-13.7V325.1z"/>
	<path class="st4" d="M204.9,316c0-4.1,1-7.2,2.9-9.4c1.9-2.2,4.9-3.3,8.7-3.3c3.9,0,6.8,1.1,8.7,3.3c1.9,2.2,2.9,5.3,2.9,9.4v1.6
		h-7.5v-2.1c0-1.8-0.3-3.1-1-3.9c-0.7-0.7-1.7-1.1-2.9-1.1s-2.2,0.4-2.9,1.1s-1,2-1,3.9c0,1.7,0.4,3.3,1.2,4.6
		c0.8,1.3,1.7,2.6,2.9,3.7c1.2,1.2,2.4,2.4,3.7,3.5c1.3,1.2,2.6,2.5,3.7,3.9c1.2,1.4,2.1,3,2.9,4.8c0.8,1.8,1.2,3.9,1.2,6.3
		c0,4.1-1,7.2-3,9.4c-2,2.2-4.9,3.3-8.8,3.3c-3.9,0-6.8-1.1-8.8-3.3c-2-2.2-3-5.3-3-9.4v-3.1h7.5v3.6c0,1.8,0.4,3.1,1.1,3.8
		c0.7,0.7,1.7,1.1,3,1.1c1.2,0,2.2-0.4,3-1.1c0.7-0.7,1.1-2,1.1-3.8c0-1.7-0.4-3.3-1.2-4.6c-0.8-1.3-1.7-2.6-2.9-3.7
		c-1.2-1.2-2.4-2.4-3.7-3.5c-1.3-1.2-2.6-2.5-3.7-3.9c-1.2-1.4-2.1-3-2.9-4.8S204.9,318.4,204.9,316z"/>
	<path class="st4" d="M232.2,316c0-4.1,1-7.2,3.1-9.4c2.1-2.2,5-3.3,8.9-3.3s6.9,1.1,8.9,3.3c2.1,2.2,3.1,5.3,3.1,9.4v26.2
		c0,2.8-0.5,5.2-1.5,7.1c0.2,0.5,0.4,0.8,0.8,0.9c0.3,0.1,0.8,0.2,1.5,0.2h0.7v7.1h-1.1c-1.8,0-3.2-0.3-4.4-0.9
		c-1.1-0.6-2-1.5-2.5-2.6c-0.8,0.3-1.7,0.5-2.6,0.7c-0.9,0.2-1.9,0.3-3,0.3c-3.9,0-6.9-1.1-8.9-3.3c-2.1-2.2-3.1-5.3-3.1-9.4
		L232.2,316L232.2,316z M240.1,342.7c0,1.8,0.4,3.1,1.1,3.9c0.7,0.7,1.7,1.1,3,1.1c1.2,0,2.2-0.4,3-1.1c0.7-0.7,1.1-2,1.1-3.9v-27.2
		c0-1.8-0.4-3.1-1.1-3.9c-0.7-0.7-1.7-1.1-3-1.1c-1.2,0-2.2,0.4-3,1.1c-0.7,0.7-1.1,2-1.1,3.9V342.7z"/>
	<path class="st4" d="M261.4,303.9h7.9v43.2h13v7.2h-21v-50.4L261.4,303.9L261.4,303.9z"/>
</g>
<g>
	<path class="st2" d="M576.7,316c0-4.1,1-7.2,2.9-9.4c1.9-2.2,4.9-3.3,8.7-3.3s6.8,1.1,8.7,3.3c1.9,2.2,2.9,5.3,2.9,9.4v1.6h-7.5
		v-2.1c0-1.8-0.3-3.1-1-3.9c-0.7-0.7-1.7-1.1-2.9-1.1s-2.2,0.4-2.9,1.1s-1,2-1,3.9c0,1.7,0.4,3.3,1.2,4.6c0.8,1.3,1.7,2.6,2.9,3.7
		c1.2,1.2,2.4,2.4,3.7,3.5c1.3,1.2,2.6,2.5,3.7,3.9c1.2,1.4,2.1,3,2.9,4.8c0.8,1.8,1.2,3.9,1.2,6.3c0,4.1-1,7.2-3,9.4
		c-2,2.2-4.9,3.3-8.8,3.3c-3.9,0-6.8-1.1-8.8-3.3c-2-2.2-3-5.3-3-9.4v-3.1h7.5v3.6c0,1.8,0.4,3.1,1.1,3.8c0.7,0.7,1.7,1.1,3,1.1
		c1.2,0,2.2-0.4,3-1.1c0.7-0.7,1.1-2,1.1-3.8c0-1.7-0.4-3.3-1.2-4.6c-0.8-1.3-1.7-2.6-2.9-3.7c-1.2-1.2-2.4-2.4-3.7-3.5
		c-1.3-1.2-2.6-2.5-3.7-3.9c-1.2-1.4-2.1-3-2.9-4.8C577,320.5,576.7,318.4,576.7,316z"/>
	<path class="st2" d="M604,316c0-4.1,1-7.2,3.1-9.4c2.1-2.2,5-3.3,8.9-3.3s6.9,1.1,8.9,3.3c2.1,2.2,3.1,5.3,3.1,9.4v26.2
		c0,2.8-0.5,5.2-1.5,7.1c0.2,0.5,0.4,0.8,0.8,0.9c0.3,0.1,0.8,0.2,1.5,0.2h0.7v7.1h-1.1c-1.8,0-3.2-0.3-4.4-0.9
		c-1.1-0.6-2-1.5-2.5-2.6c-0.8,0.3-1.7,0.5-2.6,0.7c-0.9,0.2-1.9,0.3-3,0.3c-3.9,0-6.9-1.1-8.9-3.3c-2.1-2.2-3.1-5.3-3.1-9.4
		L604,316L604,316z M611.9,342.7c0,1.8,0.4,3.1,1.1,3.9c0.7,0.7,1.7,1.1,3,1.1c1.2,0,2.2-0.4,3-1.1c0.7-0.7,1.1-2,1.1-3.9v-27.2
		c0-1.8-0.4-3.1-1.1-3.9c-0.7-0.7-1.7-1.1-3-1.1c-1.2,0-2.2,0.4-3,1.1c-0.7,0.7-1.1,2-1.1,3.9V342.7z"/>
	<path class="st2" d="M633.1,303.9h7.9v43.2h13v7.2h-21L633.1,303.9L633.1,303.9z"/>
	<path class="st2" d="M657.5,303.9h7.9v50.4h-7.9V303.9z"/>
	<path class="st2" d="M668.9,303.9h24.5v7.2h-8.3v43.2h-7.9v-43.2h-8.3V303.9z"/>
	<path class="st2" d="M704.8,325.1h10.9v7.2h-10.9v14.8h13.7v7.2h-21.6v-50.4h21.6v7.2h-13.7V325.1z"/>
</g>
<g>
	<path class="st0" d="M525.2,600c0-4.1,1-7.2,2.9-9.4s4.9-3.3,8.7-3.3s6.8,1.1,8.7,3.3s2.9,5.3,2.9,9.4v1.6h-7.5v-2.1
		c0-1.8-0.3-3.1-1-3.9c-0.7-0.7-1.7-1.1-2.9-1.1s-2.2,0.4-2.9,1.1c-0.7,0.7-1,2-1,3.9c0,1.7,0.4,3.3,1.2,4.6s1.7,2.6,2.9,3.7
		c1.2,1.2,2.4,2.4,3.7,3.5c1.3,1.2,2.6,2.5,3.7,3.9c1.2,1.4,2.1,3,2.9,4.8c0.8,1.8,1.2,3.9,1.2,6.3c0,4.1-1,7.2-3,9.4
		s-4.9,3.3-8.8,3.3c-3.9,0-6.8-1.1-8.8-3.3s-3-5.3-3-9.4v-3.1h7.5v3.6c0,1.8,0.4,3.1,1.1,3.8c0.7,0.7,1.7,1.1,3,1.1
		c1.2,0,2.2-0.4,3-1.1c0.7-0.7,1.1-2,1.1-3.8c0-1.7-0.4-3.3-1.2-4.6s-1.7-2.6-2.9-3.7c-1.2-1.2-2.4-2.4-3.7-3.5
		c-1.3-1.2-2.6-2.5-3.7-3.9c-1.2-1.4-2.1-3-2.9-4.8S525.2,602.4,525.2,600z"/>
	<path class="st0" d="M552.5,600c0-4.1,1-7.2,3.1-9.4s5-3.3,8.9-3.3s6.9,1.1,8.9,3.3c2.1,2.2,3.1,5.3,3.1,9.4v26.2
		c0,2.8-0.5,5.2-1.5,7.1c0.2,0.5,0.4,0.8,0.8,0.9c0.3,0.1,0.8,0.2,1.5,0.2h0.7v7.1h-1.1c-1.8,0-3.2-0.3-4.4-0.9
		c-1.1-0.6-2-1.5-2.5-2.6c-0.8,0.3-1.7,0.5-2.6,0.7c-0.9,0.2-1.9,0.3-3,0.3c-3.9,0-6.9-1.1-8.9-3.3c-2.1-2.2-3.1-5.3-3.1-9.4
		L552.5,600L552.5,600z M560.4,626.7c0,1.8,0.4,3.1,1.1,3.9c0.7,0.7,1.7,1.1,3,1.1c1.2,0,2.2-0.4,3-1.1c0.7-0.7,1.1-2,1.1-3.9v-27.2
		c0-1.8-0.4-3.1-1.1-3.9c-0.7-0.7-1.7-1.1-3-1.1c-1.2,0-2.2,0.4-3,1.1c-0.7,0.7-1.1,2-1.1,3.9V626.7z"/>
	<path class="st0" d="M581.7,587.9h7.9v43.2h13v7.2h-21L581.7,587.9L581.7,587.9z"/>
	<path class="st0" d="M616.2,600c0-4.1,1-7.2,2.9-9.4s4.9-3.3,8.7-3.3c3.9,0,6.8,1.1,8.7,3.3s2.9,5.3,2.9,9.4v1.6h-7.5v-2.1
		c0-1.8-0.3-3.1-1-3.9c-0.7-0.7-1.7-1.1-2.9-1.1s-2.2,0.4-2.9,1.1c-0.7,0.7-1,2-1,3.9c0,1.7,0.4,3.3,1.2,4.6s1.7,2.6,2.9,3.7
		c1.2,1.2,2.4,2.4,3.7,3.5c1.3,1.2,2.6,2.5,3.7,3.9c1.2,1.4,2.1,3,2.9,4.8c0.8,1.8,1.2,3.9,1.2,6.3c0,4.1-1,7.2-3,9.4
		s-4.9,3.3-8.8,3.3s-6.8-1.1-8.8-3.3s-3-5.3-3-9.4v-3.1h7.5v3.6c0,1.8,0.4,3.1,1.1,3.8c0.7,0.7,1.7,1.1,3,1.1c1.2,0,2.2-0.4,3-1.1
		c0.7-0.7,1.1-2,1.1-3.8c0-1.7-0.4-3.3-1.2-4.6s-1.7-2.6-2.9-3.7c-1.2-1.2-2.4-2.4-3.7-3.5c-1.3-1.2-2.6-2.5-3.7-3.9
		c-1.2-1.4-2.1-3-2.9-4.8S616.2,602.4,616.2,600z"/>
	<path class="st0" d="M652.1,609.1H663v7.2h-10.9v14.8h13.7v7.2h-21.6v-50.4h21.6v7.2h-13.7V609.1z"/>
	<path class="st0" d="M687.2,638.3c-0.1-0.3-0.2-0.6-0.3-0.9c-0.1-0.3-0.2-0.6-0.3-1.1c-0.1-0.4-0.1-1-0.1-1.7s0-1.5,0-2.5v-7.9
		c0-2.4-0.4-4-1.2-5s-2.1-1.4-4-1.4h-2.7v20.5h-7.9v-50.4h12c4.1,0,7.1,1,9,2.9s2.8,4.8,2.8,8.7v4c0,5.2-1.7,8.6-5.2,10.2
		c2,0.8,3.4,2.1,4.1,4c0.7,1.8,1.1,4.1,1.1,6.7v7.8c0,1.2,0,2.3,0.1,3.3c0.1,0.9,0.3,1.9,0.7,2.8L687.2,638.3L687.2,638.3z
		 M678.6,595.1v15.5h3.1c1.5,0,2.7-0.4,3.5-1.2s1.3-2.2,1.3-4.2v-5c0-1.8-0.3-3.1-1-4c-0.6-0.8-1.7-1.2-3.1-1.2h-3.8V595.1z"/>
	<path class="st0" d="M711.4,629l6-41.1h7.3l-7.8,50.4h-11.8l-7.8-50.4h8L711.4,629z"/>
	<path class="st0" d="M736.3,609.1h10.9v7.2h-10.9v14.8H750v7.2h-21.6v-50.4H750v7.2h-13.7V609.1z"/>
	<path class="st0" d="M771.5,638.3c-0.1-0.3-0.2-0.6-0.3-0.9c-0.1-0.3-0.2-0.6-0.3-1.1c-0.1-0.4-0.1-1-0.1-1.7s0-1.5,0-2.5v-7.9
		c0-2.4-0.4-4-1.2-5s-2.1-1.4-4-1.4h-2.7v20.5H755v-50.4h12c4.1,0,7.1,1,9,2.9c1.8,1.9,2.8,4.8,2.8,8.7v4c0,5.2-1.7,8.6-5.2,10.2
		c2,0.8,3.4,2.1,4.1,4c0.7,1.8,1.1,4.1,1.1,6.7v7.8c0,1.2,0,2.3,0.1,3.3c0.1,0.9,0.3,1.9,0.7,2.8L771.5,638.3L771.5,638.3z
		 M762.8,595.1v15.5h3.1c1.5,0,2.7-0.4,3.5-1.2s1.3-2.2,1.3-4.2v-5c0-1.8-0.3-3.1-1-4s-1.7-1.2-3.1-1.2h-3.8V595.1z"/>
</g>
<line class="st6" x1="539.5" y1="320.4" x2="419.7" y2="221.4"/>
<line class="st6" x1="420.1" y1="222.1" x2="300.4" y2="321.1"/>
<line class="st6" x1="418.4" y1="416.2" x2="300.4" y2="321.7"/>
<line class="st6" x1="418.4" y1="416.2" x2="538.7" y2="319.8"/>
<line class="st7" x1="525.1" y1="321" x2="420.6" y2="240.3"/>
<line class="st7" x1="421" y1="240.9" x2="316.5" y2="321.5"/>
<line class="st7" x1="419.5" y1="399" x2="316.5" y2="322"/>
<line class="st7" x1="419.5" y1="399" x2="524.4" y2="320.5"/>
<line class="st8" x1="491.4" y1="319.7" x2="418.8" y2="263.1"/>
<line class="st8" x1="419.1" y1="263.5" x2="346.5" y2="320.1"/>
<line class="st8" x1="418" y1="374.5" x2="346.5" y2="320.4"/>
<line class="st8" x1="418" y1="374.5" x2="490.9" y2="319.4"/>
</svg>
