<?xml version="1.0" encoding="utf-8"?>
<!-- Generator: Adobe Illustrator 22.0.0, SVG Export Plug-In . SVG Version: 6.00 Build 0)  -->
<svg version="1.1" xmlns="http://www.w3.org/2000/svg" xmlns:xlink="http://www.w3.org/1999/xlink" x="0px" y="0px"
	 viewBox="0 0 800 666" style="enable-background:new 0 0 800 666;" xml:space="preserve">
<style type="text/css">
	.st0{fill:#FCCA6E;}
	.st1{fill:#FEFEFE;}
	.st2{fill:#FDEFD5;}
	.st3{fill:#FDE7BF;}
	.st4{fill:none;}
	.st5{fill:#D63031;}
	.st6{fill:#0984E3;}
	.st7{fill:#FDCB6E;}
	.st8{fill:#0983E2;}
	.st9{fill:#D53031;}
</style>
<g id="загружено__x28_1_x29__xA0_Image_5_">
	<g>
		<path class="st0" d="M561.3,428.9c0-3.3,0-6.7,0-10c1-8.2,6-13.8,12.6-18.2c16.8-11.4,35.6-17,55.8-17.8
			c5.3-0.2,10.6-0.8,15.9-0.5c2.2,0,4.4,0,6.7,0c1.7,0,3.4,0,5,0c2.2,0,4.4,0,6.7,0c17.2,0.1,34.2,0.9,50.5,7.4
			c7.5,3,14.7,6.3,21.3,10.9c6.5,4.5,11.5,10,12.6,18.2c0,3.3,0,6.7,0,10c-1.1,11.5-9.4,17.4-18.3,22.5
			c-14.1,8.1-29.4,12.2-45.4,14.4c-12.4,1.8-24.8,2.8-37.3,2.1c-23.2-1.3-46-4.5-66.8-16c-4.1-2.3-7.9-5-11.5-8
			C564.3,440.1,562.2,434.8,561.3,428.9z"/>
		<path class="st0" d="M561.3,515.9c0-10.7,0-21.3,0-32c2.1-0.5,3.2,1,3.9,2.4c6,11.2,16.6,16.7,27.5,21.2
			c16.6,6.8,34.1,9.9,52,10.4c18.7,0.5,37.3-0.1,55.5-4.9c11.2-3,21.9-6.8,31.6-13.3c4.9-3.3,9.2-7.2,12-12.5
			c0.9-1.7,1.9-3.7,4.5-3.2c0,10.7,0,21.3,0,32c-1.9,12.7-11.5,18.6-21.4,23.7c-19.7,10.2-41.1,13.9-63.1,14.5
			c-20.4,0.5-40.5-0.4-60.2-6.2c-10.9-3.2-21.4-7.4-30.6-14.3C567,529.1,562.1,523.9,561.3,515.9z"/>
		<path class="st0" d="M748.3,526.9c0,10.7,0,21.3,0,32c-1.3,12.2-10.5,17.9-19.8,23.1c-14.4,8-29.9,12.3-46.5,13
			c-4.6,0.2-11.2-0.1-15.8,0.9c-9.3,0-11.2,0-20.5,0c-6.4-0.9-18.3-0.7-24.7-1.5c-18.6-2.2-35.9-7.8-50.7-19.7
			c-5.2-4.1-8.4-9.2-9.1-15.8c0-10.7,0-21.3,0-32c2.1-0.4,2.9,1.3,3.8,2.6c6,10,15.2,16.1,25.7,20.4c16.5,6.8,33.7,9.7,51.4,11.1
			c20.1,1.6,39.8-0.4,59.2-5.3c13.2-3.3,26.1-7.9,36.4-17.7c2.5-2.4,4.6-5.2,6.6-8.1C745.3,528.5,745.9,526.5,748.3,526.9z"/>
		<path class="st0" d="M561.3,471.9c0-10.3,0-20.7,0-31c2.1-0.5,3.2,1,4,2.3c7,12.3,18.8,18,31.3,22.5c16.7,6.1,34.1,8.6,51.8,9.1
			c21.3,0.6,42.1-1.5,62.4-8.2c8.6-2.8,16.6-6.7,23.9-12.2c3.6-2.8,6.6-6.1,8.9-9.9c1.1-1.8,2-4,4.8-3.6c0,10.3,0,20.7,0,31
			c-0.8,10.3-7.7,16.1-15.5,21.1c-13.3,8.6-28.1,12.9-43.5,15.3c-31.8,5-63.3,4.1-94.1-6.4c-7.3-2.5-14.1-5.9-20.5-10.3
			C567.7,486.9,561.9,481.1,561.3,471.9z"/>
		<path class="st1" d="M748.3,440.9c-9.6,18.9-27.5,25.7-46.2,30.4c-34.5,8.7-69.1,8.1-103.2-2.4c-3.5-1.1-6.9-2.5-10.2-3.9
			c-11.7-5-21.6-12.2-27.4-24c0-4,0-8,0-12c5.4,13.4,16.7,20.3,29.1,25.5c15.6,6.6,32.1,9.4,48.9,10.8c25.2,2,49.8-0.4,73.8-8.4
			c6.5-2.2,12.6-5.2,18.4-8.7c7.6-4.6,13.3-10.9,16.7-19.2C748.3,432.9,748.3,436.9,748.3,440.9z"/>
		<path class="st1" d="M748.3,526.9c-7.4,16.3-21.9,23.6-37.8,28.4c-39.5,12-79,11.7-118-2.4c-3.6-1.3-7.1-3-10.4-4.8
			c-9.2-4.9-16.5-11.6-20.8-21.3c0-3.7,0-7.3,0-11c7.6,16.2,22.1,23.5,38,28.2c40.2,12,80.3,11.8,119.8-3.3
			c12.6-4.8,23.3-12.2,29.1-25C748.3,519.6,748.3,523.2,748.3,526.9z"/>
		<path class="st1" d="M561.3,471.9c5.3,14,17,20.8,29.9,26c20.9,8.6,42.9,11.2,65.4,11.1c20.9-0.1,41.4-2.9,61-10.7
			c4.8-1.9,9.4-4.3,13.8-6.9c7.8-4.6,13.7-10.9,17-19.5c0,4,0,8,0,12c-9.2,18.5-26.4,25.5-44.7,30.2c-37.5,9.6-74.8,9-111.4-4.5
			c-13.2-4.9-24.7-12.3-30.9-25.7C561.3,479.9,561.3,475.9,561.3,471.9z"/>
		<path class="st1" d="M645.3,382.8c-18.9,0.7-37.3,3.9-54.9,11.2c-12.4,5.1-23.2,12.2-29.1,24.9c0-11.3,0.1-22.7-0.1-34
			c0-2.5,0.6-3.1,3.1-3.1c27,0.1,54,0.1,81,0.1C646,382.2,646,382.5,645.3,382.8z"/>
		<path class="st1" d="M748.3,418.9c-8.8-18.1-25.7-24.6-43.2-29.8c-13.2-4-26.9-5.9-40.7-6.3c-0.7-0.2-0.7-0.5-0.1-0.9
			c26.7,0,53.4,0,80.2-0.1c2.9,0,4,0.3,3.9,3.7C748.2,396.7,748.3,407.8,748.3,418.9z"/>
		<path class="st1" d="M668.3,595.9c6.6-1.9,13.6-1.7,20.4-3c15-2.9,29.7-6.9,42.8-15c7.5-4.6,13.3-10.8,16.8-19
			c0,11.3-0.1,22.7,0.1,34c0,2.5-0.6,3.1-3.1,3.1C719.7,595.9,694,595.9,668.3,595.9z"/>
		<path class="st1" d="M561.3,558.9c6.9,15.7,20.8,22.5,35.6,27.8c13.3,4.8,27.1,7.3,41.2,8.2c0.8,0.1,1.7,0.1,2.1,1
			c-25.1,0-50.1,0-75.2,0.1c-2.9,0-4-0.4-3.9-3.7C561.5,581.1,561.3,570,561.3,558.9z"/>
		<path class="st2" d="M645.3,382.8c0-0.3,0-0.6,0.1-0.9c2.3,0,4.7,0,7,0c0.7,0.3,0.7,0.6,0,0.9C650,382.8,647.6,382.8,645.3,382.8z
			"/>
		<path class="st2" d="M664.3,381.9c0,0.3,0,0.6,0.1,0.9c-2.3,0-4.7,0-7,0c-0.7-0.3-0.7-0.6,0-0.9
			C659.7,381.9,662,381.9,664.3,381.9z"/>
		<path class="st3" d="M657.3,381.9c0,0.3,0,0.6,0,0.9c-1.7,0-3.4,0-5.1,0c0-0.3,0-0.6,0-0.9C654,381.9,655.7,381.9,657.3,381.9z"/>
	</g>
	<rect x="545" y="386" class="st4" width="187" height="214"/>
	<g>
		<g>
			<path class="st5" d="M551.8,124c0-3.3,0-6.7,0-10c1-8.2,6-13.8,12.6-18.2c16.8-11.4,35.6-17,55.8-17.8c5.3-0.2,10.6-0.8,15.9-0.5
				c2.2,0,4.4,0,6.7,0c1.7,0,3.4,0,5,0c2.2,0,4.4,0,6.7,0c17.2,0.1,34.2,0.9,50.5,7.4c7.5,3,14.7,6.3,21.3,10.9
				c6.5,4.5,11.5,10,12.6,18.2c0,3.3,0,6.7,0,10c-1.1,11.5-9.4,17.4-18.3,22.5c-14.1,8.1-29.4,12.2-45.4,14.4
				c-12.4,1.8-24.8,2.8-37.3,2.1c-23.2-1.3-46-4.5-66.8-16c-4.1-2.3-7.9-5-11.5-8C554.8,135.2,552.7,129.9,551.8,124z"/>
			<path class="st5" d="M551.8,211c0-10.7,0-21.3,0-32c2.1-0.5,3.2,1,3.9,2.4c6,11.2,16.6,16.7,27.5,21.2c16.6,6.8,34.1,9.9,52,10.4
				c18.7,0.5,37.3-0.1,55.5-4.9c11.2-3,21.9-6.8,31.6-13.3c4.9-3.3,9.2-7.2,12-12.5c0.9-1.7,1.9-3.7,4.5-3.2c0,10.7,0,21.3,0,32
				c-1.9,12.7-11.5,18.6-21.4,23.7c-19.7,10.2-41.1,13.9-63.1,14.5c-20.4,0.5-40.5-0.4-60.2-6.2c-10.9-3.2-21.4-7.4-30.6-14.3
				C557.5,224.3,552.5,219,551.8,211z"/>
			<path class="st5" d="M739.4,221.3c0,10.7,0,21.3,0,32c-1.3,12.2-10.5,17.9-19.8,23.1c-14.4,8-29.9,12.3-46.5,13
				c-4.6,0.2-9.2-0.1-13.8,0.9c-9.3,0-18.7,0-28,0c-6.4-0.9-12.8-0.7-19.2-1.5c-18.6-2.2-35.9-7.8-50.7-19.7
				c-5.2-4.1-8.4-9.2-9.1-15.8c0-10.7,0-21.3,0-32c2.1-0.4,2.9,1.3,3.8,2.6c6,10,15.2,16.1,25.7,20.4c16.5,6.8,33.7,9.7,51.4,11.1
				c20.1,1.6,39.8-0.4,59.2-5.3c13.2-3.3,26.1-7.9,36.4-17.7c2.5-2.4,4.6-5.2,6.6-8.1C736.3,222.8,737,220.9,739.4,221.3z"/>
			<path class="st5" d="M551.8,167c0-10.3,0-20.7,0-31c2.1-0.5,3.2,1,4,2.3c7,12.3,18.8,18,31.3,22.5c16.7,6.1,34.1,8.6,51.8,9.1
				c21.3,0.6,42.1-1.5,62.4-8.2c8.6-2.8,16.6-6.7,23.9-12.2c3.6-2.8,6.6-6.1,8.9-9.9c1.1-1.8,2-4,4.8-3.6c0,10.3,0,20.7,0,31
				c-0.8,10.3-7.7,16.1-15.5,21.1c-13.3,8.6-28.1,12.9-43.5,15.3c-31.8,5-63.3,4.1-94.1-6.4c-7.3-2.5-14.1-5.9-20.5-10.3
				C558.1,182,552.4,176.3,551.8,167z"/>
			<path class="st1" d="M738.8,136c-9.6,18.9-27.5,25.7-46.2,30.4c-34.5,8.7-69.1,8.1-103.2-2.4c-3.5-1.1-6.9-2.5-10.2-3.9
				c-11.7-5-21.6-12.2-27.4-24c0-4,0-8,0-12c5.4,13.4,16.7,20.3,29.1,25.5c15.6,6.6,32.1,9.4,48.9,10.8c25.2,2,49.8-0.4,73.8-8.4
				c6.5-2.2,12.6-5.2,18.4-8.7c7.6-4.6,13.3-10.9,16.7-19.2C738.8,128,738.8,132,738.8,136z"/>
		</g>
		<path class="st1" d="M738.8,222c-7.4,16.3-21.9,23.6-37.8,28.4c-39.5,12-79,11.7-118-2.4c-3.6-1.3-7.1-3-10.4-4.8
			c-9.2-4.9-16.5-11.6-20.8-21.3c0-3.7,0-7.3,0-11c7.6,16.2,22.1,23.5,38,28.2c40.2,12,80.3,11.8,119.8-3.3
			c12.6-4.8,23.3-12.2,29.1-25C738.8,214.7,738.8,218.4,738.8,222z"/>
		<path class="st1" d="M551.8,167c5.3,14,17,20.8,29.9,26c20.9,8.6,42.9,11.2,65.4,11.1c20.9-0.1,41.4-2.9,61-10.7
			c4.8-1.9,9.4-4.3,13.8-6.9c7.8-4.6,13.7-10.9,17-19.5c0,4,0,8,0,12c-9.2,18.5-26.4,25.5-44.7,30.2c-37.5,9.6-74.8,9-111.4-4.5
			c-13.2-4.9-24.7-12.3-30.9-25.7C551.8,175,551.8,171,551.8,167z"/>
		<path class="st1" d="M635.7,77.9c-18.9,0.7-37.3,3.9-54.9,11.2c-12.4,5.1-23.2,12.2-29.1,24.9c0-11.3,0.1-22.7-0.1-34
			c0-2.5,0.6-3.1,3.1-3.1c27,0.1,54,0.1,81,0.1C636.5,77.4,636.4,77.7,635.7,77.9z"/>
		<path class="st1" d="M738.8,114C730,96,713.1,89.5,695.6,84.2c-13.2-4-26.9-5.9-40.7-6.3c-0.7-0.2-0.7-0.5-0.1-0.9
			c26.7,0,53.4,0,80.2-0.1c2.9,0,4,0.3,3.9,3.7C738.6,91.8,738.8,102.9,738.8,114z"/>
		<path class="st1" d="M658.8,291c6.6-1.9,13.6-1.7,20.4-3c15-2.9,29.7-6.9,42.8-15c7.5-4.6,13.3-10.8,16.8-19
			c0,11.3-0.1,22.7,0.1,34c0,2.5-0.6,3.1-3.1,3.1C710.1,291,684.4,291,658.8,291z"/>
		<path class="st1" d="M551.8,254c6.9,15.7,20.8,22.5,35.6,27.8c13.3,4.8,27.1,7.3,41.2,8.2c0.8,0.1,1.7,0.1,2.1,1
			c-25.1,0-50.1,0-75.2,0.1c-2.9,0-4-0.4-3.9-3.7C551.9,276.3,551.8,265.2,551.8,254z"/>
		<path class="st2" d="M635.7,77.9c0-0.3,0-0.6,0.1-0.9c2.3,0,4.7,0,7,0c0.7,0.3,0.7,0.6,0,0.9C640.4,77.9,638.1,77.9,635.7,77.9z"
			/>
		<path class="st2" d="M654.8,77c0,0.3,0,0.6,0.1,0.9c-2.3,0-4.7,0-7,0c-0.7-0.3-0.7-0.6,0-0.9C650.1,77,652.4,77,654.8,77z"/>
		<path class="st3" d="M647.8,77c0,0.3,0,0.6,0,0.9c-1.7,0-3.4,0-5.1,0c0-0.3,0-0.6,0-0.9C644.4,77,646.1,77,647.8,77z"/>
	</g>
	<g>
		<path class="st6" d="M37,277c0-3.3,0-6.7,0.1-10c1.1-8.2,6.1-13.7,12.7-18.1c16.9-11.3,35.7-16.8,55.9-17.4
			c5.3-0.2,10.6-0.8,15.9-0.4c2.2,0,4.4,0,6.7,0c1.7,0,3.4,0,5,0c2.2,0,4.4,0,6.7,0c17.2,0.2,34.2,1.2,50.5,7.7
			c7.5,3,14.6,6.4,21.2,11c6.4,4.6,11.5,10.1,12.5,18.3c0,3.3,0,6.7-0.1,10c-1.2,11.5-9.5,17.3-18.5,22.4c-14.1,8-29.5,12-45.5,14.1
			c-12.4,1.7-24.8,2.6-37.3,1.8c-23.2-1.4-46-4.8-66.7-16.4c-4.1-2.3-7.8-5-11.4-8C40,288.2,37.9,282.9,37,277z"/>
		<path class="st6" d="M36.2,363.5c0.1-10.7,0.1-21.3,0.2-32c2.1-0.5,3.2,1,3.9,2.4c5.9,11.3,16.5,16.8,27.4,21.3
			c16.6,6.9,34,10.1,52,10.7c18.7,0.6,37.3,0.1,55.5-4.6c11.2-2.9,22-6.7,31.7-13.1c4.9-3.2,9.2-7.1,12.1-12.4
			c0.9-1.7,1.9-3.7,4.5-3.2c-0.1,10.7-0.1,21.3-0.2,32c-1.9,12.6-11.6,18.5-21.6,23.6c-19.8,10.1-41.1,13.6-63.2,14.1
			c-20.4,0.4-40.5-0.7-60.2-6.5c-10.9-3.3-21.3-7.6-30.5-14.5C41.8,376.8,36.9,371.5,36.2,363.5z"/>
		<path class="st6" d="M222.3,374.8c-0.1,10.7-0.1,21.3-0.2,32c-1.4,12.2-10.6,17.9-19.9,23c-14.4,7.9-30,12.1-46.6,12.7
			c-4.6,0.2-9.2-0.1-13.8,0.8c-9.3-0.1-18.7-0.1-28-0.2c-6.4-1-12.8-0.8-19.2-1.6c-18.6-2.3-35.8-8-50.6-20c-5.1-4.2-8.3-9.2-9-15.8
			c0.1-10.7,0.1-21.3,0.2-32c2.1-0.4,2.9,1.3,3.7,2.7c6,10,15.1,16.2,25.6,20.6c16.4,6.9,33.6,9.9,51.3,11.5
			c20.1,1.7,39.8-0.2,59.3-4.9c13.3-3.3,26.2-7.7,36.5-17.5c2.6-2.4,4.7-5.2,6.6-8.1C219.3,376.3,219.9,374.4,222.3,374.8z"/>
		<path class="st6" d="M36.5,319.5c0.1-10.3,0.1-20.7,0.2-31c2.1-0.5,3.2,1,3.9,2.4c6.9,12.3,18.7,18.1,31.1,22.7
			c16.6,6.2,34,8.8,51.7,9.4c21.3,0.7,42.2-1.3,62.5-7.8c8.6-2.8,16.7-6.6,23.9-12c3.7-2.8,6.6-6,9-9.9c1.1-1.8,2-3.9,4.8-3.6
			c-0.1,10.3-0.1,20.7-0.2,31c-0.8,10.3-7.8,16-15.7,21c-13.3,8.5-28.2,12.7-43.6,15c-31.8,4.8-63.3,3.7-94-7
			c-7.3-2.5-14.1-6-20.4-10.4C42.8,334.5,37,328.7,36.5,319.5z"/>
		<path class="st1" d="M223.7,289.7c-9.8,18.8-27.6,25.5-46.4,30.1c-34.6,8.5-69.1,7.6-103.2-3.1c-3.5-1.1-6.8-2.5-10.2-4
			c-11.7-5.1-21.5-12.3-27.2-24.2c0-4,0.1-8,0.1-12c5.3,13.5,16.6,20.4,29,25.7c15.6,6.7,32,9.6,48.8,11.1
			c25.2,2.2,49.8-0.1,73.8-7.9c6.5-2.1,12.6-5.1,18.5-8.6c7.7-4.6,13.4-10.8,16.9-19C223.7,281.7,223.7,285.7,223.7,289.7z"/>
		<path class="st1" d="M223.1,375.7c-7.5,16.3-22.1,23.5-37.9,28.2c-39.6,11.7-79,11.2-118-3.1c-3.6-1.3-7-3-10.4-4.8
			c-9.1-4.9-16.4-11.7-20.6-21.4c0-3.7,0-7.3,0.1-11c7.5,16.2,22,23.6,37.8,28.5c40.1,12.2,80.2,12.3,119.9-2.5
			c12.6-4.7,23.3-12,29.3-24.8C223.2,368.4,223.2,372,223.1,375.7z"/>
		<path class="st1" d="M36.5,319.5c5.2,14,16.9,20.9,29.7,26.2c20.9,8.8,42.9,11.5,65.3,11.5c20.9,0,41.4-2.6,61-10.3
			c4.8-1.9,9.4-4.2,13.8-6.8c7.8-4.5,13.8-10.8,17.1-19.4c0,4-0.1,8-0.1,12c-9.3,18.5-26.6,25.3-44.9,29.9
			c-37.5,9.3-74.8,8.5-111.4-5.2C54,352.5,42.6,345,36.4,331.5C36.4,327.5,36.5,323.5,36.5,319.5z"/>
		<path class="st1" d="M121,230.9c-18.9,0.6-37.3,3.7-54.9,10.9c-12.4,5.1-23.3,12-29.2,24.8c0.1-11.3,0.2-22.7,0.1-34
			c0-2.5,0.6-3.1,3.1-3c27,0.3,54,0.4,81,0.6C121.7,230.4,121.7,230.7,121,230.9z"/>
		<path class="st1" d="M223.8,267.7c-8.7-18.1-25.5-24.7-43-30.1c-13.2-4.1-26.9-6.1-40.7-6.6c-0.7-0.2-0.7-0.5-0.1-0.9
			c26.7,0.2,53.4,0.4,80.2,0.4c2.9,0,4,0.4,3.9,3.7C223.8,245.4,223.9,256.6,223.8,267.7z"/>
		<path class="st1" d="M142.7,444.2c6.7-1.9,13.6-1.6,20.4-2.8c15.1-2.8,29.7-6.7,42.9-14.8c7.5-4.6,13.4-10.7,16.9-18.9
			c-0.1,11.3-0.2,22.7-0.1,34c0,2.5-0.6,3.1-3.1,3C194,444.5,168.4,444.3,142.7,444.2z"/>
		<path class="st1" d="M35.9,406.5c6.8,15.7,20.6,22.6,35.5,28.1c13.3,4.9,27.1,7.5,41.2,8.5c0.8,0.1,1.7,0.1,2.1,1
			c-25.1-0.2-50.1-0.4-75.2-0.4c-2.9,0-4-0.4-3.9-3.7C36,428.7,35.9,417.6,35.9,406.5z"/>
		<path class="st6" d="M121,230.9c0-0.3,0,1.8,0,1.5c2.3,0,4.5,3.9,7,1.4c0.7,0.3,0.7-3.1,0-2.8C125.7,230.9,123.3,230.9,121,230.9z
			"/>
		<path class="st6" d="M139.7,231.8c0,0.1,0.4-0.9,0.4-0.8c-2.3,0-4.7,0-7,0c-0.7-0.3-2.3,3.3-1.7,2.9c-1.6,6,4.5,1.9,7.7-0.3
			c0,0.2,0.9-3.2,1-3"/>
		<path class="st6" d="M132.8,232.3c0,0.3,0.3-1.5,0.3-1.3c-1.7,0-3.4,0-5.1,0c0-0.3,0,0.7,0,0.4c0.2,0,0.8,1.3,0.9,1.3"/>
	</g>
</g>
<g id="загружено__x28_1_x29__xA0_Image_3_">
</g>
<g id="загружено__x28_1_x29__xA0_Image_1_">
</g>
<g id="MySQL">
	<g>
		<path class="st6" d="M31.7,446.5h9.6l12,36.1l12.1-36.1h9.6l8.7,51.7h-9.5l-5.5-32.7l-11,32.7h-8.7L38,465.6l-5.7,32.7h-9.6
			L31.7,446.5z"/>
		<path class="st6" d="M86.1,460H96l9.9,24l11-24h9.8l-24,52.2h-9.9l7.9-16.8L86.1,460z"/>
		<path class="st6" d="M160.4,453.6l-7.3,6.4c-2.6-3.6-5.2-5.3-7.8-5.3c-1.3,0-2.3,0.3-3.2,1c-0.8,0.7-1.2,1.5-1.2,2.3
			s0.3,1.7,0.9,2.5c0.8,1,3.2,3.2,7.2,6.6c3.8,3.1,6,5.1,6.8,5.9c2,2,3.4,3.9,4.2,5.8s1.3,3.8,1.3,6c0,4.2-1.5,7.7-4.4,10.5
			c-2.9,2.8-6.8,4.1-11.5,4.1c-3.7,0-6.9-0.9-9.6-2.7s-5.1-4.6-7-8.5l8.3-5c2.5,4.6,5.4,6.9,8.6,6.9c1.7,0,3.1-0.5,4.3-1.5
			c1.2-1,1.7-2.1,1.7-3.4c0-1.2-0.4-2.3-1.3-3.5s-2.8-3-5.7-5.4c-5.6-4.6-9.3-8.1-10.9-10.6s-2.5-5-2.5-7.5c0-3.6,1.4-6.7,4.1-9.2
			c2.7-2.6,6.1-3.8,10.1-3.8c2.6,0,5,0.6,7.4,1.8S157.6,450.4,160.4,453.6z"/>
		<path class="st6" d="M215,490.7l9,11.6h-11.7l-4.6-5.9c-3.8,2.1-8,3.1-12.6,3.1c-7.8,0-14.2-2.7-19.4-8
			c-5.1-5.4-7.7-11.7-7.7-19.1c0-4.9,1.2-9.5,3.6-13.6c2.4-4.1,5.7-7.4,9.9-9.9c4.2-2.4,8.7-3.7,13.5-3.7c7.3,0,13.6,2.6,18.9,7.9
			c5.3,5.3,7.9,11.8,7.9,19.4C221.8,479.6,219.6,485.6,215,490.7z M208.9,482.7c2.1-3.1,3.1-6.5,3.1-10.3c0-4.9-1.7-9.1-5-12.5
			c-3.3-3.4-7.3-5.1-12-5.1c-4.8,0-8.9,1.7-12.1,5c-3.3,3.3-4.9,7.6-4.9,12.7c0,5.7,2.1,10.2,6.2,13.6c3.2,2.6,6.9,3.9,11,3.9
			c2.3,0,4.6-0.5,6.6-1.4l-9.3-11.9h11.7L208.9,482.7z"/>
		<path class="st6" d="M231.1,446.5h9.8v42.3h14.3v9.4h-24.2V446.5z"/>
	</g>
</g>
<g id="Oracle">
	<g>
		<path class="st5" d="M556.8,284.1c7.3,0,13.6,2.6,18.9,7.9c5.3,5.3,7.9,11.8,7.9,19.4c0,7.5-2.6,13.9-7.8,19.2
			c-5.2,5.2-11.5,7.8-18.9,7.8c-7.8,0-14.2-2.7-19.3-8.1c-5.1-5.4-7.7-11.7-7.7-19.1c0-4.9,1.2-9.5,3.6-13.6
			c2.4-4.1,5.7-7.4,9.9-9.9C547.4,285.3,551.9,284.1,556.8,284.1z M556.7,293.7c-4.8,0-8.8,1.7-12.1,5c-3.3,3.3-4.9,7.6-4.9,12.7
			c0,5.7,2.1,10.2,6.2,13.6c3.2,2.6,6.9,3.9,11,3.9c4.7,0,8.6-1.7,11.9-5.1c3.3-3.4,4.9-7.5,4.9-12.5c0-4.9-1.7-9.1-5-12.5
			C565.4,295.4,561.4,293.7,556.7,293.7z"/>
		<path class="st5" d="M589.5,298.8h8.2v4.8c0.9-1.9,2.1-3.3,3.6-4.3s3.1-1.5,4.9-1.5c1.2,0,2.5,0.3,3.9,1l-3,8.3
			c-1.1-0.6-2.1-0.8-2.8-0.8c-1.5,0-2.7,0.9-3.7,2.7s-1.5,5.4-1.5,10.8l0,1.9v15.5h-9.5V298.8z"/>
		<path class="st5" d="M643,298.8h9.6v38.3H643v-4c-1.9,1.8-3.8,3.1-5.6,3.8c-1.9,0.8-3.9,1.2-6.1,1.2c-4.9,0-9.2-1.9-12.8-5.7
			c-3.6-3.8-5.4-8.6-5.4-14.3c0-5.9,1.7-10.7,5.2-14.5c3.5-3.8,7.7-5.7,12.7-5.7c2.3,0,4.4,0.4,6.5,1.3c2,0.9,3.9,2.2,5.6,3.9V298.8
			z M632.9,306.7c-3,0-5.4,1-7.4,3.1c-2,2.1-2.9,4.8-2.9,8.1c0,3.3,1,6,3,8.2c2,2.1,4.5,3.2,7.4,3.2c3,0,5.5-1,7.5-3.1
			c2-2.1,3-4.8,3-8.2c0-3.3-1-6-3-8.1C638.5,307.8,636,306.7,632.9,306.7z"/>
		<path class="st5" d="M699.8,306.6l-8,4.4c-1.5-1.6-3-2.7-4.5-3.3c-1.5-0.6-3.2-0.9-5.2-0.9c-3.6,0-6.5,1.1-8.7,3.2
			c-2.2,2.1-3.3,4.9-3.3,8.2c0,3.3,1.1,5.9,3.2,8c2.1,2.1,4.9,3.1,8.4,3.1c4.3,0,7.6-1.5,10-4.4l7.6,5.2c-4.1,5.3-9.9,8-17.4,8
			c-6.7,0-12-2-15.8-6s-5.7-8.6-5.7-14c0-3.7,0.9-7.1,2.8-10.2c1.9-3.1,4.4-5.6,7.8-7.3c3.3-1.8,7-2.7,11.1-2.7
			c3.8,0,7.2,0.8,10.2,2.3S697.8,303.8,699.8,306.6z"/>
		<path class="st5" d="M707.4,284.1h9.6v53h-9.6V284.1z"/>
		<path class="st5" d="M764,320.8h-30.8c0.4,2.7,1.6,4.9,3.6,6.5c1.9,1.6,4.4,2.4,7.4,2.4c3.6,0,6.7-1.3,9.2-3.8l8.1,3.8
			c-2,2.9-4.4,5-7.2,6.3s-6.2,2.1-10,2.1c-6,0-10.9-1.9-14.7-5.7c-3.8-3.8-5.7-8.5-5.7-14.2c0-5.8,1.9-10.7,5.6-14.5
			c3.8-3.9,8.5-5.8,14.2-5.8c6,0,10.9,1.9,14.7,5.8c3.8,3.9,5.7,8.9,5.7,15.3L764,320.8z M754.4,313.2c-0.6-2.1-1.9-3.9-3.8-5.2
			c-1.9-1.3-4-2-6.5-2c-2.7,0-5,0.8-7,2.3c-1.3,0.9-2.4,2.6-3.5,5H754.4z"/>
	</g>
</g>
<g id="SQL">
	<g>
		<path class="st7" d="M627,609.3l-7.3,6.4c-2.6-3.6-5.2-5.3-7.8-5.3c-1.3,0-2.3,0.3-3.2,1c-0.8,0.7-1.2,1.5-1.2,2.3
			s0.3,1.7,0.9,2.5c0.8,1,3.2,3.2,7.2,6.6c3.8,3.1,6,5.1,6.8,5.9c2,2,3.4,3.9,4.2,5.8c0.8,1.8,1.3,3.8,1.3,6c0,4.2-1.5,7.7-4.4,10.5
			s-6.8,4.1-11.5,4.1c-3.7,0-6.9-0.9-9.6-2.7s-5.1-4.6-7-8.5l8.3-5c2.5,4.6,5.4,6.9,8.6,6.9c1.7,0,3.1-0.5,4.3-1.5s1.7-2.1,1.7-3.4
			c0-1.2-0.4-2.3-1.3-3.5c-0.9-1.2-2.8-3-5.7-5.4c-5.6-4.6-9.3-8.1-10.9-10.6s-2.5-5-2.5-7.5c0-3.6,1.4-6.7,4.1-9.2
			c2.7-2.6,6.1-3.8,10.1-3.8c2.6,0,5,0.6,7.4,1.8C621.8,604,624.3,606.2,627,609.3z"/>
		<path class="st7" d="M681.7,646.4l9,11.6h-11.7l-4.6-5.9c-3.8,2.1-8,3.1-12.6,3.1c-7.8,0-14.2-2.7-19.4-8s-7.7-11.7-7.7-19.1
			c0-4.9,1.2-9.5,3.6-13.6c2.4-4.1,5.7-7.4,9.9-9.9c4.2-2.4,8.7-3.7,13.5-3.7c7.3,0,13.6,2.6,18.9,7.9c5.3,5.3,7.9,11.8,7.9,19.4
			C688.5,635.3,686.3,641.4,681.7,646.4z M675.6,638.5c2.1-3.1,3.1-6.5,3.1-10.3c0-4.9-1.7-9.1-5-12.5c-3.3-3.4-7.3-5.1-12-5.1
			c-4.8,0-8.9,1.7-12.1,5c-3.3,3.3-4.9,7.6-4.9,12.7c0,5.7,2.1,10.2,6.2,13.6c3.2,2.6,6.9,3.9,11,3.9c2.3,0,4.6-0.5,6.6-1.4
			l-9.3-11.9h11.7L675.6,638.5z"/>
		<path class="st7" d="M697.8,602.3h9.8v42.3H722v9.4h-24.2V602.3z"/>
	</g>
</g>
<g id="Слой_4_xA0_Image_1_">
	<g>
		<path class="st1" d="M424.7,428.5c-21.3,0-42.7,0-64,0c0.2-3.1-1.3-5.2-3.4-7.3c-17.3-17.1-34.4-34.3-51.6-51.5
			c-4.8-4.8-4.8-5.5,0.1-10.4c14.9-15,29.9-29.9,44.8-44.9c2.7-2.7,6.1-4.7,8.6-7.6c1-1.1,2.4-2.4,0.9-3.8c-1.2-1.2-2.4,0.1-3.5,0.9
			c-0.6,0.5-1.2,1.1-1.8,1.7c-18.1,18.2-37.1,35.4-54.9,53.8c-1.4,1.5-2.6,3.6-5.2,3.1c0-20.3,0.1-40.5-0.1-60.8
			c0-2.9,0.7-3.3,3.4-3.3c30.9,0.1,61.8,0.1,92.7,0.1c0.2,3.9-2.7,5.8-5,8.1c-16.9,17-33.9,33.9-50.9,50.9c-5,5-5,5,0.1,10.1
			c16.8,16.8,33.7,33.7,50.5,50.5c7.2,7.2,7.2,7.2,14.4,0c16.8-16.9,33.7-33.7,50.5-50.5c5.1-5.1,5.1-5.1,0.1-10.1
			c-17-17-33.9-33.9-50.9-50.9c-2.3-2.3-5.2-4.3-5-8.1c30.9,0,61.8,0,92.7-0.1c2.7,0,3.4,0.4,3.4,3.3c-0.2,20.6-0.1,41.2-0.1,61.8
			c-2.9,0.5-4-1.9-5.6-3.5c-18.1-18-36-36-54.1-54c-1.5-1.5-3.3-5-5.3-3c-2,2,1.6,3.8,3.1,5.2c16.9,17,33.9,33.9,50.8,50.9
			c4.9,4.9,4.9,5.6,0.1,10.5c-17.2,17.2-34.3,34.4-51.6,51.5C426,423.3,424.5,425.4,424.7,428.5z"/>
		<path class="st1" d="M490.7,365.5c0,20-0.1,40,0.1,60c0,2.5-0.6,3.1-3.1,3.1c-20-0.1-40-0.1-60-0.1c-0.6-2.3,1.2-3.3,2.4-4.5
			c18.7-18.7,37.3-37.4,56.1-56.1C487.4,366.7,488.4,364.9,490.7,365.5z"/>
		<path class="st1" d="M356.7,428.5c-19.6,0-39.2-0.1-58.8,0.1c-2.8,0-3.3-0.6-3.3-3.3c0.2-19.6,0.1-39.2,0.1-58.8
			c2.3-0.6,3.3,1.2,4.5,2.4c18.4,18.3,36.8,36.7,55.1,55.1C355.5,425.2,357.3,426.2,356.7,428.5z"/>
		<path class="st8" d="M394.7,298.5c1.8,3.4,4.5,6,7.2,8.7c17.3,17.3,34.6,34.7,52.1,51.9c2.9,2.9,2.5,4.3-0.1,6.9
			c-16.4,16.1-32.6,32.4-48.8,48.8c-3.1,3.2-6.6,6-9,9.9c-1.6,2.5-4.1,2.8-6.2,0.4c-18.1-20.4-38.3-38.8-57.5-58.3
			c-3.3-3.3-3.7-4.9-0.1-8.4c17.3-16.9,34.3-34.1,51.4-51.1c2.7-2.7,5.4-5.3,7.2-8.7C392,298.5,393.4,298.5,394.7,298.5z"/>
		<path class="st9" d="M356.7,428.5c-7.4-7.6-14.8-15.3-22.3-22.8c-13.2-13.1-26.5-26.2-39.7-39.2c0-1.3,0-2.7,0-4
			c7-6.8,14-13.7,21-20.5c13.4-13.1,26.9-26.2,40.3-39.3c1.6-1.5,2.9-3.4,5.3-1.1c2.7,2.5,0.8,4.1-0.9,5.7
			c-19.1,17.1-36.4,36-54.8,53.8c-2.7,2.6-3,4.1-0.1,6.9c18.4,18.1,36.5,36.5,54.9,54.6c2.3,2.2,2.5,3.8,0.3,5.9
			C359.4,428.5,358,428.5,356.7,428.5z"/>
		<path class="st9" d="M490.7,365.5c-7.3,7.2-14.8,14.3-22,21.6c-13.7,13.8-27.3,27.6-41,41.4c-1,0-2,0-3,0
			c-2.2-2.1-1.9-3.7,0.3-5.9c18.4-18.2,36.5-36.5,54.9-54.6c2.9-2.9,2.5-4.3-0.1-6.9c-18.3-18-36.4-36.2-54.5-54.4
			c-1.2-1.3-4.2-2.3-1.3-5c2.5-2.3,3.8-0.4,5.3,1.1c19.2,19.2,38.4,38.4,57.6,57.6c1.2,1.2,2.5,2.2,3.7,3.2
			C490.7,364.2,490.7,364.8,490.7,365.5z"/>
		<path class="st1" d="M392.7,306.2c0.9,0.8,1.7,1.5,2.4,2.2c17.3,17.3,34.6,34.6,52,51.9c1.6,1.6,1.9,2.6,0.1,4.4
			c-17.5,17.4-34.9,34.8-52.3,52.3c-1.7,1.8-2.7,1.6-4.4-0.1c-17.3-17.4-34.6-34.7-51.9-51.9c-1.8-1.8-2-2.8-0.1-4.7
			c17.4-17.2,34.7-34.6,52-51.9C391.1,307.6,391.8,307,392.7,306.2z"/>
		<path class="st0" d="M429.5,363.3c-0.6-0.4-1.9-1.1-2.8-2c-9.3-8.8-18.6-17.6-27.9-26.5c-0.8-0.8-1.7-1.6-2.5-2.5
			c-0.6-0.6-1.1-1.4-0.2-2.1c0.9-0.8,1.5,0,2.1,0.6c0.4,0.3,0.7,0.7,1.1,1c10.4,9.9,20.6,19.9,31.1,29.6c2.8,2.6,2.2,4-0.2,6.2
			c-10.2,9.6-20.3,19.3-30.5,28.9c-1,0.9-2,3.7-3.8,1.8c-1.3-1.3,1-2.5,2-3.4c9.5-9.1,19.1-18.2,28.6-27.2
			C427.6,366.7,429,366,429.5,363.3z"/>
		<path class="st0" d="M387.8,397.7c-0.3,1.1-0.8,1.8-1.8,1.2c-0.6-0.3-1-0.8-1.5-1.3c-10.7-10.2-21.3-20.5-32.1-30.7
			c-2-1.9-1.7-3,0.1-4.8c10.8-10.1,21.5-20.4,32.3-30.5c0.8-0.7,1.6-2.4,2.8-1.3c1.6,1.5-0.5,2.3-1.2,3.1
			c-9.9,9.6-19.9,19.2-30,28.5c-2.4,2.2-2.2,3.2,0,5.3c9.7,9.1,19.3,18.3,28.9,27.5C386.2,395.7,387,396.8,387.8,397.7z"/>
	</g>
</g>
</svg>
