<!--?xml version="1.0" encoding="utf-8"?-->
<!-- Generator: Adobe Illustrator 22.1.0, SVG Export Plug-In . SVG Version: 6.00 Build 0)  -->
<svg version="1.1" id="Layer_1" xmlns="http://www.w3.org/2000/svg" xmlns:xlink="http://www.w3.org/1999/xlink" x="0px" y="0px" viewBox="0 0 237 151" style="" xml:space="preserve">
<style type="text/css">
	.st0{fill:#FFFFFF;stroke:#FFFFFF;}
	.st1{fill:#FFFFFF;}
	.st2{fill-rule:evenodd;clip-rule:evenodd;fill:#FFFFFF;stroke:#FFFFFF;stroke-miterlimit:10;}
</style>
<g>
	<path d="M5.1,17.8c0-4.1,1-7.2,2.9-9.4c1.9-2.2,4.9-3.3,8.7-3.3c3.9,0,6.8,1.1,8.7,3.3c1.9,2.2,2.9,5.3,2.9,9.4v1.6h-7.5v-2.1
		c0-1.8-0.3-3.1-1-3.9c-0.7-0.7-1.7-1.1-2.9-1.1c-1.2,0-2.2,0.4-2.9,1.1c-0.7,0.7-1,2-1,3.9c0,1.7,0.4,3.3,1.2,4.6
		c0.8,1.3,1.7,2.6,2.9,3.7c1.2,1.2,2.4,2.4,3.7,3.5c1.3,1.2,2.6,2.5,3.7,3.9c1.2,1.4,2.1,3,2.9,4.8c0.8,1.8,1.2,3.9,1.2,6.3
		c0,4.1-1,7.2-3,9.4c-2,2.2-4.9,3.3-8.8,3.3c-3.9,0-6.8-1.1-8.8-3.3c-2-2.2-3-5.3-3-9.4v-3.1h7.5v3.6c0,1.8,0.4,3.1,1.1,3.8
		c0.7,0.7,1.7,1.1,3,1.1c1.2,0,2.2-0.4,3-1.1c0.7-0.7,1.1-2,1.1-3.8c0-1.7-0.4-3.3-1.2-4.6c-0.8-1.3-1.7-2.6-2.9-3.7
		c-1.2-1.2-2.4-2.4-3.7-3.5c-1.3-1.2-2.6-2.5-3.7-3.9c-1.2-1.4-2.1-3-2.9-4.8C5.5,22.3,5.1,20.2,5.1,17.8z" class="uPVFbojP_0"></path>
	<path d="M34.1,17.8c0-4.1,1-7.2,3.1-9.4c2.1-2.2,5-3.3,8.9-3.3c3.9,0,6.9,1.1,8.9,3.3c2.1,2.2,3.1,5.3,3.1,9.4V44
		c0,2.8-0.5,5.2-1.5,7.1c0.2,0.5,0.4,0.8,0.8,0.9c0.3,0.1,0.8,0.2,1.5,0.2h0.7v7.1h-1.1c-1.8,0-3.2-0.3-4.4-0.9
		c-1.1-0.6-2-1.5-2.5-2.6c-0.8,0.3-1.7,0.5-2.6,0.7c-0.9,0.2-1.9,0.3-3,0.3c-3.9,0-6.9-1.1-8.9-3.3c-2.1-2.2-3.1-5.3-3.1-9.4V17.8z
		 M42,44.5c0,1.8,0.4,3.1,1.1,3.9c0.7,0.7,1.7,1.1,3,1.1c1.2,0,2.2-0.4,3-1.1c0.7-0.7,1.1-2,1.1-3.9V17.3c0-1.8-0.4-3.1-1.1-3.9
		c-0.7-0.7-1.7-1.1-3-1.1c-1.2,0-2.2,0.4-3,1.1c-0.7,0.7-1.1,2-1.1,3.9V44.5z" class="uPVFbojP_1"></path>
	<path d="M65,5.7h7.9v43.2h13v7.2H65V5.7z" class="uPVFbojP_2"></path>
	<path class="st0 uPVFbojP_3" d="M6.1,92.7h12.5c4,0,6.9,1.1,8.9,3.2c1.9,2.1,2.9,5.2,2.9,9.3v25.5c0,4.1-1,7.2-2.9,9.3
		c-1.9,2.1-4.9,3.2-8.9,3.2H6.1V92.7z M14,99.9v36h4.5c1.2,0,2.2-0.4,3-1.1c0.7-0.7,1.1-2,1.1-3.8v-26.2c0-1.8-0.4-3.1-1.1-3.8
		c-0.7-0.7-1.7-1.1-3-1.1H14z"></path>
	<path class="st0 uPVFbojP_4" d="M62.8,143.1h-8l-1.4-9.1h-9.7l-1.4,9.1H35l8.1-50.4h11.6L62.8,143.1z M44.7,127.1h7.6l-3.8-25.5L44.7,127.1z"></path>
	<path class="st0 uPVFbojP_5" d="M63.1,92.7h24.5v7.2h-8.3v43.2h-7.9V99.9h-8.3V92.7z"></path>
	<path class="st0 uPVFbojP_6" d="M115.7,143.1h-8l-1.4-9.1h-9.7l-1.4,9.1H88L96,92.7h11.6L115.7,143.1z M97.6,127.1h7.6l-3.8-25.5L97.6,127.1z"></path>
	<path class="st0 uPVFbojP_7" d="M133,92.7c4.1,0,7.1,1,9,2.9c1.8,1.9,2.8,4.8,2.8,8.7v1.8c0,2.6-0.4,4.7-1.2,6.4c-0.8,1.7-2.1,2.9-3.9,3.7
		c2.2,0.8,3.7,2.1,4.6,4c0.9,1.8,1.3,4.1,1.3,6.8v4.1c0,3.9-1,6.9-3,8.9c-2,2-5,3.1-9,3.1h-12.5V92.7H133z M129,99.9v13.3h3.1
		c1.5,0,2.7-0.4,3.5-1.2c0.8-0.8,1.3-2.2,1.3-4.2v-2.8c0-1.8-0.3-3.1-1-4c-0.6-0.8-1.7-1.2-3.1-1.2H129z M129,120.4v15.5h4.5
		c1.3,0,2.4-0.4,3.1-1.1c0.7-0.7,1-2,1-3.9v-4.4c0-2.4-0.4-4-1.2-4.8s-2.1-1.3-3.9-1.3H129z"></path>
	<path class="st0 uPVFbojP_8" d="M177.7,143.1h-8l-1.4-9.1h-9.7l-1.4,9.1H150l8.1-50.4h11.6L177.7,143.1z M159.6,127.1h7.6l-3.8-25.5
		L159.6,127.1z"></path>
	<path class="st0 uPVFbojP_9" d="M182.1,104.8c0-4.1,1-7.2,2.9-9.4c1.9-2.2,4.9-3.3,8.7-3.3s6.8,1.1,8.7,3.3c1.9,2.2,2.9,5.3,2.9,9.4v1.6h-7.5
		v-2.1c0-1.8-0.3-3.1-1-3.9c-0.7-0.7-1.7-1.1-2.9-1.1c-1.2,0-2.2,0.4-2.9,1.1c-0.7,0.7-1,2-1,3.9c0,1.7,0.4,3.3,1.2,4.6
		c0.8,1.3,1.7,2.6,2.9,3.7c1.2,1.2,2.4,2.4,3.7,3.5c1.3,1.2,2.6,2.5,3.7,3.9c1.2,1.4,2.1,3,2.9,4.8c0.8,1.8,1.2,3.9,1.2,6.3
		c0,4.1-1,7.2-3,9.4c-2,2.2-4.9,3.3-8.8,3.3s-6.8-1.1-8.8-3.3c-2-2.2-3-5.3-3-9.4v-3.1h7.5v3.6c0,1.8,0.4,3.1,1.1,3.8
		c0.7,0.7,1.7,1.1,3,1.1c1.2,0,2.2-0.4,3-1.1c0.7-0.7,1.1-2,1.1-3.8c0-1.7-0.4-3.3-1.2-4.6c-0.8-1.3-1.7-2.6-2.9-3.7
		c-1.2-1.2-2.4-2.4-3.7-3.5c-1.3-1.2-2.6-2.5-3.7-3.9c-1.2-1.4-2.1-3-2.9-4.8C182.4,109.3,182.1,107.2,182.1,104.8z"></path>
	<path class="st0 uPVFbojP_10" d="M219.6,113.9h10.9v7.2h-10.9v14.8h13.7v7.2h-21.6V92.7h21.6v7.2h-13.7V113.9z"></path>
</g>
<g>
	<path class="st1 uPVFbojP_11" d="M148.7,13.6c-0.5,2.4-2.6,3.1-4.4,3.8c-7.4,2.9-15.1,3.3-22.8,2.9c-5.9-0.3-11.8-0.9-17.3-3.7
		c-1.3-0.7-2.6-1.5-3-3.1c-0.4-1.6,0.7-3.2,2.9-4.3c5-2.6,10.5-3.4,16-3.7c6.2-0.4,12.5-0.2,18.7,1.1c2.8,0.6,5.6,1.4,8.1,3
		c1,0.6,1.8,1.4,1.9,2.6C148.9,12.7,148.9,13.1,148.7,13.6z"></path>
	<path class="st1 uPVFbojP_12" d="M101.1,31.8c2,0.8,3.9,1.6,5.8,2.2c8.3,2.5,16.8,2.8,25.3,2.1c5-0.4,9.9-1.4,14.6-3.3c0.8-0.3,1.5-1.4,2.3-0.8
		c0.6,0.5,0.1,1.7,0.2,2.5c0.4,4.7-1.8,6.2-5.2,7.5c-7.2,2.8-14.7,3.2-22.3,2.9c-5.3-0.2-10.5-0.8-15.5-2.8c-1-0.4-2.1-0.8-3-1.4
		c-1.5-1-2.7-2.3-2.3-4.5C101.3,34.8,101.1,33.4,101.1,31.8z"></path>
	<path class="st1 uPVFbojP_13" d="M124.9,32.6c-6.3,0-12.5-0.5-18.4-2.8c-1-0.4-2.1-0.8-3-1.4c-1.9-1.2-2.8-2.9-2.4-5.2c0.2-1.1-0.3-2.7,0.2-3.3
		c0.9-0.9,1.9,0.5,2.9,0.9c9.9,3.6,20,3.9,30.3,2.7c4.8-0.5,9.4-1.5,13.7-3.8c0.4-0.2,1.1-0.6,1.1,0.3c-0.1,2,0.5,3.9-0.5,5.9
		c-1.5,3.1-4.3,3.7-7,4.6C136.3,32.2,130.6,32.6,124.9,32.6z"></path>
	<path class="st1 uPVFbojP_14" d="M125.1,57.2c-6.2-0.1-12.5-0.5-18.6-2.8c-1.1-0.4-2.2-0.9-3.1-1.5c-1.8-1.1-2.7-2.8-2.3-5.1
		c0.2-1.2-0.3-2.9,0.2-3.5c0.7-0.7,1.9,0.6,2.9,1c9.4,3.4,19.2,3.8,29,2.9c4.6-0.5,9.2-1.4,13.5-3.2c2.6-1.1,2.4-1,2.6,1.9
		c0.3,4.4-2,6-5.1,7.2C138.2,56.6,131.8,57.1,125.1,57.2z"></path>
</g>
<path class="st2 uPVFbojP_15" d="M5.6,61.5L149,61.5L149,61.5L5.6,61.5Z"></path>
<path style="fill:none;" width="8.6" height="1.6" d="M315.1 117.2 L323.70000000000005 117.2 L323.70000000000005 118.8 L315.1 118.8 Z" class="uPVFbojP_16"></path>
<path class="st2 uPVFbojP_17" d="M6,144.5L146.1,144.5L234,144.5L6,144.5Z"></path>
<style data-made-with="vivus-instant">.uPVFbojP_0{stroke-dasharray:198 200;stroke-dashoffset:199;animation:uPVFbojP_draw 2000ms linear 0ms forwards;}.uPVFbojP_1{stroke-dasharray:230 232;stroke-dashoffset:231;animation:uPVFbojP_draw 2000ms linear 58ms forwards;}.uPVFbojP_2{stroke-dasharray:143 145;stroke-dashoffset:144;animation:uPVFbojP_draw 2000ms linear 117ms forwards;}.uPVFbojP_3{stroke-dasharray:227 229;stroke-dashoffset:228;animation:uPVFbojP_draw 2000ms linear 176ms forwards;}.uPVFbojP_4{stroke-dasharray:217 219;stroke-dashoffset:218;animation:uPVFbojP_draw 2000ms linear 235ms forwards;}.uPVFbojP_5{stroke-dasharray:150 152;stroke-dashoffset:151;animation:uPVFbojP_draw 2000ms linear 294ms forwards;}.uPVFbojP_6{stroke-dasharray:217 219;stroke-dashoffset:218;animation:uPVFbojP_draw 2000ms linear 352ms forwards;}.uPVFbojP_7{stroke-dasharray:229 231;stroke-dashoffset:230;animation:uPVFbojP_draw 2000ms linear 411ms forwards;}.uPVFbojP_8{stroke-dasharray:217 219;stroke-dashoffset:218;animation:uPVFbojP_draw 2000ms linear 470ms forwards;}.uPVFbojP_9{stroke-dasharray:198 200;stroke-dashoffset:199;animation:uPVFbojP_draw 2000ms linear 529ms forwards;}.uPVFbojP_10{stroke-dasharray:194 196;stroke-dashoffset:195;animation:uPVFbojP_draw 2000ms linear 588ms forwards;}.uPVFbojP_11{stroke-dasharray:106 108;stroke-dashoffset:107;animation:uPVFbojP_draw 2000ms linear 647ms forwards;}.uPVFbojP_12{stroke-dasharray:114 116;stroke-dashoffset:115;animation:uPVFbojP_draw 2000ms linear 705ms forwards;}.uPVFbojP_13{stroke-dasharray:114 116;stroke-dashoffset:115;animation:uPVFbojP_draw 2000ms linear 764ms forwards;}.uPVFbojP_14{stroke-dasharray:113 115;stroke-dashoffset:114;animation:uPVFbojP_draw 2000ms linear 823ms forwards;}.uPVFbojP_15{stroke-dasharray:287 289;stroke-dashoffset:288;animation:uPVFbojP_draw 2000ms linear 882ms forwards;}.uPVFbojP_16{stroke-dasharray:21 23;stroke-dashoffset:22;animation:uPVFbojP_draw 2000ms linear 941ms forwards;}.uPVFbojP_17{stroke-dasharray:456 458;stroke-dashoffset:457;animation:uPVFbojP_draw 2000ms linear 1000ms forwards;}@keyframes uPVFbojP_draw{100%{stroke-dashoffset:0;}}@keyframes uPVFbojP_fade{0%{stroke-opacity:1;}94.44444444444444%{stroke-opacity:1;}100%{stroke-opacity:0;}}</style></svg>
