<?xml version="1.0" encoding="utf-8"?>
<!-- Generator: Adobe Illustrator 22.1.0, SVG Export Plug-In . SVG Version: 6.00 Build 0)  -->
<svg version="1.2" baseProfile="tiny" id="Layer_1" xmlns="http://www.w3.org/2000/svg" xmlns:xlink="http://www.w3.org/1999/xlink"
	 x="0px" y="0px" viewBox="0 0 64 64" xml:space="preserve">
<path fill="#003B57" d="M60.5,2C61.3,2,62,2.7,62,3.5v57c0,0.8-0.7,1.5-1.5,1.5h-57C2.7,62,2,61.3,2,60.5v-57C2,2.7,2.7,2,3.5,2
	H60.5 M60.5,0h-57C1.6,0,0,1.6,0,3.5v57C0,62.4,1.6,64,3.5,64h57c1.9,0,3.5-1.6,3.5-3.5v-57C64,1.6,62.4,0,60.5,0L60.5,0z"/>
<g>
	<path fill="#003B57" d="M42.6,46.3c0-0.3,0-0.6,0-0.9c0.1-0.8,0.6-1.3,1.2-1.7c1.7-1,3.5-1.6,5.5-1.6c0.5,0,1-0.1,1.6,0
		c0.2,0,0.4,0,0.7,0c0.2,0,0.3,0,0.5,0c0.2,0,0.4,0,0.7,0c1.7,0,3.4,0.1,5,0.7c0.7,0.3,1.4,0.6,2.1,1c0.6,0.4,1.1,0.9,1.2,1.7
		c0,0.3,0,0.6,0,0.9c-0.1,1.1-0.9,1.6-1.8,2.1c-1.4,0.7-2.9,1.1-4.5,1.3c-1.2,0.2-2.4,0.3-3.7,0.2c-2.3-0.1-4.5-0.4-6.6-1.5
		c-0.4-0.2-0.8-0.5-1.1-0.7C42.9,47.3,42.7,46.8,42.6,46.3z"/>
	<path fill="#003B57" d="M42.6,54.3c0-1,0-2,0-2.9c0.2,0,0.3,0.1,0.4,0.2c0.6,1,1.6,1.5,2.7,1.9c1.6,0.6,3.4,0.9,5.1,1
		c1.8,0,3.7,0,5.5-0.5c1.1-0.3,2.2-0.6,3.1-1.2c0.5-0.3,0.9-0.7,1.2-1.1c0.1-0.2,0.2-0.3,0.4-0.3c0,1,0,2,0,2.9
		c-0.2,1.2-1.1,1.7-2.1,2.2c-1.9,0.9-4,1.3-6.2,1.3c-2,0-4,0-5.9-0.6c-1.1-0.3-2.1-0.7-3-1.3C43.2,55.5,42.7,55,42.6,54.3z"/>
	<path fill="#003B57" d="M61,55.3c0,1,0,2,0,2.9c-0.1,1.1-1,1.6-1.9,2.1c-1.4,0.7-2.9,1.1-4.6,1.2c-0.5,0-0.9,0-1.4,0.1
		c-0.9,0-1.8,0-2.8,0c-0.6-0.1-1.3-0.1-1.9-0.1c-1.8-0.2-3.5-0.7-5-1.8c-0.5-0.4-0.8-0.8-0.9-1.5c0-1,0-2,0-2.9
		c0.2,0,0.3,0.1,0.4,0.2c0.6,0.9,1.5,1.5,2.5,1.9c1.6,0.6,3.3,0.9,5.1,1c2,0.1,3.9,0,5.8-0.5c1.3-0.3,2.6-0.7,3.6-1.6
		c0.3-0.2,0.5-0.5,0.6-0.7C60.7,55.4,60.8,55.3,61,55.3z"/>
	<path fill="#003B57" d="M42.6,50.2c0-0.9,0-1.9,0-2.8c0.2,0,0.3,0.1,0.4,0.2c0.7,1.1,1.9,1.7,3.1,2.1c1.6,0.6,3.3,0.8,5.1,0.8
		c2.1,0.1,4.1-0.1,6.1-0.8c0.8-0.3,1.6-0.6,2.3-1.1c0.4-0.3,0.6-0.6,0.9-0.9c0.1-0.2,0.2-0.4,0.5-0.3c0,0.9,0,1.9,0,2.8
		c-0.1,0.9-0.8,1.5-1.5,1.9c-1.3,0.8-2.8,1.2-4.3,1.4C52.1,54,49,54,45.9,53c-0.7-0.2-1.4-0.5-2-0.9C43.2,51.6,42.7,51.1,42.6,50.2z
		"/>
</g>
<line fill="none" stroke="#003B57" stroke-width="0.75" stroke-miterlimit="10" x1="16" y1="35.5" x2="54" y2="35.5"/>
<g>
</g>
<path fill="#E6EBEE" d="M20.1,14.1c-0.1,0-0.2,0-0.3,0C19.8,14,20,14,20.1,14.1z"/>
<path fill="#EBEFF1" d="M20.2,16.7C20.2,16.7,20.2,16.7,20.2,16.7c0.1,0,0.1-0.2,0.1-0.1C20.3,16.7,20.2,16.7,20.2,16.7
	C20.2,16.7,20.2,16.7,20.2,16.7z"/>
<path fill="#4A7387" d="M34.1,34.6c0,0.1-0.1,0.1-0.1,0.1C34.1,34.5,34.1,34.5,34.1,34.6z"/>
<path fill="#C7D3D9" d="M34.1,24.7C34.2,24.7,34.2,24.7,34.1,24.7C34.2,24.8,34.1,24.8,34.1,24.7z"/>
<path fill="#A2B7C1" d="M22.8,29.1c0,0-0.1,0-0.1-0.1C22.7,29.1,22.8,29.1,22.8,29.1z"/>
<path fill="#C7D3D9" d="M48,32.1c0-0.1,0.1-0.1,0.1-0.1C48.1,32.1,48.1,32.1,48,32.1z"/>
<path fill="#B9C9D0" d="M20.4,16.5C20.4,16.5,20.4,16.5,20.4,16.5C20.3,16.6,20.3,16.5,20.4,16.5C20.3,16.5,20.3,16.5,20.4,16.5
	C20.4,16.5,20.4,16.5,20.4,16.5z"/>
<path fill="#93ABB7" d="M28.4,24.9C28.4,24.9,28.3,24.9,28.4,24.9C28.3,24.8,28.3,24.9,28.4,24.9z"/>
<g>
	<path d="M16.5,26c0-0.9,0.2-1.6,0.6-2.1c0.4-0.5,1.1-0.7,1.9-0.7c0.9,0,1.5,0.2,1.9,0.7c0.4,0.5,0.6,1.2,0.6,2.1v0.4h-1.7v-0.5
		c0-0.4-0.1-0.7-0.2-0.9c-0.2-0.2-0.4-0.2-0.6-0.2c-0.3,0-0.5,0.1-0.6,0.2c-0.2,0.2-0.2,0.5-0.2,0.9c0,0.4,0.1,0.7,0.3,1
		c0.2,0.3,0.4,0.6,0.6,0.8c0.3,0.3,0.5,0.5,0.8,0.8c0.3,0.3,0.6,0.5,0.8,0.9c0.3,0.3,0.5,0.7,0.6,1.1c0.2,0.4,0.3,0.9,0.3,1.4
		c0,0.9-0.2,1.6-0.7,2.1c-0.4,0.5-1.1,0.7-2,0.7c-0.9,0-1.5-0.2-2-0.7c-0.4-0.5-0.7-1.2-0.7-2.1v-0.7h1.7v0.8c0,0.4,0.1,0.7,0.2,0.8
		s0.4,0.2,0.7,0.2s0.5-0.1,0.7-0.2s0.2-0.4,0.2-0.8c0-0.4-0.1-0.7-0.3-1c-0.2-0.3-0.4-0.6-0.6-0.8s-0.5-0.5-0.8-0.8
		c-0.3-0.3-0.6-0.5-0.8-0.9c-0.3-0.3-0.5-0.7-0.6-1.1C16.6,27,16.5,26.5,16.5,26z"/>
	<path d="M22.6,26c0-0.9,0.2-1.6,0.7-2.1c0.5-0.5,1.1-0.7,2-0.7c0.9,0,1.5,0.2,2,0.7c0.5,0.5,0.7,1.2,0.7,2.1v5.8
		c0,0.6-0.1,1.2-0.3,1.6c0,0.1,0.1,0.2,0.2,0.2c0.1,0,0.2,0,0.3,0h0.2v1.6H28c-0.4,0-0.7-0.1-1-0.2c-0.3-0.1-0.4-0.3-0.6-0.6
		c-0.2,0.1-0.4,0.1-0.6,0.2c-0.2,0-0.4,0.1-0.7,0.1c-0.9,0-1.5-0.2-2-0.7c-0.5-0.5-0.7-1.2-0.7-2.1V26z M24.4,31.9
		c0,0.4,0.1,0.7,0.2,0.9c0.2,0.2,0.4,0.2,0.7,0.2s0.5-0.1,0.7-0.2c0.2-0.2,0.2-0.5,0.2-0.9v-6c0-0.4-0.1-0.7-0.2-0.9
		c-0.2-0.2-0.4-0.2-0.7-0.2s-0.5,0.1-0.7,0.2c-0.2,0.2-0.2,0.5-0.2,0.9V31.9z"/>
	<path d="M29.1,23.3h1.8v9.6h2.9v1.6h-4.7V23.3z"/>
	<path d="M34.5,23.3h1.8v9.6h2.9v1.6h-4.7V23.3z"/>
	<path d="M39.9,23.3h1.8v11.2h-1.8V23.3z"/>
	<path d="M42.5,23.3h5.4v1.6h-1.8v9.6h-1.8v-9.6h-1.8V23.3z"/>
	<path d="M50.4,28h2.4v1.6h-2.4v3.3h3v1.6h-4.8V23.3h4.8v1.6h-3V28z"/>
</g>
<path id="feather" fill="#003B57" d="M17.8,12.3c-1.5-1.4-3.4-0.8-5.2,0.8c-0.3,0.2-0.5,0.5-0.8,0.8c-3.1,3.3-6,9.4-6.9,14.1
	c0.3,0.7,0.6,1.6,0.8,2.3c0,0.2,0.1,0.3,0.1,0.5c0.1,0.3,0.1,0.6,0.1,0.6s0-0.1-0.1-0.4c0-0.1,0-0.1-0.1-0.2c0,0,0-0.1,0-0.1
	c-0.2-0.5-0.8-1.5-1-1.9c-0.2,0.6-0.4,1.2-0.6,1.7C4.8,31.7,5.2,34,5.2,34s0-0.1-0.2-0.7c-0.2-0.4-1-1.8-1.1-2.2
	c-0.3,1.2-0.4,2-0.3,2.2c0.2,0.4,0.4,1,0.6,1.8c0.4,1.6,0.7,3.6,0.7,3.6s0,0.1,0,0.3c-0.1,1.4,0,2.8,0.1,4.1
	c0.1,1.7,0.4,3.1,0.7,3.9l0.2-0.1c-0.5-1.5-0.7-3.5-0.6-5.9c0.1-3.5,0.9-7.8,2.5-12.3c2.5-6.7,6.1-12.1,9.3-14.7
	c-2.9,2.7-6.9,11.3-8.1,14.5c-1.3,3.6-2.3,6.9-2.9,10.1c1-3,4.2-4.3,4.2-4.3s1.6-1.9,3.4-4.7c-1.1,0.2-2.9,0.7-3.5,0.9
	c-0.9,0.4-1.1,0.5-1.1,0.5s2.9-1.7,5.3-2.5C17.8,23.2,21.5,15.6,17.8,12.3"/>
</svg>
