<?xml version="1.0" encoding="utf-8"?>
<!-- Generator: Adobe Illustrator 22.1.0, SVG Export Plug-In . SVG Version: 6.00 Build 0)  -->
<svg version="1.2" baseProfile="tiny" id="Layer_1" xmlns="http://www.w3.org/2000/svg" xmlns:xlink="http://www.w3.org/1999/xlink"
	 x="0px" y="0px" viewBox="0 0 64 64" xml:space="preserve">
<path fill="#FFCC66" d="M60.5,2C61.3,2,62,2.7,62,3.5v57c0,0.8-0.7,1.5-1.5,1.5h-57C2.7,62,2,61.3,2,60.5v-57C2,2.7,2.7,2,3.5,2
	H60.5 M60.5,0h-57C1.6,0,0,1.6,0,3.5v57C0,62.4,1.6,64,3.5,64h57c1.9,0,3.5-1.6,3.5-3.5v-57C64,1.6,62.4,0,60.5,0L60.5,0z"/>
<g>
	<path fill="#FFCC66" d="M42.6,46.3c0-0.3,0-0.6,0-0.9c0.1-0.8,0.6-1.3,1.2-1.7c1.7-1,3.5-1.6,5.5-1.6c0.5,0,1-0.1,1.6,0
		c0.2,0,0.4,0,0.7,0c0.2,0,0.3,0,0.5,0c0.2,0,0.4,0,0.7,0c1.7,0,3.4,0.1,5,0.7c0.7,0.3,1.4,0.6,2.1,1c0.6,0.4,1.1,0.9,1.2,1.7
		c0,0.3,0,0.6,0,0.9c-0.1,1.1-0.9,1.6-1.8,2.1c-1.4,0.7-2.9,1.1-4.5,1.3c-1.2,0.2-2.4,0.3-3.7,0.2c-2.3-0.1-4.5-0.4-6.6-1.5
		c-0.4-0.2-0.8-0.5-1.1-0.7C42.9,47.3,42.7,46.8,42.6,46.3z"/>
	<path fill="#FFCC66" d="M42.6,54.3c0-1,0-2,0-2.9c0.2,0,0.3,0.1,0.4,0.2c0.6,1,1.6,1.5,2.7,1.9c1.6,0.6,3.4,0.9,5.1,1
		c1.8,0,3.7,0,5.5-0.5c1.1-0.3,2.2-0.6,3.1-1.2c0.5-0.3,0.9-0.7,1.2-1.1c0.1-0.2,0.2-0.3,0.4-0.3c0,1,0,2,0,2.9
		c-0.2,1.2-1.1,1.7-2.1,2.2c-1.9,0.9-4,1.3-6.2,1.3c-2,0-4,0-5.9-0.6c-1.1-0.3-2.1-0.7-3-1.3C43.2,55.5,42.7,55,42.6,54.3z"/>
	<path fill="#FFCC66" d="M61,55.3c0,1,0,2,0,2.9c-0.1,1.1-1,1.6-1.9,2.1c-1.4,0.7-2.9,1.1-4.6,1.2c-0.5,0-0.9,0-1.4,0.1
		c-0.9,0-1.8,0-2.8,0c-0.6-0.1-1.3-0.1-1.9-0.1c-1.8-0.2-3.5-0.7-5-1.8c-0.5-0.4-0.8-0.8-0.9-1.5c0-1,0-2,0-2.9
		c0.2,0,0.3,0.1,0.4,0.2c0.6,0.9,1.5,1.5,2.5,1.9c1.6,0.6,3.3,0.9,5.1,1c2,0.1,3.9,0,5.8-0.5c1.3-0.3,2.6-0.7,3.6-1.6
		c0.3-0.2,0.5-0.5,0.6-0.7C60.7,55.4,60.8,55.3,61,55.3z"/>
	<path fill="#FFCC66" d="M42.6,50.2c0-0.9,0-1.9,0-2.8c0.2,0,0.3,0.1,0.4,0.2c0.7,1.1,1.9,1.7,3.1,2.1c1.6,0.6,3.3,0.8,5.1,0.8
		c2.1,0.1,4.1-0.1,6.1-0.8c0.8-0.3,1.6-0.6,2.3-1.1c0.4-0.3,0.6-0.6,0.9-0.9c0.1-0.2,0.2-0.4,0.5-0.3c0,0.9,0,1.9,0,2.8
		c-0.1,0.9-0.8,1.5-1.5,1.9c-1.3,0.8-2.8,1.2-4.3,1.4C52.1,54,49,54,45.9,53c-0.7-0.2-1.4-0.5-2-0.9C43.2,51.6,42.7,51.1,42.6,50.2z
		"/>
</g>
<rect x="36" y="38.3" fill="none" width="18.4" height="19.7"/>
<g>
	<path d="M4.4,9c0-1,0.2-1.8,0.7-2.3c0.5-0.5,1.2-0.8,2.2-0.8c1,0,1.7,0.3,2.2,0.8C10,7.2,10.3,8,10.3,9v0.4H8.4V8.9
		c0-0.5-0.1-0.8-0.3-1C8,7.7,7.7,7.6,7.4,7.6S6.9,7.7,6.7,7.9c-0.2,0.2-0.3,0.5-0.3,1c0,0.4,0.1,0.8,0.3,1.1
		c0.2,0.3,0.4,0.6,0.7,0.9c0.3,0.3,0.6,0.6,0.9,0.9c0.3,0.3,0.6,0.6,0.9,1S9.8,13.5,10,14s0.3,1,0.3,1.6c0,1-0.2,1.8-0.7,2.3
		s-1.2,0.8-2.2,0.8c-1,0-1.7-0.3-2.2-0.8c-0.5-0.5-0.7-1.3-0.7-2.3v-0.8h1.9v0.9c0,0.5,0.1,0.8,0.3,1c0.2,0.2,0.4,0.3,0.7,0.3
		s0.6-0.1,0.7-0.3c0.2-0.2,0.3-0.5,0.3-1c0-0.4-0.1-0.8-0.3-1.1s-0.4-0.6-0.7-0.9C7,13.3,6.7,13,6.4,12.7s-0.6-0.6-0.9-1
		S4.9,11,4.7,10.6S4.4,9.6,4.4,9z"/>
	<path d="M11.3,9c0-1,0.3-1.8,0.8-2.3c0.5-0.5,1.3-0.8,2.2-0.8s1.7,0.3,2.2,0.8S17.3,8,17.3,9v6.6c0,0.7-0.1,1.3-0.4,1.8
		c0,0.1,0.1,0.2,0.2,0.2c0.1,0,0.2,0,0.4,0h0.2v1.8h-0.3c-0.4,0-0.8-0.1-1.1-0.2c-0.3-0.1-0.5-0.4-0.6-0.6c-0.2,0.1-0.4,0.1-0.6,0.2
		c-0.2,0-0.5,0.1-0.7,0.1c-1,0-1.7-0.3-2.2-0.8c-0.5-0.5-0.8-1.3-0.8-2.3V9z M13.2,15.7c0,0.5,0.1,0.8,0.3,1s0.4,0.3,0.7,0.3
		s0.6-0.1,0.7-0.3s0.3-0.5,0.3-1V8.9c0-0.5-0.1-0.8-0.3-1s-0.4-0.3-0.7-0.3s-0.6,0.1-0.7,0.3s-0.3,0.5-0.3,1V15.7z"/>
	<path d="M18.5,6h2v10.8h3.3v1.8h-5.2V6z"/>
	<path d="M4.4,30.6c0-1,0.2-1.8,0.7-2.3c0.5-0.5,1.2-0.8,2.2-0.8c1,0,1.7,0.3,2.2,0.8c0.5,0.5,0.7,1.3,0.7,2.3V31H8.4v-0.5
		c0-0.5-0.1-0.8-0.3-1c-0.2-0.2-0.4-0.3-0.7-0.3s-0.6,0.1-0.7,0.3c-0.2,0.2-0.3,0.5-0.3,1c0,0.4,0.1,0.8,0.3,1.1
		c0.2,0.3,0.4,0.6,0.7,0.9c0.3,0.3,0.6,0.6,0.9,0.9c0.3,0.3,0.6,0.6,0.9,1c0.3,0.3,0.5,0.7,0.7,1.2s0.3,1,0.3,1.6
		c0,1-0.2,1.8-0.7,2.3s-1.2,0.8-2.2,0.8c-1,0-1.7-0.3-2.2-0.8c-0.5-0.5-0.7-1.3-0.7-2.3v-0.8h1.9v0.9c0,0.5,0.1,0.8,0.3,1
		c0.2,0.2,0.4,0.3,0.7,0.3s0.6-0.1,0.7-0.3c0.2-0.2,0.3-0.5,0.3-1c0-0.4-0.1-0.8-0.3-1.1s-0.4-0.6-0.7-0.9c-0.3-0.3-0.6-0.6-0.9-0.9
		c-0.3-0.3-0.6-0.6-0.9-1c-0.3-0.3-0.5-0.7-0.7-1.2S4.4,31.2,4.4,30.6z"/>
	<path d="M13.4,32.9h2.7v1.8h-2.7v3.7h3.4v1.8h-5.4V27.6h5.4v1.8h-3.4V32.9z"/>
	<path d="M22.2,40.2c0-0.1,0-0.2-0.1-0.2c0-0.1,0-0.2-0.1-0.3c0-0.1,0-0.2,0-0.4c0-0.2,0-0.4,0-0.6v-2c0-0.6-0.1-1-0.3-1.2
		c-0.2-0.2-0.5-0.4-1-0.4H20v5.1h-2V27.6h3c1,0,1.8,0.2,2.2,0.7c0.5,0.5,0.7,1.2,0.7,2.2v1c0,1.3-0.4,2.1-1.3,2.6
		c0.5,0.2,0.8,0.5,1,1c0.2,0.5,0.3,1,0.3,1.7v1.9c0,0.3,0,0.6,0,0.8s0.1,0.5,0.2,0.7H22.2z M20,29.4v3.9h0.8c0.4,0,0.7-0.1,0.9-0.3
		c0.2-0.2,0.3-0.5,0.3-1v-1.2c0-0.5-0.1-0.8-0.2-1c-0.2-0.2-0.4-0.3-0.8-0.3H20z"/>
	<path d="M28.2,37.9l1.5-10.3h1.8l-1.9,12.6h-3l-1.9-12.6h2L28.2,37.9z"/>
	<path d="M34.5,32.9h2.7v1.8h-2.7v3.7h3.4v1.8h-5.4V27.6h5.4v1.8h-3.4V32.9z"/>
	<path d="M43.2,40.2c0-0.1,0-0.2-0.1-0.2c0-0.1,0-0.2-0.1-0.3c0-0.1,0-0.2,0-0.4c0-0.2,0-0.4,0-0.6v-2c0-0.6-0.1-1-0.3-1.2
		c-0.2-0.2-0.5-0.4-1-0.4h-0.7v5.1h-2V27.6h3c1,0,1.8,0.2,2.2,0.7s0.7,1.2,0.7,2.2v1c0,1.3-0.4,2.1-1.3,2.6c0.5,0.2,0.8,0.5,1,1
		c0.2,0.5,0.3,1,0.3,1.7v1.9c0,0.3,0,0.6,0,0.8c0,0.2,0.1,0.5,0.2,0.7H43.2z M41.1,29.4v3.9h0.8c0.4,0,0.7-0.1,0.9-0.3
		c0.2-0.2,0.3-0.5,0.3-1v-1.2c0-0.5-0.1-0.8-0.2-1c-0.2-0.2-0.4-0.3-0.8-0.3H41.1z"/>
</g>
<line fill="none" stroke="#FFCC66" stroke-width="0.75" stroke-miterlimit="10" x1="4" y1="41" x2="45" y2="41"/>
<line fill="none" stroke="#FFCC66" stroke-width="0.75" stroke-miterlimit="10" x1="4.5" y1="19.5" x2="23.5" y2="19.5"/>
</svg>
